<?xml version="1.0" encoding="utf-8"?>
<!-- Generator: Adobe Illustrator 23.0.1, SVG Export Plug-In . SVG Version: 6.00 Build 0)  -->
<svg version="1.1" id="Layer_1" xmlns="http://www.w3.org/2000/svg" xmlns:xlink="http://www.w3.org/1999/xlink" x="0px" y="0px"
	 viewBox="0 0 60.4 59.4" style="enable-background:new 0 0 60.4 59.4;" xml:space="preserve">
<style type="text/css">
	.st0{fill:#606060;}
</style>
<g>
	<g>
		<g>
			<path class="st0" d="M-27.2,65.3L-27.2,65.3l-35.7,0c-0.5,0-0.9-0.4-0.9-0.9V14.4c0-0.5,0.4-0.9,0.9-0.9h30.3
				c0.2,0,0.5,0.1,0.6,0.3l5.4,5.3c0.2,0.2,0.3,0.4,0.3,0.6v44.6c0,0.2-0.1,0.5-0.3,0.6C-26.7,65.2-27,65.3-27.2,65.3z M-62,63.5
				l33.9,0V20.1l-4.8-4.8H-62V63.5z"/>
		</g>
		<g>
			<path class="st0" d="M-29.9,68L-29.9,68l-35.7,0c-0.5,0-0.9-0.4-0.9-0.9V17.1c0-0.5,0.4-0.9,0.9-0.9h2.7c0.5,0,0.9,0.4,0.9,0.9
				c0,0.5-0.4,0.9-0.9,0.9h-1.8v48.2l33.9,0v-1.8c0-0.5,0.4-0.9,0.9-0.9c0.5,0,0.9,0.4,0.9,0.9v2.7c0,0.2-0.1,0.5-0.3,0.6
				C-29.4,67.9-29.6,68-29.9,68z"/>
		</g>
		<g>
			<path class="st0" d="M-33.4,70.6L-33.4,70.6l-35.7,0c-0.5,0-0.9-0.4-0.9-0.9V19.8c0-0.5,0.4-0.9,0.9-0.9h2.7
				c0.5,0,0.9,0.4,0.9,0.9c0,0.5-0.4,0.9-0.9,0.9h-1.8v48.2l33.9,0v-1.8c0-0.5,0.4-0.9,0.9-0.9c0.5,0,0.9,0.4,0.9,0.9v2.7
				c0,0.2-0.1,0.5-0.3,0.6S-33.2,70.6-33.4,70.6z"/>
		</g>
		<g>
			<path class="st0" d="M-37,72.9L-37,72.9l-35.7,0c-0.5,0-0.9-0.4-0.9-0.9V22.1c0-0.5,0.4-0.9,0.9-0.9h2.7c0.5,0,0.9,0.4,0.9,0.9
				c0,0.5-0.4,0.9-0.9,0.9h-1.8v48.2l33.9,0v-1.8c0-0.5,0.4-0.9,0.9-0.9c0.5,0,0.9,0.4,0.9,0.9v2.7c0,0.2-0.1,0.5-0.3,0.6
				C-36.5,72.9-36.8,72.9-37,72.9z"/>
		</g>
		<g>
			<path class="st0" d="M-27.2,20.7h-5.4c-0.5,0-0.9-0.4-0.9-0.9c0-0.5,0.4-0.9,0.9-0.9h5.4c0.5,0,0.9,0.4,0.9,0.9
				C-26.3,20.3-26.7,20.7-27.2,20.7z"/>
		</g>
		<g>
			<path class="st0" d="M-32.5,20.7c-0.5,0-0.9-0.4-0.9-0.9v-5.3c0-0.5,0.4-0.9,0.9-0.9c0.5,0,0.9,0.4,0.9,0.9v5.3
				C-31.7,20.3-32.1,20.7-32.5,20.7z"/>
		</g>
		<g>
			<g>
				<path class="st0" d="M-20.1,26c-0.5,0-0.9-0.4-0.9-0.9c0-0.5-0.4-0.9-0.9-0.9c-0.5,0-0.9,0.4-0.9,0.9c0,0.5-0.4,0.9-0.9,0.9
					c-0.5,0-0.9-0.4-0.9-0.9c0-1.5,1.2-2.7,2.7-2.7c1.5,0,2.7,1.2,2.7,2.7C-19.2,25.6-19.6,26-20.1,26z"/>
			</g>
			<g>
				<path class="st0" d="M-23.6,56.3c-0.5,0-0.9-0.4-0.9-0.9V25.1c0-0.5,0.4-0.9,0.9-0.9c0.5,0,0.9,0.4,0.9,0.9v30.3
					C-22.7,55.9-23.1,56.3-23.6,56.3z"/>
			</g>
			<g>
				<path class="st0" d="M-20.1,56.3c-0.5,0-0.9-0.4-0.9-0.9V25.1c0-0.5,0.4-0.9,0.9-0.9c0.5,0,0.9,0.4,0.9,0.9v30.3
					C-19.2,55.9-19.6,56.3-20.1,56.3z"/>
			</g>
			<g>
				<path class="st0" d="M-21.8,59c-0.3,0-0.6-0.1-0.7-0.4l-1.8-2.7c-0.3-0.4-0.2-1,0.2-1.2c0.4-0.3,1-0.2,1.2,0.2l1.8,2.7
					c0.3,0.4,0.2,1-0.2,1.2C-21.5,59-21.7,59-21.8,59z"/>
			</g>
			<g>
				<path class="st0" d="M-21.8,59c-0.2,0-0.3,0-0.5-0.1c-0.4-0.3-0.5-0.8-0.2-1.2l1.8-2.7c0.3-0.4,0.8-0.5,1.2-0.2
					c0.4,0.3,0.5,0.8,0.2,1.2l-1.8,2.7C-21.3,58.9-21.6,59-21.8,59z"/>
			</g>
			<g>
				<path class="st0" d="M-21.8,59.9c-0.5,0-0.9-0.4-0.9-0.9v-0.9c0-0.5,0.4-0.9,0.9-0.9c0.5,0,0.9,0.4,0.9,0.9V59
					C-20.9,59.5-21.3,59.9-21.8,59.9z"/>
			</g>
			<g>
				<path class="st0" d="M-20.1,54.6h-3.6c-0.5,0-0.9-0.4-0.9-0.9s0.4-0.9,0.9-0.9h3.6c0.5,0,0.9,0.4,0.9,0.9S-19.6,54.6-20.1,54.6z
					"/>
			</g>
			<g>
				<path class="st0" d="M-17.4,28.7c-0.5,0-0.9-0.4-0.9-0.9c0-0.5-0.4-0.9-0.9-0.9c-0.5,0-0.9-0.4-0.9-0.9s0.4-0.9,0.9-0.9
					c1.5,0,2.7,1.2,2.7,2.7C-16.5,28.3-16.9,28.7-17.4,28.7z"/>
			</g>
			<g>
				<path class="st0" d="M-17.4,39.4c-0.5,0-0.9-0.4-0.9-0.9V27.8c0-0.5,0.4-0.9,0.9-0.9c0.5,0,0.9,0.4,0.9,0.9v10.7
					C-16.5,39-16.9,39.4-17.4,39.4z"/>
			</g>
			<g>
				<path class="st0" d="M-19.2,26.9h-0.9c-0.5,0-0.9-0.4-0.9-0.9c0-0.5,0.4-0.9,0.9-0.9h0.9c0.5,0,0.9,0.4,0.9,0.9
					C-18.3,26.5-18.7,26.9-19.2,26.9z"/>
			</g>
			<g>
				<path class="st0" d="M-20.1,34.9h-3.6c-0.5,0-0.9-0.4-0.9-0.9s0.4-0.9,0.9-0.9h3.6c0.5,0,0.9,0.4,0.9,0.9S-19.6,34.9-20.1,34.9z
					"/>
			</g>
		</g>
		<g>
			<g>
				<path class="st0" d="M-33.4,37.6h-23.2c-0.5,0-0.9-0.4-0.9-0.9c0-0.5,0.4-0.9,0.9-0.9h23.2c0.5,0,0.9,0.4,0.9,0.9
					C-32.5,37.2-32.9,37.6-33.4,37.6z"/>
			</g>
			<g>
				<path class="st0" d="M-33.4,42.1h-23.2c-0.5,0-0.9-0.4-0.9-0.9c0-0.5,0.4-0.9,0.9-0.9h23.2c0.5,0,0.9,0.4,0.9,0.9
					C-32.5,41.7-32.9,42.1-33.4,42.1z"/>
			</g>
			<g>
				<path class="st0" d="M-33.4,46.5h-23.2c-0.5,0-0.9-0.4-0.9-0.9c0-0.5,0.4-0.9,0.9-0.9h23.2c0.5,0,0.9,0.4,0.9,0.9
					C-32.5,46.1-32.9,46.5-33.4,46.5z"/>
			</g>
			<g>
				<path class="st0" d="M-45,51h-11.6c-0.5,0-0.9-0.4-0.9-0.9s0.4-0.9,0.9-0.9H-45c0.5,0,0.9,0.4,0.9,0.9S-44.5,51-45,51z"/>
			</g>
			<g>
				<path class="st0" d="M-33.4,59h-6.2c-0.5,0-0.9-0.4-0.9-0.9s0.4-0.9,0.9-0.9h6.2c0.5,0,0.9,0.4,0.9,0.9S-32.9,59-33.4,59z"/>
			</g>
			<g>
				<path class="st0" d="M-37.9,60.8c-0.5,0-0.9-0.4-0.9-0.9v-3.6c0-0.5,0.4-0.9,0.9-0.9c0.5,0,0.9,0.4,0.9,0.9v3.6
					C-37,60.4-37.4,60.8-37.9,60.8z"/>
			</g>
			<g>
				<path class="st0" d="M-37.9,60.8c-0.2,0-0.4-0.1-0.5-0.2c-0.4-0.3-0.5-0.9-0.2-1.2l2.7-3.6c0.3-0.4,0.9-0.5,1.2-0.2
					c0.4,0.3,0.5,0.9,0.2,1.2l-2.7,3.6C-37.4,60.7-37.6,60.8-37.9,60.8z"/>
			</g>
			<g>
				<path class="st0" d="M-35.2,60.8c-0.5,0-0.9-0.4-0.9-0.9v-3.6c0-0.5,0.4-0.9,0.9-0.9c0.5,0,0.9,0.4,0.9,0.9v3.6
					C-34.3,60.4-34.7,60.8-35.2,60.8z"/>
			</g>
		</g>
	</g>
</g>
<path class="st0" d="M9.1,49.5c5,4.9,11.8,7.8,19.3,7.8c3.1,0,6.2-0.5,9.1-1.5c0.7-0.3,1.2-1.1,0.9-1.9c-0.3-0.7-1.1-1.2-1.9-0.9
	c-2.6,0.9-5.3,1.3-8.1,1.3c-6.4,0-12.1-2.4-16.5-6.3c1.6-2.8,4.1-5.2,7-7c1.7,0.9,5.8,2.8,9,2.8c1.3,0,2.8-0.3,4.4-0.8
	c0.7-0.2,1.2-1.1,1-1.9c-0.2-0.7-1.1-1.2-1.9-1c-1.4,0.4-2.5,0.7-3.5,0.7c-2.7,0-7-2-8.4-2.8c-0.4-0.2-1-0.2-1.5,0
	c-3.4,2-6.2,4.7-8.2,7.8c-3.8-4.3-6.1-10-6.1-16.3c0-13.7,11.1-24.7,24.7-24.7s24.7,11.1,24.7,24.7c0,0.8,0.7,1.5,1.5,1.5
	s1.5-0.7,1.5-1.5c0-15.3-12.5-27.7-27.7-27.7S0.5,14.2,0.5,29.6c0,7.7,3.1,14.6,8.2,19.7C8.8,49.4,8.9,49.4,9.1,49.5z"/>
<path class="st0" d="M28.3,13.1c-7,0-10.9,4.3-10.9,12c0,7.1,5.4,14.1,10.9,14.1c5.7,0,10.9-6.7,10.9-14.1
	C39.2,17.4,35.2,13.1,28.3,13.1z M28.3,36.1c-4.2,0-7.9-6.2-7.9-11.1c0-4.1,1.3-9,7.9-9s7.9,4.9,7.9,9
	C36.2,30.6,32.3,36.1,28.3,36.1z"/>
<path class="st0" d="M52.1,33.7c0-0.8-0.7-1.5-1.5-1.5h-5.8c-0.8,0-1.5,0.7-1.5,1.5v6.8h-6.8c-0.8,0-1.5,0.7-1.5,1.5v5.8
	c0,0.8,0.7,1.5,1.5,1.5h6.8v6.8c0,0.8,0.7,1.5,1.5,1.5h5.8c0.8,0,1.5-0.7,1.5-1.5v-6.8h6.8c0.8,0,1.5-0.7,1.5-1.5V42
	c0-0.8-0.7-1.5-1.5-1.5h-6.8V33.7z M57.4,43.5v2.8h-6.8c-0.8,0-1.5,0.7-1.5,1.5v6.8h-2.8v-6.8c0-0.8-0.7-1.5-1.5-1.5H38v-2.8h6.8
	c0.8,0,1.5-0.7,1.5-1.5v-6.8h2.8V42c0,0.8,0.7,1.5,1.5,1.5H57.4z"/>
<line class="st0" x1="18.1" y1="39.4" x2="10.9" y2="47.6"/>
<path class="st0" d="M37.9,46.2c1.7,1.5,4.8,0.2,6.4,1.9c0.8,0.8,0.9,2,0.8,3.1c-0.1,1.1-0.4,2.2-0.3,3.2c0.1,1.1,0.8,2.2,1.8,2.4
	c1,0.2,2.1-0.6,2.6-1.5c0.5-0.9,0.5-2,0.7-3.1c0.1-1.1,0.3-2.2,1.1-3c0.8-0.9,1.9-1.2,3-1.4c1.1-0.2,2.3-0.4,3.2-1
	c0.9-0.6,1.6-1.9,1.1-2.9c-0.5-1.2-2.2-1.4-3.5-1.3S52.1,43,51,42.3c-1-0.6-1.4-1.9-1.5-3.1c-0.1-1.2,1.1-2.9,0.6-4
	c-0.5-1.1-2.8-1.5-4-1.1c-1.3,0.4-1.6,2.1-1.5,3.5c0.1,1.3,0.3,2.9-0.6,3.9c-1.7,1.8-4.1-0.1-6,0.7C36.4,42.7,36.8,45.2,37.9,46.2z"
	/>
</svg>
