<?xml version="1.0" encoding="utf-8"?>
<!-- Generator: Adobe Illustrator 23.0.1, SVG Export Plug-In . SVG Version: 6.00 Build 0)  -->
<svg version="1.1" id="Layer_1" xmlns="http://www.w3.org/2000/svg" xmlns:xlink="http://www.w3.org/1999/xlink" x="0px" y="0px"
	 viewBox="0 0 74.8 74.8" style="enable-background:new 0 0 74.8 74.8;" xml:space="preserve">
<style type="text/css">
	.st0{fill:none;stroke:#000000;stroke-width:3;stroke-miterlimit:10;}
	.st1{fill:#FFFFFF;}
</style>
<circle class="st0" cx="37.5" cy="37" r="35.5"/>
<path d="M46.5,38.7"/>
<path d="M17.5,33.7c-0.3,1.1-0.2,2.2-0.1,3.4c0.3,3.3,0.7,6.5,1,9.8c0.1,0.6,0.2,1.3,0.6,1.8c0.6,0.6,1.5,0.7,2.3,0.7
	c12.5,0,24.9,0,37.4,0c0.7-3.7,1.2-7.5,1.5-11.2c0.1-1.1,0.1-2.2-0.1-3.3c-0.2-1.1-0.8-2.1-1.6-2.8c-1-0.7-2.2-0.8-3.4-0.9
	c-5.3-0.3-10.5-0.3-15.8-0.2c-5.2,0.1-10.5,0.3-15.7,0.8c-1.3,0.1-2.5,0.3-3.8,0.1C18.6,31.7,17.8,32.7,17.5,33.7z"/>
<path d="M58.9,30.5h-3.7v-8.9c0-0.3-0.1-0.7-0.4-0.9l-7.3-7.7c-0.2-0.2-0.5-0.4-0.9-0.4H22.3c-0.7,0-1.2,0.6-1.2,1.3v16.6h-3.7
	c-0.7,0-1.2,0.6-1.2,1.3v17.9c0,0.7,0.5,1.3,1.2,1.3h3.7v6.4c0,0.7,0.5,1.3,1.2,1.3H54c0.7,0,1.2-0.6,1.2-1.3v-6.4h3.7
	c0.7,0,1.2-0.6,1.2-1.3V31.7C60.1,31,59.6,30.5,58.9,30.5z M47.9,16.9l3.1,3.3h-3.1V16.9z M23.6,15.1h21.9v7.7h7.3v7.7H23.6V15.1z
	 M52.8,56H23.6v-5.1h29.2V56z M57.7,48.3h-39V33h39V48.3z"/>
<path class="st1" d="M32.1,42v-2.6c0-2.1-1.6-3.8-3.7-3.8h-3.7v10.2h3.7C30.5,45.8,32.1,44.1,32.1,42z M27.2,38.1h1.2
	c0.7,0,1.2,0.6,1.2,1.3V42c0,0.7-0.5,1.3-1.2,1.3h-1.2V38.1z"/>
<path class="st1" d="M34.5,45.8h6.1v-2.6h-4.9V42h3.7v-2.6h-3.7v-1.3h4.9v-2.6h-6.1c-0.7,0-1.2,0.6-1.2,1.3v2.6V42v2.6
	C33.3,45.2,33.9,45.8,34.5,45.8z"/>
<path class="st1" d="M44.3,39.9l1.6,1.7c0.5,0.5,1.2,0.5,1.7,0l1.6-1.7v5.9h2.4v-8.9c0-0.5-0.3-1-0.8-1.2c-0.5-0.2-1-0.1-1.3,0.3
	l-2.8,2.9l-2.8-2.9c-0.3-0.4-0.9-0.5-1.3-0.3c-0.5,0.2-0.8,0.7-0.8,1.2v8.9h2.4L44.3,39.9z"/>
</svg>
