<?xml version="1.0" encoding="utf-8"?>
<!-- Generator: Adobe Illustrator 23.0.1, SVG Export Plug-In . SVG Version: 6.00 Build 0)  -->
<svg version="1.1" id="Layer_1" xmlns="http://www.w3.org/2000/svg" xmlns:xlink="http://www.w3.org/1999/xlink" x="0px" y="0px"
	 viewBox="0 0 60.4 59.4" style="enable-background:new 0 0 60.4 59.4;" xml:space="preserve">
<style type="text/css">
	.st0{fill-rule:evenodd;clip-rule:evenodd;fill:#606060;}
	.st1{fill:#606060;}
</style>
<path class="st0" d="M22.8,13.2c-0.3,0.7-0.8,1.3-1.4,1.8c-0.6,0.4-1.4,0.7-2.1,0.7c-0.7,0-1.5-0.2-2.1-0.6c-1.4-1-2.1-2.7-2-4.4
	c0-0.9,0.3-1.9,0.7-2.7c0.5-1.1,1.5-2,2.8-2.2c0.2,0,0.4,0,0.6,0c1.4,0,2.5,0.7,3.2,1.9c0.7,1.1,0.9,2.6,0.8,3.9
	C23.1,12.1,23,12.7,22.8,13.2z"/>
<g>
	<g>
		<g>
			<path class="st1" d="M46.8,51.7L46.8,51.7l-35.7,0c-0.5,0-0.9-0.4-0.9-0.9V0.9c0-0.5,0.4-0.9,0.9-0.9h30.3c0.2,0,0.5,0.1,0.6,0.3
				l5.4,5.3c0.2,0.2,0.3,0.4,0.3,0.6v44.6c0,0.2-0.1,0.5-0.3,0.6C47.3,51.6,47.1,51.7,46.8,51.7z M12,49.9l33.9,0V6.6l-4.8-4.8H12
				V49.9z"/>
		</g>
		<g>
			<path class="st1" d="M44.2,54.4L44.2,54.4l-35.7,0c-0.5,0-0.9-0.4-0.9-0.9V3.6c0-0.5,0.4-0.9,0.9-0.9h2.7c0.5,0,0.9,0.4,0.9,0.9
				s-0.4,0.9-0.9,0.9H9.4v48.2l33.9,0v-1.8c0-0.5,0.4-0.9,0.9-0.9s0.9,0.4,0.9,0.9v2.7c0,0.2-0.1,0.5-0.3,0.6S44.4,54.4,44.2,54.4z"
				/>
		</g>
		<g>
			<path class="st1" d="M40.6,57.1L40.6,57.1l-35.7,0c-0.5,0-0.9-0.4-0.9-0.9V6.2c0-0.5,0.4-0.9,0.9-0.9h2.7c0.5,0,0.9,0.4,0.9,0.9
				S8.1,7.1,7.6,7.1H5.8v48.2l33.9,0v-1.8c0-0.5,0.4-0.9,0.9-0.9c0.5,0,0.9,0.4,0.9,0.9v2.7c0,0.2-0.1,0.5-0.3,0.6
				S40.8,57.1,40.6,57.1z"/>
		</g>
		<g>
			<path class="st1" d="M37,59.4L37,59.4l-35.7,0c-0.5,0-0.9-0.4-0.9-0.9V8.6c0-0.5,0.4-0.9,0.9-0.9H4c0.5,0,0.9,0.4,0.9,0.9
				S4.5,9.4,4,9.4H2.2v48.2l33.9,0v-1.8c0-0.5,0.4-0.9,0.9-0.9c0.5,0,0.9,0.4,0.9,0.9v2.7c0,0.2-0.1,0.5-0.3,0.6
				C37.5,59.3,37.3,59.4,37,59.4z"/>
		</g>
		<g>
			<path class="st1" d="M46.8,7.1h-5.4c-0.5,0-0.9-0.4-0.9-0.9s0.4-0.9,0.9-0.9h5.4c0.5,0,0.9,0.4,0.9,0.9S47.3,7.1,46.8,7.1z"/>
		</g>
		<g>
			<path class="st1" d="M41.5,7.1c-0.5,0-0.9-0.4-0.9-0.9V0.9C40.6,0.4,41,0,41.5,0c0.5,0,0.9,0.4,0.9,0.9v5.3
				C42.4,6.7,42,7.1,41.5,7.1z"/>
		</g>
		<g>
			<g>
				<path class="st1" d="M54,12.5c-0.5,0-0.9-0.4-0.9-0.9c0-0.5-0.4-0.9-0.9-0.9s-0.9,0.4-0.9,0.9c0,0.5-0.4,0.9-0.9,0.9
					c-0.5,0-0.9-0.4-0.9-0.9c0-1.5,1.2-2.7,2.7-2.7s2.7,1.2,2.7,2.7C54.9,12.1,54.5,12.5,54,12.5z"/>
			</g>
			<g>
				<path class="st1" d="M50.4,42.8c-0.5,0-0.9-0.4-0.9-0.9V11.6c0-0.5,0.4-0.9,0.9-0.9c0.5,0,0.9,0.4,0.9,0.9v30.3
					C51.3,42.4,50.9,42.8,50.4,42.8z"/>
			</g>
			<g>
				<path class="st1" d="M54,42.8c-0.5,0-0.9-0.4-0.9-0.9V11.6c0-0.5,0.4-0.9,0.9-0.9c0.5,0,0.9,0.4,0.9,0.9v30.3
					C54.9,42.4,54.5,42.8,54,42.8z"/>
			</g>
			<g>
				<path class="st1" d="M52.2,45.5c-0.3,0-0.6-0.1-0.7-0.4l-1.8-2.7c-0.3-0.4-0.2-1,0.2-1.2c0.4-0.3,1-0.2,1.2,0.2l1.8,2.7
					c0.3,0.4,0.2,1-0.2,1.2C52.5,45.4,52.4,45.5,52.2,45.5z"/>
			</g>
			<g>
				<path class="st1" d="M52.2,45.5c-0.2,0-0.3,0-0.5-0.1c-0.4-0.3-0.5-0.8-0.2-1.2l1.8-2.7c0.3-0.4,0.8-0.5,1.2-0.2
					c0.4,0.3,0.5,0.8,0.2,1.2l-1.8,2.7C52.8,45.3,52.5,45.5,52.2,45.5z"/>
			</g>
			<g>
				<path class="st1" d="M52.2,46.4c-0.5,0-0.9-0.4-0.9-0.9v-0.9c0-0.5,0.4-0.9,0.9-0.9s0.9,0.4,0.9,0.9v0.9
					C53.1,46,52.7,46.4,52.2,46.4z"/>
			</g>
			<g>
				<path class="st1" d="M54,41h-3.6c-0.5,0-0.9-0.4-0.9-0.9c0-0.5,0.4-0.9,0.9-0.9H54c0.5,0,0.9,0.4,0.9,0.9
					C54.9,40.6,54.5,41,54,41z"/>
			</g>
			<g>
				<path class="st1" d="M56.6,15.1c-0.5,0-0.9-0.4-0.9-0.9c0-0.5-0.4-0.9-0.9-0.9c-0.5,0-0.9-0.4-0.9-0.9s0.4-0.9,0.9-0.9
					c1.5,0,2.7,1.2,2.7,2.7C57.5,14.7,57.1,15.1,56.6,15.1z"/>
			</g>
			<g>
				<path class="st1" d="M56.6,25.9c-0.5,0-0.9-0.4-0.9-0.9V14.3c0-0.5,0.4-0.9,0.9-0.9s0.9,0.4,0.9,0.9V25
					C57.5,25.5,57.1,25.9,56.6,25.9z"/>
			</g>
			<g>
				<path class="st1" d="M54.9,13.4H54c-0.5,0-0.9-0.4-0.9-0.9s0.4-0.9,0.9-0.9h0.9c0.5,0,0.9,0.4,0.9,0.9S55.4,13.4,54.9,13.4z"/>
			</g>
			<g>
				<path class="st1" d="M54,21.4h-3.6c-0.5,0-0.9-0.4-0.9-0.9s0.4-0.9,0.9-0.9H54c0.5,0,0.9,0.4,0.9,0.9S54.5,21.4,54,21.4z"/>
			</g>
		</g>
		<g>
			<g>
				<path class="st1" d="M40.6,24.1H17.4c-0.5,0-0.9-0.4-0.9-0.9s0.4-0.9,0.9-0.9h23.2c0.5,0,0.9,0.4,0.9,0.9S41.1,24.1,40.6,24.1z"
					/>
			</g>
			<g>
				<path class="st1" d="M40.6,28.5H17.4c-0.5,0-0.9-0.4-0.9-0.9c0-0.5,0.4-0.9,0.9-0.9h23.2c0.5,0,0.9,0.4,0.9,0.9
					C41.5,28.1,41.1,28.5,40.6,28.5z"/>
			</g>
			<g>
				<path class="st1" d="M40.6,33H17.4c-0.5,0-0.9-0.4-0.9-0.9c0-0.5,0.4-0.9,0.9-0.9h23.2c0.5,0,0.9,0.4,0.9,0.9
					C41.5,32.6,41.1,33,40.6,33z"/>
			</g>
			<g>
				<path class="st1" d="M29,37.5H17.4c-0.5,0-0.9-0.4-0.9-0.9c0-0.5,0.4-0.9,0.9-0.9H29c0.5,0,0.9,0.4,0.9,0.9
					C29.9,37.1,29.5,37.5,29,37.5z"/>
			</g>
			<g>
				<path class="st1" d="M40.6,45.5h-6.2c-0.5,0-0.9-0.4-0.9-0.9c0-0.5,0.4-0.9,0.9-0.9h6.2c0.5,0,0.9,0.4,0.9,0.9
					C41.5,45.1,41.1,45.5,40.6,45.5z"/>
			</g>
			<g>
				<path class="st1" d="M36.1,47.3c-0.5,0-0.9-0.4-0.9-0.9v-3.6c0-0.5,0.4-0.9,0.9-0.9c0.5,0,0.9,0.4,0.9,0.9v3.6
					C37,46.9,36.6,47.3,36.1,47.3z"/>
			</g>
			<g>
				<path class="st1" d="M36.1,47.3c-0.2,0-0.4-0.1-0.5-0.2c-0.4-0.3-0.5-0.9-0.2-1.2l2.7-3.6c0.3-0.4,0.9-0.5,1.2-0.2
					c0.4,0.3,0.5,0.9,0.2,1.2l-2.7,3.6C36.7,47.1,36.4,47.3,36.1,47.3z"/>
			</g>
			<g>
				<path class="st1" d="M38.8,47.3c-0.5,0-0.9-0.4-0.9-0.9v-3.6c0-0.5,0.4-0.9,0.9-0.9s0.9,0.4,0.9,0.9v3.6
					C39.7,46.9,39.3,47.3,38.8,47.3z"/>
			</g>
		</g>
	</g>
</g>
</svg>
