<?xml version="1.0" encoding="utf-8"?>
<!-- Generator: Adobe Illustrator 23.0.1, SVG Export Plug-In . SVG Version: 6.00 Build 0)  -->
<svg version="1.1" id="Layer_1" xmlns="http://www.w3.org/2000/svg" xmlns:xlink="http://www.w3.org/1999/xlink" x="0px" y="0px"
	 viewBox="0 0 60.4 59.4" style="enable-background:new 0 0 60.4 59.4;" xml:space="preserve">
<style type="text/css">
	.st0{fill-rule:evenodd;clip-rule:evenodd;fill:#606060;}
</style>
<g>
	<path class="st0" d="M0,0h54.8v28.6l-6.1,3.9V3.9H6.1v43.9h3v-8c0-5.2,12.7-3.4,12.7-7.1l0.1-2.8l0,0c1.7,1.1,3.1,1.5,5.7,1.5
		c2.3,0,3.8-0.5,5.5-1.5l0,0l0.4,2.7c0,2.4,6,2.5,9.3,3.8L19,51.8H0V0z M29.6,58.4L29.6,58.4l-10.5,1l0-0.2l4.3-6.6l0,0L29.6,58.4z
		 M58.7,38.1l-1.4,1.1l-5.9-5.4l1.8-1.2C57.7,29.7,63.2,35.2,58.7,38.1z M55.9,40.3L30.5,57.4l-6.2-5.3l25.9-17.1L55.9,40.3z
		 M54.8,46.3v5.5h-8.5L54.8,46.3z M36.1,23.7c-0.7,1.7-1.9,3.1-3.4,4.2c-1.5,1-3.2,1.6-5.1,1.6c-1.8,0-3.5-0.5-4.9-1.5
		c-3.3-2.4-4.9-6.5-4.7-10.5c0.1-2.2,0.6-4.5,1.6-6.5c1.3-2.7,3.7-4.8,6.7-5.2c0.4-0.1,0.9-0.1,1.3-0.1c3.2,0,6,1.8,7.6,4.5
		c1.6,2.7,2,6.2,1.9,9.3C36.9,21.1,36.6,22.5,36.1,23.7z"/>
</g>
</svg>
