<?xml version="1.0" encoding="utf-8"?>
<!-- Generator: Adobe Illustrator 23.0.1, SVG Export Plug-In . SVG Version: 6.00 Build 0)  -->
<svg version="1.1" id="Layer_1" xmlns="http://www.w3.org/2000/svg" xmlns:xlink="http://www.w3.org/1999/xlink" x="0px" y="0px"
	 viewBox="0 0 800 800" style="enable-background:new 0 0 800 800;" xml:space="preserve">
<style type="text/css">
	.st0{clip-path:url(#SVGID_2_);}
	.st1{fill:none;stroke:#000000;stroke-width:3;stroke-miterlimit:10;}
	.st2{fill:#FFFFFF;}
	.st3{fill:none;stroke:#000000;stroke-width:2;stroke-miterlimit:10;}
	.st4{fill:#DE7540;}
	.st5{clip-path:url(#SVGID_2_);fill:#FFFFFF;stroke:#000000;stroke-width:3;stroke-miterlimit:10;}
	.st6{clip-path:url(#SVGID_2_);fill:#FFFFFF;stroke:#000000;stroke-width:2;stroke-miterlimit:10;}
</style>
<g>
	<defs>
		<rect id="SVGID_1_" width="800" height="800"/>
	</defs>
	<clipPath id="SVGID_2_">
		<use xlink:href="#SVGID_1_"  style="overflow:visible;"/>
	</clipPath>
	<g class="st0">
		<g>
			<g>
				<path class="st1" d="M618.1,553.3H126.4c-1.1,0-2-0.9-2-2V140c0-1.1,0.9-2,2-2h491.6c1.1,0,2,0.9,2,2v411.3
					C620.1,552.4,619.2,553.3,618.1,553.3z"/>
			</g>
			<g>
				<path class="st2" d="M262.7,194.6h-53.1c-1.1,0-2-0.9-2-2v-135c0-1.1,0.9-2,2-2h53.1c1.1,0,2,0.9,2,2v135
					C264.7,193.7,263.8,194.6,262.7,194.6z"/>
			</g>
			<g>
				<path class="st2" d="M537.2,194.6h-53.1c-1.1,0-2-0.9-2-2v-135c0-1.1,0.9-2,2-2h53.1c1.1,0,2,0.9,2,2v135
					C539.2,193.7,538.3,194.6,537.2,194.6z"/>
			</g>
			<g>
				<path d="M524.2,174.2h-27.1c-0.9,0-1.7-0.8-1.7-1.7V89.6c0-0.9,0.8-1.7,1.7-1.7h27.1c0.9,0,1.7,0.8,1.7,1.7v82.9
					C525.9,173.5,525.2,174.2,524.2,174.2z"/>
			</g>
			<g>
				<path d="M620.1,215.2v4.5c0,0.2-0.1,0.3-0.3,0.3H124.7c-0.2,0-0.3-0.1-0.3-0.3v-4.5c0-0.2,0.1-0.3,0.3-0.3h495.1
					C619.9,214.9,620.1,215,620.1,215.2z"/>
			</g>
			<g>
				<path d="M249.7,174.2h-27.1c-0.9,0-1.7-0.8-1.7-1.7V89.6c0-0.9,0.8-1.7,1.7-1.7h27.1c0.9,0,1.7,0.8,1.7,1.7v82.9
					C251.4,173.5,250.6,174.2,249.7,174.2z"/>
			</g>
			<g>
				<path d="M314.9,328.9h-67.5c-1.1,0-2-0.9-2-2V267c0-1.1,0.9-2,2-2h67.5c1.1,0,2,0.9,2,2v59.9C316.9,328,316,328.9,314.9,328.9z"
					/>
			</g>
			<g>
				<path class="st3" d="M406,328.9h-67.5c-1.1,0-2-0.9-2-2V267c0-1.1,0.9-2,2-2H406c1.1,0,2,0.9,2,2v59.9
					C408,328,407.1,328.9,406,328.9z"/>
			</g>
			<g>
				<path class="st3" d="M498.3,328.9h-67.5c-1.1,0-2-0.9-2-2V267c0-1.1,0.9-2,2-2h67.5c1.1,0,2,0.9,2,2v59.9
					C500.3,328,499.4,328.9,498.3,328.9z"/>
			</g>
			<g>
				<path class="st3" d="M591.2,328.9h-67.5c-1.1,0-2-0.9-2-2V267c0-1.1,0.9-2,2-2h67.5c1.1,0,2,0.9,2,2v59.9
					C593.2,328,592.3,328.9,591.2,328.9z"/>
			</g>
			<g>
				<path class="st3" d="M591.2,409.5h-67.5c-1.1,0-2-0.9-2-2v-59.9c0-1.1,0.9-2,2-2h67.5c1.1,0,2,0.9,2,2v59.9
					C593.2,408.6,592.3,409.5,591.2,409.5z"/>
			</g>
			<g>
				<path class="st3" d="M498.3,409.5h-67.5c-1.1,0-2-0.9-2-2v-59.9c0-1.1,0.9-2,2-2h67.5c1.1,0,2,0.9,2,2v59.9
					C500.3,408.6,499.4,409.5,498.3,409.5z"/>
			</g>
			<g>
				<path class="st3" d="M405.4,409.5h-67.5c-1.1,0-2-0.9-2-2v-59.9c0-1.1,0.9-2,2-2h67.5c1.1,0,2,0.9,2,2v59.9
					C407.4,408.6,406.5,409.5,405.4,409.5z"/>
			</g>
			<g>
				<path class="st3" d="M312.5,409.5H245c-1.1,0-2-0.9-2-2v-59.9c0-1.1,0.9-2,2-2h67.5c1.1,0,2,0.9,2,2v59.9
					C314.5,408.6,313.6,409.5,312.5,409.5z"/>
			</g>
			<g>
				<path class="st3" d="M222.7,491.4h-67.5c-1.1,0-2-0.9-2-2v-59.9c0-1.1,0.9-2,2-2h67.5c1.1,0,2,0.9,2,2v59.9
					C224.7,490.5,223.8,491.4,222.7,491.4z"/>
			</g>
			<g>
				<path class="st3" d="M312.5,491.4H245c-1.1,0-2-0.9-2-2v-59.9c0-1.1,0.9-2,2-2h67.5c1.1,0,2,0.9,2,2v59.9
					C314.5,490.5,313.6,491.4,312.5,491.4z"/>
			</g>
			<g>
				<path class="st3" d="M406,491.4h-67.5c-1.1,0-2-0.9-2-2v-59.9c0-1.1,0.9-2,2-2H406c1.1,0,2,0.9,2,2v59.9
					C408,490.5,407.1,491.4,406,491.4z"/>
			</g>
			<g>
				<path class="st3" d="M498.3,491.4h-67.5c-1.1,0-2-0.9-2-2v-59.9c0-1.1,0.9-2,2-2h67.5c1.1,0,2,0.9,2,2v59.9
					C500.3,490.5,499.4,491.4,498.3,491.4z"/>
			</g>
			<g>
				<path class="st3" d="M222.7,409.5h-67.5c-1.1,0-2-0.9-2-2v-59.9c0-1.1,0.9-2,2-2h67.5c1.1,0,2,0.9,2,2v59.9
					C224.7,408.6,223.8,409.5,222.7,409.5z"/>
			</g>
		</g>
		<g>
			<g>
				<circle class="st2" cx="646.2" cy="497.7" r="130.5"/>
			</g>
			<g>
				<path d="M647.3,362.3c-73.7,0-133.7,60-133.7,133.7s60,133.7,133.7,133.7S781,569.6,781,495.9S721,362.3,647.3,362.3z
					 M647.3,617.7c-67.1,0-121.8-54.6-121.8-121.8s54.6-121.8,121.8-121.8s121.8,54.6,121.8,121.8S714.5,617.7,647.3,617.7z"/>
			</g>
			<g>
				<circle class="st2" cx="647.6" cy="496.3" r="126.6"/>
			</g>
			<g>
				<path d="M745.4,495.5v0.5c0,5.7-0.5,11.4-1.5,17l11.7,2c1.1-6.2,1.7-12.7,1.7-19.1v-0.5H745.4z"/>
			</g>
			<g>
				<path d="M630.4,592.5c-5.6-1-11.2-2.5-16.5-4.4l-4,11.2c6,2.2,12.2,3.8,18.5,4.9L630.4,592.5z"/>
			</g>
			<g>
				<path d="M572.4,559.1c-3.7-4.4-7-9.1-9.8-14l-10.3,6c3.2,5.5,6.9,10.8,11,15.7L572.4,559.1z"/>
			</g>
			<g>
				<path d="M555.3,529.6c-2-5.3-3.4-10.9-4.4-16.5l-11.7,2.1c1.1,6.3,2.8,12.5,5,18.5L555.3,529.6z"/>
			</g>
			<g>
				<path d="M664.5,592.5c-5.6,1-11.3,1.5-17,1.5l0,11.9c6.4,0,12.8-0.6,19.1-1.7L664.5,592.5z"/>
			</g>
			<g>
				<path d="M555.1,462.6c1.9-5.3,4.3-10.6,7.2-15.5l-10.3-5.9c-3.2,5.5-5.9,11.4-8.1,17.4L555.1,462.6z"/>
			</g>
			<g>
				<path d="M549.3,495.9c0-5.6,0.5-11.3,1.4-16.8l-11.7-2c-1.1,6.2-1.6,12.5-1.6,18.8v0.2L549.3,495.9z"/>
			</g>
			<g>
				<path d="M696.4,580.8c-4.9,2.9-10.1,5.3-15.5,7.2l4.1,11.2c6-2.2,11.8-4.9,17.3-8.1L696.4,580.8z"/>
			</g>
			<g>
				<path d="M739.5,529.4c-1.9,5.3-4.4,10.5-7.2,15.5l10.3,5.9c3.2-5.5,5.9-11.4,8.1-17.4L739.5,529.4z"/>
			</g>
			<g>
				<path d="M722.5,558.9c-3.7,4.4-7.7,8.4-12.1,12.1l7.6,9.1c4.9-4.1,9.4-8.7,13.5-13.5L722.5,558.9z"/>
			</g>
			<g>
				<path d="M598.5,580.9c-4.9-2.8-9.6-6.1-14-9.8l-7.6,9.1c4.9,4.1,10.2,7.8,15.7,11L598.5,580.9z"/>
			</g>
			<g>
				<path d="M722.2,432.6c3.7,4.3,7,9,9.9,13.9l10.3-6c-3.2-5.5-6.9-10.8-11.1-15.6L722.2,432.6z"/>
			</g>
			<g>
				<path d="M739.3,462c2,5.3,3.5,10.9,4.5,16.5l11.7-2.1c-1.1-6.3-2.8-12.5-5-18.5L739.3,462z"/>
			</g>
			<g>
				<path d="M572.1,433.1c3.7-4.4,7.7-8.4,12.1-12.1l-7.7-9.1c-4.9,4.1-9.4,8.7-13.5,13.6L572.1,433.1z"/>
			</g>
			<g>
				<path d="M696,410.8c4.9,2.8,9.6,6.1,14,9.8l7.6-9.1c-4.9-4.1-10.2-7.8-15.7-10.9L696,410.8z"/>
			</g>
			<g>
				<path d="M598.1,411.2c4.9-2.9,10.1-5.3,15.4-7.3l-4.1-11.2c-6,2.2-11.8,4.9-17.3,8.2L598.1,411.2z"/>
			</g>
			<g>
				<path d="M664,399.3c5.6,1,11.2,2.4,16.5,4.3l4-11.2c-6-2.2-12.2-3.8-18.5-4.9L664,399.3z"/>
			</g>
			<g>
				<path d="M630,399.4c5.6-1,11.3-1.5,17-1.5l0-11.9c-6.4,0-12.8,0.6-19.1,1.7L630,399.4z"/>
			</g>
		</g>
		<g>
			<path d="M608.7,501.1l-25.6,20.3c0,0,2.9,11.1,18.2,24.8l18.2-20.7l12.2-13.9l13-15.5c0,0,4.3-5.1,4.4-5.1l0.5-0.5
				c0,0,0.2-0.2,0.3-0.2l0.2-0.1l0.1,0c0.1,0,0.1,0,0.2,0l0.1,0.1l0.1,0.2l0.1,0.6l-0.1,1.9l-0.1,3.9l-0.7,14.5l-0.7,12.7l-1,19.5
				l-0.3,13.9l-0.3,7.6c0,0,15.6,1.5,32.2-5.8l-3.6-16.2l-1.9-11.8l-1.4-13.4l-0.9-11.6l-0.3-10.4l0.3-10.1l0.4-9.8l0.6-11l0.9-11.5
				l1.2-11.3l1.3-12.5l0.5-6.4l-7.5,9.5L659,446.2l-8.1,10.1l-9.3,11.1l-7.7,9.1l-8,8.5l-8.2,7.9L608.7,501.1z"/>
		</g>
	</g>
	<g class="st0">
		<g>
			<path class="st2" d="M452.3,587.2l-128.5-16.8c-5.1-0.7-9.6-3.5-12.5-7.8l-31-46.9c-4.2-6.3-11-10.4-18.6-11.1l-56.2-5.3
				l16.2,32.1l-110.9,43.9c-13.2,5.2-12.7,24.4,0.9,28.4c2.3,0.7,5,1.1,8.3,1c0,0-6.6,20.6,14.7,28.5c0,0-6.2,21.1,18.8,26.6
				c0,0,1.7,25.5,46.1,10.9c21.9-7.2,91.7-25.2,91.7-25.2l149.6,18.8L452.3,587.2z"/>
			<path d="M443.2,667.5l-151.7-19.1c-6.4,1.7-70.5,18.3-91.1,25c-18.6,6.1-32.5,6.2-41.3,0.3c-5.5-3.7-7.4-8.8-8.1-11.6
				c-7.9-2.1-13.5-5.9-16.8-11.5c-3.5-6-3.3-12.3-2.8-15.7c-15.8-7-15.8-21-14.9-27.5c-2-0.2-4-0.5-5.7-1c-7.2-2.1-12.1-8.4-12.4-16
				c-0.4-7.8,4.1-14.7,11.3-17.6L217.9,530l-17.1-33.9l61.1,5.7c8.4,0.8,15.9,5.3,20.6,12.3l31,46.9c2.4,3.6,6.2,6,10.5,6.6
				l131.2,17.2L443.2,667.5z M291.2,642.8l0.5,0.1l146.9,18.5l10.6-71.8l-125.7-16.5c-5.9-0.8-11.1-4.1-14.4-9l-31-46.9
				c-3.8-5.7-9.8-9.3-16.5-9.9l-51.2-4.8l15.3,30.4l-113.7,45c-6.1,2.4-8,8.1-7.8,12.2c0.2,4.1,2.5,9.2,8.5,10.9
				c2.2,0.6,4.7,0.9,7.5,0.9l3.8,0l-1.1,3.6c-0.2,0.7-5.5,18.2,13,25.1l2.4,0.9l-0.7,2.5c0,0.1-2.1,7.4,1.7,13.9
				c2.7,4.5,7.7,7.7,15,9.3l2,0.4l0.1,2.1c0,0.2,0.5,5.8,6.1,9.5c5,3.3,15.4,5.9,36.4-1c21.7-7.1,91.2-25.1,91.9-25.2L291.2,642.8z"
				/>
		</g>
		<g>
			<path class="st2" d="M286.6,569.4l-20.1-39.5c-2.2-4.2-5.3-7.9-9.1-10.8l-38-28.2c-4.6-3.4-10.4-4.7-16-3.5l-50.8,10.7
				c-3.7,0.8-7.6-0.3-10.3-3l-47.8-46.7l-37.8,67.9l54.8,58.6l87.9-34.4c0,0,17.7,7.3,34.7,7.2c0,0,13.5,36.8,40.4,36.5
				C287,584.2,289.3,574.5,286.6,569.4z"/>
			<path d="M278.5,586.7c-1.2,0.2-2.6,0.4-4.1,0.4c-25.3,0.2-39.1-28.9-42.3-36.5c-14.6-0.3-28.9-5.4-32.8-7l-88.6,34.6l-57.4-61.5
				L93.8,444l50.4,49.2c2.1,2,5,2.9,7.9,2.3l50.8-10.7c6.3-1.3,13,0.1,18.2,4l38,28.2c4.1,3.1,7.6,7.1,9.9,11.7l20.1,39.5
				c1.9,3.7,1.7,8.5-0.5,12.2C287.3,582.4,284.4,585.6,278.5,586.7z M199.4,537.6l1,0.4c0.2,0.1,17.4,7.1,33.6,7l1.9,0l0.7,1.8
				c0.1,0.3,13.2,34.9,37.8,34.7c4.5,0,7.8-1.5,9.4-4.2c1.4-2.4,1.2-5.1,0.3-6.8l0,0L264,531.1c-1.9-3.8-4.8-7.2-8.3-9.8l-38-28.2
				c-4-2.9-9-4.1-13.8-3l-50.8,10.7c-4.7,1-9.4-0.4-12.8-3.7l-45.3-44.2l-35,63l52.2,55.8L199.4,537.6z"/>
		</g>
		<g>
			<g>
				<path d="M120.8,606.7c21.6-7.1,43.2-14.2,64.8-21.3c1.9-0.6,0.8-3.5-1.1-2.8c-21.6,7.1-43.2,14.2-64.8,21.3
					C117.9,604.4,119,607.3,120.8,606.7L120.8,606.7z"/>
			</g>
		</g>
		<g>
			<g>
				<path d="M135.3,635.4c21-7.4,42.1-14.8,63.1-22.1c1.9-0.7,0.8-3.5-1.1-2.9c-21,7.4-42.1,14.8-63.1,22.1
					C132.4,633.2,133.4,636.1,135.3,635.4L135.3,635.4z"/>
			</g>
		</g>
		<g>
			<g>
				<path d="M154.4,661.6c18.4-6.3,36.8-12.7,55.1-19c1.8-0.6,0.8-3.4-1.1-2.8c-18.4,6.3-36.8,12.7-55.1,19
					C151.5,659.4,152.6,662.2,154.4,661.6L154.4,661.6z"/>
			</g>
		</g>
		<g>
			<g>
				<path class="st4" d="M215.1,670.5c-4.6-12.4-9.2-24.8-13.7-37.2c-0.7-1.9-3.7-0.8-3,1.1c4.6,12.4,9.2,24.8,13.7,37.2
					C212.8,673.5,215.8,672.4,215.1,670.5L215.1,670.5z"/>
			</g>
		</g>
		<g>
			<g>
				<path class="st2" d="M179.9,626.2l0.3-0.1c7.9-3.1,16.8,1.4,20,10l-0.6-1.6c-2.8-7.7,1-16.3,8.7-19.3l3.5-1.3
					c4.6-1.8,9.5-1.1,13.2,1.4c1.6-4.6,5.1-8.5,10-10.4l0.3-0.1c8.7-3.4,18.3,1,21.6,9.7l1.5,4.2c1.3-4.3,4.5-8,8.9-9.7
					c7.6-3,16.2,0.9,19,8.6l6.7,18c2.8,7.7-1,16.3-8.7,19.3c-4.9,1.9-10.2,1-14.1-1.9c0.4,7.2-3.8,14.2-10.9,16.9l-0.3,0.1
					c-4.8,1.9-10,1.4-14.2-1c-1.2,4.4-4.5,8.2-9,10l-3.5,1.3c-7.6,3-16.2-0.9-19-8.6l-6.9-18.6l6.3,17c3.2,8.6-0.7,18-8.5,21.1
					l-0.3,0.1c-7.9,3.1-16.8-1.4-20-10l-12.6-34C168.2,638.7,172,629.2,179.9,626.2z"/>
				<path d="M201.9,694.6c-3.4,0.6-7,0.2-10.3-1.3c-4.7-2.1-8.4-6.2-10.3-11.2l-12.6-34c-3.7-10,0.9-21,10.1-24.6l0.3-0.1
					c4.3-1.7,9-1.5,13.4,0.4c1.3,0.6,2.5,1.3,3.7,2.2c1.1-5.9,5.1-11.2,11.1-13.6l3.5-1.3c4.2-1.6,8.8-1.5,12.9,0.1
					c2.2-4.2,5.9-7.4,10.3-9.1l0.3-0.1c4.9-1.9,10.2-1.8,14.9,0.4c4.2,1.9,7.6,5.2,9.5,9.4c1.9-2.5,4.5-4.4,7.6-5.6
					c4.4-1.7,9.2-1.6,13.4,0.3c4.3,1.9,7.5,5.4,9.2,9.8l6.7,18c3.4,9.1-1.2,19.3-10.3,22.8c-4.1,1.6-8.6,1.6-12.6,0
					c-1.2,6.7-5.8,12.4-12.4,15l-0.3,0.1c-4.5,1.7-9.3,1.8-13.6,0.2c-2,4-5.4,7.2-9.6,8.9l-3.5,1.3c-4.4,1.7-9.2,1.6-13.4-0.3
					c-1.3-0.6-2.6-1.4-3.7-2.2c-1.2,6-5.2,11.2-11,13.5l-0.3,0.1C203.9,694.2,202.9,694.5,201.9,694.6z M183.2,628
					c-0.7,0.1-1.4,0.3-2,0.6l-0.3,0.1c-6.5,2.5-9.6,10.4-7,17.5l12.6,34c1.3,3.6,4,6.6,7.3,8.1c3,1.3,6.2,1.4,9.1,0.3l0.3-0.1
					c6.4-2.5,9.6-10.3,7-17.5l-6.3-17.1l5.2-1.9l6.3,17c0,0,0,0.1,0,0.1l0.6,1.5c1.1,3,3.3,5.4,6.2,6.7c2.9,1.3,6.2,1.4,9.2,0.2
					l3.5-1.3c3.6-1.4,6.3-4.4,7.4-8.2l1-3.4l3.1,1.7c3.6,2,7.9,2.3,11.8,0.8l0.3-0.1c5.8-2.3,9.5-8,9.1-14.2l-0.3-5.9l4.7,3.5
					c3.3,2.5,7.6,3.1,11.4,1.6c6.2-2.4,9.4-9.5,7.1-15.8l-6.7-18c-1.1-3-3.3-5.4-6.2-6.7c-2.9-1.3-6.2-1.4-9.2-0.2
					c-3.5,1.4-6.2,4.3-7.3,7.9l-2.4,7.8l-4.4-11.8c-1.3-3.5-3.9-6.3-7.3-7.8c-3.4-1.5-7.2-1.6-10.7-0.3l-0.3,0.1
					c-3.9,1.5-7,4.7-8.4,8.7l-1.2,3.3l-2.9-1.9c-3.2-2.1-7.2-2.5-10.8-1.1l-3.5,1.3c-6.2,2.4-9.4,9.5-7.1,15.8l0.6,1.6l-5.2,1.9l0,0
					c-1.3-3.6-4-6.5-7.3-8C188,627.9,185.5,627.6,183.2,628z"/>
			</g>
		</g>
		<g>
			<g>
				<path d="M197,631.4c5.3,14.3,10.7,28.6,16,42.9c0.5,1.4,2.8,0.6,2.2-0.8c-5.3-14.3-10.7-28.6-16-42.9
					C198.7,629.1,196.5,629.9,197,631.4L197,631.4z"/>
			</g>
		</g>
		<g>
			<g>
				<path d="M223.3,615.9c6.8,17.7,13.5,35.4,20.3,53.1c0.7,1.8,3.5,0.8,2.8-1c-6.8-17.7-13.5-35.4-20.3-53.1
					C225.4,613.1,222.6,614.1,223.3,615.9L223.3,615.9z"/>
			</g>
		</g>
		<g>
			<g>
				<path d="M257,617c4.3,11.9,8.5,23.9,12.8,35.8c0.4,1.2,2.3,0.5,1.8-0.7c-4.3-11.9-8.5-23.9-12.8-35.8
					C258.4,615.1,256.6,615.8,257,617L257,617z"/>
			</g>
		</g>
	</g>
	<polygon class="st5" points="-368.1,45.8 -453.9,173.2 59.4,571.1 143.8,464.7 	"/>
	<polygon class="st5" points="910.6,647.8 821.6,769.6 323.7,665.2 344.8,560.8 	"/>
	<g class="st0">
		<path class="st2" d="M290.8,319.2l-4.9-7.8c-2-3-3.3-5.2-4.8-7.7h-0.2c-1.1,2.5-2.5,4.7-4.2,7.7l-4.5,7.8h-14l15.7-21.7
			l-15.2-21.2h14.1l4.8,7.8c1.6,2.6,2.8,4.7,4.1,7.1h0.2c1.3-2.7,2.3-4.7,3.7-7.1l4.6-7.8h14l-15.3,21l16.1,22H290.8z"/>
	</g>
	<polyline class="st6" points="804.4,632.2 1019,456.3 1019,651.3 821,770.2 	"/>
</g>
</svg>
