<?xml version="1.0" encoding="utf-8"?>
<!-- Generator: Adobe Illustrator 23.0.1, SVG Export Plug-In . SVG Version: 6.00 Build 0)  -->
<svg version="1.1" id="Layer_1" xmlns="http://www.w3.org/2000/svg" xmlns:xlink="http://www.w3.org/1999/xlink" x="0px" y="0px"
	 viewBox="0 0 800 800" style="enable-background:new 0 0 800 800;" xml:space="preserve">
<style type="text/css">
	.st0{fill:none;stroke:#000000;stroke-width:3;stroke-miterlimit:10;}
	.st1{stroke:#000000;stroke-width:3;stroke-miterlimit:10;}
	.st2{fill:#FFFFFF;}
</style>
<g>
	<polyline class="st0" points="723.6,505.8 723.6,386.1 641.7,386.1 	"/>
	<polyline class="st0" points="603.9,632.2 723.6,632.2 723.6,492.8 	"/>
	<g>
		<g>
			<g>
				<path class="st0" d="M629.5,225.7v-55.3c0-18.1-14.1-32.2-32.2-32.2H352.9L329.8,104c-2-3-5-5-8-5H178c-3,0-7,2-8,5l-23.1,34.2
					h-38.2c-17.1,0-32.2,14.1-32.2,32.2v55.3H629.5z"/>
			</g>
			<g>
				<path class="st0" d="M629.5,245.8v295.7c0,18.1-14.1,32.2-32.2,32.2h-31.2c1-10.1,2-20.1,2-31.2c0-118.7-96.6-215.2-215.2-215.2
					s-215.2,96.6-215.2,215.2c0,10.1,1,21.1,2,31.2h-31.2c-18.1,0-32.2-14.1-32.2-32.2V245.8H629.5z"/>
			</g>
		</g>
		<g>
			<g>
				<path class="st0" d="M236.3,606.9c-26.1-3-50.3-8-71.4-13.1c-2-13.1-15.1-48.3,0-102.6c28.2-7,62.4-13.1,98.6-16.1
					c-2,36.2-3,75.4-2,107.6C249.4,586.8,240.3,595.8,236.3,606.9z"/>
			</g>
			<g>
				<path class="st0" d="M264.4,454c-33.2,3-64.4,8-91.5,14.1c19.1-46.3,56.3-86.5,105.6-106.6C272.5,389.7,267.5,420.8,264.4,454z"
					/>
			</g>
			<g>
				<path class="st0" d="M267.5,659.2c3,23.1,6,44.3,11.1,63.4C231.3,702.4,193,665.2,172.9,617c19.1,4,39.2,8,61.3,11.1
					C237.3,644.1,251.4,657.2,267.5,659.2z"/>
			</g>
			<g>
				<path class="st1" d="M291.6,622c-1,9.1-8,15.1-17.1,17.1s-21.1-7-21.1-18.1c0-1,0-18.1,19.1-19.1
					C285.6,601.9,293.6,612.9,291.6,622z"/>
			</g>
			<g>
				<path class="st0" d="M420.3,633c-4,36.2-9.1,69.4-16.1,97.6c-39.2,10.1-61.3,9.1-102.6,0c-6-22.1-10.1-47.3-14.1-73.4
					c10.1-4,18.1-12.1,22.1-23.1C342.9,636.1,378.1,636.1,420.3,633z"/>
			</g>
			<g>
				<path class="st0" d="M285.6,452c3-36.2,9.1-69.4,16.1-98.6c37.2-10.1,78.4-8,101.6,0c3,14.1,10.1,47.3,14.1,72.4
					c-11.1,4-19.1,13.1-23.1,24.1C358,450,320.8,450,285.6,452z"/>
			</g>
			<g>
				<path class="st0" d="M423.4,502.3c1,35.2,1,74.4-1,109.6c-35.2,3-75.4,3-109.6,2l0,0c-1-12.1-14.1-28.2-30.2-31.2
					c-1-32.2-1-72.4,2-108.6c35.2-3,72.4-3,109.6-1C396.2,487.2,408.3,499.3,423.4,502.3z"/>
			</g>
			<g>
				<path class="st1" d="M413.3,463.1c1-10.1,9.1-17.1,19.1-17.1s19.1,8,19.1,19.1c0,10.1-8,19.1-19.1,19.1
					C422.3,482.2,413.3,476.1,413.3,463.1z"/>
			</g>
			<g>
				<path class="st0" d="M438.4,424.9c-3-20.1-8-45.3-11.1-62.4c47.3,20.1,86.5,57.3,106.6,105.6c-19.1-4-40.2-8-62.4-11.1
					C468.6,440.9,454.5,427.9,438.4,424.9z"/>
			</g>
			<g>
				<path class="st0" d="M441.5,631c33.2-3,64.4-8,91.5-14.1c-20.1,48.3-58.3,85.5-105.6,105.6C433.4,695.4,438.4,664.2,441.5,631z"
					/>
			</g>
			<g>
				<path class="st0" d="M541,593.8c-28.2,7-61.3,13.1-97.6,16.1c2-34.2,3-74.4,1-108.6c11.1-4,20.1-12.1,24.1-23.1
					c26.1,3,51.3,8,72.4,13.1C551.1,528.4,549.1,568.7,541,593.8z"/>
			</g>
		</g>
	</g>
	<path class="st2" d="M610.5,612.9"/>
	<polygon class="st0" points="604.5,623.2 603.9,641.2 588.6,631.7 	"/>
</g>
</svg>
