<?xml version="1.0" encoding="utf-8"?>
<!-- Generator: Adobe Illustrator 23.0.1, SVG Export Plug-In . SVG Version: 6.00 Build 0)  -->
<svg version="1.1" id="Layer_1" xmlns="http://www.w3.org/2000/svg" xmlns:xlink="http://www.w3.org/1999/xlink" x="0px" y="0px"
	 viewBox="0 0 800 800" style="enable-background:new 0 0 800 800;" xml:space="preserve">
<style type="text/css">
	.st0{fill:none;stroke:#000000;stroke-width:3;stroke-miterlimit:10;}
	.st1{font-family:'Lato-Light';}
	.st2{font-size:110.3316px;}
</style>
<g>
	<polygon points="107,170.1 75.7,138.8 83.7,130.9 107,154.2 156.3,105 164.2,112.9 	"/>
	<polygon points="107,241.1 75.7,209.8 83.7,201.8 107,225.2 156.3,176 164.2,183.9 	"/>
	<polygon points="107,317.1 75.7,285.8 83.7,277.9 107,301.3 156.3,252 164.2,260 	"/>
	<g transform="translate(18.086628,-167.77292)">
		<path class="st0" d="M365.4,333c-25.3,0-45.8,20.6-45.7,45.8c0,25.3,20.5,45.8,45.7,45.8c25.3,0,45.8-20.5,45.8-45.8
			c0,0,0,0,0-0.1C411.3,353.5,390.8,333,365.4,333C365.5,333,365.5,333,365.4,333L365.4,333z M480.8,382.6
			c-25.3,0-45.8,20.5-45.8,45.8c0,0,0,0,0,0.1c0,25.3,20.6,45.8,45.8,45.7c25.3,0,45.7-20.5,45.7-45.7
			C526.6,403.1,506.1,382.6,480.8,382.6L480.8,382.6z M307,409.2c-7.9,1.2-15.4,5.3-20.6,12.3l-17.2,23
			c-23.1,31-35.9,69.4-35.9,108.1v10.1h62.3v-10.1c0-25.3,8.4-50.4,23.5-70.6l28.3,14.2c2.6,1.3,5.6,2,8.7,2c2.5,0,5.2-0.4,7.6-1.5
			l47.2-19.9c0.3-0.1,0.6-0.3,0.8-0.5c3.9-1.7,6.8-4.5,8.6-7.9c3-5.1,3.7-11.4,1.1-17.2c-4.2-10-15.6-14.7-25.5-10.5l-39,16.4
			l-15.8-7.8c3.7-12.3-0.2-26-11.1-34.1C323.2,410,314.9,408.1,307,409.2L307,409.2z M437.7,470.6c-7,0.5-13.7,3.6-18.6,9.3
			l-79.2,90.7h-211c-15.1,0-27.3,12.2-27.3,27.3c0,15.1,12.2,27.2,27.3,27.2h223.4c7.9,0,15.4-3.4,20.6-9.3l87.3-100
			c9.9-11.3,8.8-28.5-2.6-38.5C451.9,472.3,444.7,470.1,437.7,470.6L437.7,470.6z M526.7,471.3c-10,0.7-19.7,5.2-26.8,13.3
			L368.5,634.3H153.6c-21.5,0-39,17.5-39,39c0,12.9,6.4,24.4,16.1,31.4l-34.3,53H37.9c-8.6,0-15.7,6.9-15.7,15.6
			c0,8.6,7,15.6,15.7,15.6h67c5.3,0,10.3-2.7,13.1-7.1l44.9-69.5h223.3c11.2,0,22-4.9,29.3-13.3l143-163
			c14.2-16.1,12.6-40.8-3.6-55.1C546.8,473.9,536.6,470.7,526.7,471.3L526.7,471.3z M285.4,720.1l-27.9,75.2
			c-36.3,3.5-60.7,10.2-60.7,17.8c0,11.4,54.9,20.7,122.8,20.7c67.8,0,122.8-9.2,122.8-20.7c0-7.6-24.4-14.2-60.6-17.8l-27.9-75.2
			H285.4z"/>
	</g>
	<g>
		<g>
			<path class="st0" d="M716.9,731.9c4.5,0,8.1-2.2,8.1-4.9V419c0-2.7-3.6-4.9-8.1-4.9l0,0c-4.5,0-8.1,2.2-8.1,4.9V727
				C708.8,729.7,712.4,731.9,716.9,731.9L716.9,731.9z"/>
			<line class="st0" x1="725.1" y1="419" x2="770" y2="419"/>
			<line class="st0" x1="725.1" y1="425.6" x2="770" y2="425.6"/>
			<line class="st0" x1="725.1" y1="432.2" x2="770" y2="432.2"/>
			<line class="st0" x1="725.1" y1="438.8" x2="770" y2="438.8"/>
			<line class="st0" x1="725.1" y1="445.4" x2="770" y2="445.4"/>
			<line class="st0" x1="725.1" y1="452" x2="770" y2="452"/>
			<line class="st0" x1="725.1" y1="458.6" x2="770" y2="458.6"/>
			<line class="st0" x1="725.1" y1="465.3" x2="770" y2="465.3"/>
			<line class="st0" x1="725.1" y1="471.9" x2="770" y2="471.9"/>
			<line class="st0" x1="725.1" y1="478.5" x2="770" y2="478.5"/>
			<line class="st0" x1="725.1" y1="485.1" x2="770" y2="485.1"/>
			<line class="st0" x1="725.1" y1="491.7" x2="770" y2="491.7"/>
			<line class="st0" x1="725.1" y1="498.3" x2="770" y2="498.3"/>
			<line class="st0" x1="725.1" y1="505" x2="770" y2="505"/>
			<line class="st0" x1="725.1" y1="511.6" x2="770" y2="511.6"/>
		</g>
		<polygon class="st0" points="692.3,708.2 585.4,708.2 584.4,733 693.2,733 		"/>
		<path class="st0" d="M648.5,440.7v-19c0-6.9-4.3-8.5-9.7-8.5c-5.3,0-9.7,1.7-9.7,8.5v19l-34.8,38.8L584.4,733h108.8l-9.9-253.4
			L648.5,440.7z"/>
		<line class="st0" x1="629.1" y1="440.7" x2="648.5" y2="440.7"/>
	</g>
	<text transform="matrix(1.0517 0 0 1 483.7148 596.0996)" class="st1 st2">+</text>
</g>
</svg>
