<?xml version="1.0" encoding="utf-8"?>
<!-- Generator: Adobe Illustrator 23.0.1, SVG Export Plug-In . SVG Version: 6.00 Build 0)  -->
<svg version="1.1" id="Layer_1" xmlns="http://www.w3.org/2000/svg" xmlns:xlink="http://www.w3.org/1999/xlink" x="0px" y="0px"
	 viewBox="0 0 800 800" style="enable-background:new 0 0 800 800;" xml:space="preserve">
<style type="text/css">
	.st0{fill:#FFFFFF;stroke:#000000;stroke-width:4;stroke-miterlimit:10;}
	.st1{fill:#FFFFFF;stroke:#000000;stroke-width:3;stroke-miterlimit:10;}
	.st2{fill:none;stroke:#000000;stroke-width:4;stroke-miterlimit:10;}
	.st3{fill:none;stroke:#000000;stroke-width:2;stroke-linecap:round;stroke-miterlimit:10;}
</style>
<g>
	<g>
		<g>
			<path d="M357.7,195.6c25.7,6.8,49.5,19.3,69.6,36.7c2.9,2.5,7.2-1.7,4.2-4.2c-20.9-18.1-45.5-31.2-72.2-38.2
				C355.5,188.8,353.9,194.6,357.7,195.6L357.7,195.6z"/>
		</g>
	</g>
	<path class="st0" d="M398.2,53L78.1,152.7c0,0-60.8,480.4,316.9,608.8"/>
	<path d="M139.1,163.2c-3.3,0-5.5,2.2-5.5,5.5v7.7h-8.8c-3.3,0-5.5,2.2-5.5,5.5s2.2,5.5,5.5,5.5h7.7v9.9c0,3.3,2.2,5.5,5.5,5.5
		s5.5-2.2,5.5-5.5v-7.7h7.7c3.3,0,5.5-2.2,5.5-5.5c0-3.3-2.2-5.5-5.5-5.5h-6.6v-7.7C144.6,166.5,142.4,163.2,139.1,163.2z"/>
	<path d="M195.5,406.4c-3.3,0-5.5,2.2-5.5,5.5v7.7h-8.8c-3.3,0-5.5,2.2-5.5,5.5c0,3.3,2.2,5.5,5.5,5.5h7.7v9.9
		c0,3.3,2.2,5.5,5.5,5.5s5.5-2.2,5.5-5.5v-7.7h7.7c3.3,0,5.5-2.2,5.5-5.5c0-3.3-2.2-5.5-5.5-5.5H201v-7.7
		C201,409.7,198.8,406.4,195.5,406.4z"/>
	<path class="st0" d="M397.1,53l316.2,99.7c0,0,59.3,480.4-318.3,608.8"/>
	<path d="M556.9,537.7c-3.3,0-5.5,2.2-5.5,5.5v7.7h-8.8c-3.3,0-5.5,2.2-5.5,5.5s2.2,5.5,5.5,5.5h7.7v9.9c0,3.3,2.2,5.5,5.5,5.5
		s5.5-2.2,5.5-5.5v-7.7h7.7c3.3,0,5.5-2.2,5.5-5.5c0-3.3-2.2-5.5-5.5-5.5h-6.6v-7.7C562.5,541,560.3,537.7,556.9,537.7z"/>
	<path class="st1" d="M395,412.9c32.3,0,47.3,24.5,50.5,59.4c0.8,8.3,0,20.5-1.1,34.6c-3.6,46.8-7.8,104.3,23.3,104.3
		c26.3,0,39.9-50.5,47.7-108.1c7.5-57-0.4-85.4,3.5-110.7c7.5-48,49.4-91,36.4-152.2c-7.2-33.9-25.8-49.9-44.4-56.6
		c-42.6-15.5-70.2,14.4-116,14.4s-73.3-29.9-116-14.4c-18.5,6.7-37.2,22.7-44.4,56.6c-12.9,61.2,28.9,104.2,36.4,152.2
		c3.9,25.3-4.1,53.7,3.5,110.7c7.8,57.6,21.3,108.1,47.7,108.1c31.1,0,27-57.5,23.3-104.3c-1.1-14.1-1.8-26.2-1.1-34.6
		C347.6,437.5,362.8,412.9,395,412.9z"/>
	<path d="M327.1,264.7l6.6-3.3c2.2-1.1,3.3-3.3,3.3-5.5c0-2.2-1.1-4.4-3.3-5.5l-6.6-3.3c-5.5-3.3-11-7.7-14.3-14.3l-3.3-6.6
		c-2.2-4.4-8.8-4.4-11,0l-3.3,6.6c-3.3,5.5-7.7,11-14.3,14.3l-6.6,3.3c-2.2,1.1-3.3,3.3-3.3,5.5c0,2.2,1.1,4.4,3.3,5.5l6.6,3.3
		c5.5,3.3,11,7.7,14.3,14.3l3.3,6.6c1.1,2.2,3.3,3.3,5.5,3.3c2.2,0,4.4-1.1,5.5-3.3l3.3-6.6C317.2,272.4,321.6,268,327.1,264.7z
		 M303.7,279.1c-4.9-18-17.8-18.8-24.4-23.3c20-7.2,20.3-17.1,24.7-23.7c3.3,5.5,4.8,16.9,24.1,23.7
		C321.5,260.2,309.8,259.6,303.7,279.1z"/>
	<path d="M592.6,420.6l4-2c1.3-0.7,2-2,2-3.4s-0.7-2.7-2-3.4l-4-2c-3.4-2-6.7-4.7-8.7-8.7l-2-4c-1.3-2.7-5.4-2.7-6.7,0l-2,4
		c-2,3.4-4.7,6.7-8.7,8.7l-4,2c-1.3,0.7-2,2-2,3.4s0.7,2.7,2,3.4l4,2c3.4,2,6.7,4.7,8.7,8.7l2,4c0.7,1.3,2,2,3.4,2
		c1.3,0,2.7-0.7,3.4-2l2-4C586.5,425.3,589.2,422.6,592.6,420.6z M578.3,429.4c-2-3.4-10.8-11.5-14.9-14.2c3.4-2,12.3-10.4,15-14.4
		c2,3.4,10.7,11.7,14.7,14.4C589.1,417.9,581,426.1,578.3,429.4z"/>
	<line class="st2" x1="398.2" y1="53" x2="398.2" y2="163.2"/>
	<line class="st2" x1="395" y1="651.8" x2="395" y2="762"/>
	<path class="st3" d="M380.2,196.9"/>
	<path class="st3" d="M446.9,222.7"/>
</g>
</svg>
