<?xml version="1.0" encoding="utf-8"?>
<!-- Generator: Adobe Illustrator 23.0.1, SVG Export Plug-In . SVG Version: 6.00 Build 0)  -->
<svg version="1.1" id="Layer_1" xmlns="http://www.w3.org/2000/svg" xmlns:xlink="http://www.w3.org/1999/xlink" x="0px" y="0px"
	 viewBox="0 0 800 800" style="enable-background:new 0 0 800 800;" xml:space="preserve">
<style type="text/css">
	.st0{fill:none;stroke:#000000;stroke-width:2;stroke-miterlimit:10;}
	.st1{fill:#FFFFFF;}
	.st2{fill:#FFFFFF;stroke:#000000;stroke-width:2;stroke-miterlimit:10;}
</style>
<g>
	<g>
		<polyline class="st0" points="605.1,267.1 605.1,153 527,153 		"/>
		<polyline class="st0" points="529.6,631.2 605.1,628.9 605.1,263.7 		"/>
		<g>
			<g>
				<circle class="st1" cx="604.7" cy="389.1" r="59.8"/>
			</g>
			<g>
				<path d="M582.8,331c-31.5,12.2-47.2,47.7-35,79.2c12.2,31.5,47.7,47.2,79.2,35c31.5-12.2,47.2-47.7,35-79.2
					S614.2,318.9,582.8,331z M625,440.1c-28.7,11.1-61-3.2-72.1-31.9c-11.1-28.7,3.2-61,31.9-72.1s61,3.2,72.1,31.9
					C668,396.7,653.7,429,625,440.1z"/>
			</g>
			<g>
				<circle class="st1" cx="605" cy="388.2" r="58"/>
			</g>
			<g>
				<path d="M646.6,371.7l0.1,0.2c0.9,2.4,1.7,5,2.2,7.5l5.3-1.1c-0.6-2.8-1.4-5.7-2.4-8.4l-0.1-0.2L646.6,371.7z"/>
			</g>
			<g>
				<path d="M613.6,432.2c-2.6,0.5-5.2,0.8-7.8,0.9l0.1,5.4c2.9-0.1,5.9-0.4,8.7-1L613.6,432.2z"/>
			</g>
			<g>
				<path d="M583.3,427.5c-2.3-1.3-4.5-2.7-6.5-4.3l-3.4,4.2c2.3,1.8,4.7,3.5,7.3,4.9L583.3,427.5z"/>
			</g>
			<g>
				<path d="M571.1,417.7c-1.7-2-3.3-4.1-4.6-6.3l-4.7,2.8c1.5,2.5,3.3,4.9,5.2,7.1L571.1,417.7z"/>
			</g>
			<g>
				<path d="M628.1,426.5c-2.2,1.3-4.6,2.5-7,3.4l2,5.1c2.7-1.1,5.4-2.4,7.9-3.9L628.1,426.5z"/>
			</g>
			<g>
				<path d="M560,389.1c-0.1-2.6,0.1-5.2,0.5-7.8l-5.4-0.8c-0.4,2.9-0.6,5.8-0.6,8.8L560,389.1z"/>
			</g>
			<g>
				<path d="M563,404.3c-0.9-2.4-1.7-4.9-2.2-7.4l-5.3,1.1c0.6,2.8,1.4,5.6,2.4,8.3l0,0.1L563,404.3z"/>
			</g>
			<g>
				<path d="M639.8,416.3c-1.6,2-3.4,3.9-5.4,5.6l3.6,4.1c2.2-1.9,4.2-4.1,6.1-6.3L639.8,416.3z"/>
			</g>
			<g>
				<path d="M649.8,387.2c0.1,2.6-0.1,5.2-0.5,7.8l5.4,0.8c0.5-2.9,0.6-5.8,0.6-8.8L649.8,387.2z"/>
			</g>
			<g>
				<path d="M647.4,402.6c-0.8,2.5-1.9,4.9-3.2,7.2l4.8,2.6c1.4-2.6,2.6-5.3,3.5-8L647.4,402.6z"/>
			</g>
			<g>
				<path d="M598,432.5c-2.6-0.4-5.1-1-7.6-1.9l-1.8,5.2c2.8,0.9,5.6,1.6,8.5,2.1L598,432.5z"/>
			</g>
			<g>
				<path d="M626.4,348.7c2.3,1.2,4.5,2.7,6.5,4.3l3.4-4.3c-2.3-1.8-4.7-3.4-7.3-4.8L626.4,348.7z"/>
			</g>
			<g>
				<path d="M638.5,358.4c1.7,1.9,3.3,4.1,4.6,6.3l4.6-2.8c-1.5-2.5-3.3-4.9-5.2-7.1L638.5,358.4z"/>
			</g>
			<g>
				<path d="M562.3,373.7c0.8-2.5,1.9-4.9,3.1-7.2l-4.8-2.6c-1.4,2.6-2.6,5.3-3.5,8L562.3,373.7z"/>
			</g>
			<g>
				<path d="M611.6,343.7c2.6,0.4,5.1,1,7.6,1.8l1.7-5.2c-2.8-0.9-5.6-1.6-8.5-2.1L611.6,343.7z"/>
			</g>
			<g>
				<path d="M569.8,360.1c1.6-2,3.4-3.9,5.4-5.7l-3.6-4.1c-2.2,1.9-4.2,4.1-6.1,6.3L569.8,360.1z"/>
			</g>
			<g>
				<path d="M596,344.1c2.6-0.5,5.2-0.8,7.8-0.9l-0.1-5.4c-2.9,0.1-5.9,0.4-8.7,1L596,344.1z"/>
			</g>
			<g>
				<path d="M581.5,349.8c2.2-1.3,4.6-2.5,7-3.5l-2-5.1c-2.7,1.1-5.4,2.4-7.9,3.9L581.5,349.8z"/>
			</g>
		</g>
		<g>
			<path d="M589.2,396.7l-7.6,12.9c0,0,3.1,4.2,11.9,7.6l4.4-11.9l2.9-7.9l3-8.8c0,0,1-2.9,1-2.9l0.1-0.3c0,0,0.1-0.1,0.1-0.1
				l0.1-0.1l0,0c0,0,0.1,0,0.1,0l0.1,0l0.1,0.1l0.1,0.2l0.3,0.8l0.6,1.7l2.1,6.3l1.8,5.6l2.8,8.5l2.2,6l1.1,3.3
				c0,0,6.9-1.9,12.8-7.8l-4.2-6.3l-2.8-4.7l-2.8-5.5l-2.3-4.8l-1.9-4.4l-1.6-4.3l-1.4-4.2l-1.6-4.8l-1.5-5.1l-1.4-5l-1.5-5.6
				l-0.8-2.8l-1.6,5.3l-2.2,7.4l-1.8,5.6l-2.1,6.3L596,382l-2,4.9l-2.2,4.7L589.2,396.7z"/>
		</g>
		<polygon class="st0" points="530.2,622.7 529.6,639.8 515.1,630.7 		"/>
	</g>
	<polygon class="st0" points="206.9,453.2 216.4,453.5 211.4,461.6 	"/>
	<polygon class="st0" points="206.9,376.9 216.4,377.2 211.4,385.3 	"/>
	<g>
		<polygon class="st0" points="191.8,80.3 446.5,63 446.5,118.9 188.7,137.3 		"/>
		<path class="st2" d="M456,298.9H188.2c-1.1,0-2-0.9-2-2V82.3c0-1.1,0.9-2,2-2H456c1.1,0,2,0.9,2,2v214.6
			C458,298,457.1,298.9,456,298.9z"/>
		<path class="st2" d="M477.8,214.5H357.9c-1.1,0-2-0.9-2-2v-48.8c0-1.1,0.9-2,2-2h119.9c1.1,0,2,0.9,2,2v48.8
			C479.8,213.6,478.9,214.5,477.8,214.5z"/>
		<path d="M380.7,183.6h-7c-4.2,0-7,2.3-7,5.8c0,3.5,2.8,5.8,7,5.8h8.4c4.2,0,7-2.3,7-5.8C389,185.9,384.9,183.6,380.7,183.6z"/>
	</g>
	<g>
		<polygon class="st0" points="191.7,494.3 446.5,477 446.5,532.9 188.6,551.3 		"/>
		<path class="st2" d="M455.9,712.9H188.2c-1.1,0-2-0.9-2-2V496.3c0-1.1,0.9-2,2-2h267.7c1.1,0,2,0.9,2,2v214.6
			C457.9,712,457,712.9,455.9,712.9z"/>
		<path class="st2" d="M477.8,628.5H357.8c-1.1,0-2-0.9-2-2v-48.8c0-1.1,0.9-2,2-2h119.9c1.1,0,2,0.9,2,2v48.8
			C479.8,627.6,478.9,628.5,477.8,628.5z"/>
		<path d="M380.6,597.6h-7c-4.2,0-7,2.3-7,5.8s2.8,5.8,7,5.8h8.4c4.2,0,7-2.3,7-5.8S384.8,597.6,380.6,597.6z"/>
	</g>
	<line class="st0" x1="211.7" y1="320.3" x2="211.7" y2="377.9"/>
	<line class="st0" x1="211.7" y1="396.8" x2="211.7" y2="454.1"/>
</g>
</svg>
