<?xml version="1.0" encoding="utf-8"?>
<!-- Generator: Adobe Illustrator 23.0.1, SVG Export Plug-In . SVG Version: 6.00 Build 0)  -->
<svg version="1.1" id="Layer_1" xmlns="http://www.w3.org/2000/svg" xmlns:xlink="http://www.w3.org/1999/xlink" x="0px" y="0px"
	 viewBox="0 0 800 800" style="enable-background:new 0 0 800 800;" xml:space="preserve">
<style type="text/css">
	.st0{fill:#FFFFFF;stroke:#000000;stroke-width:3;stroke-miterlimit:10;}
	.st1{fill:none;stroke:#000000;stroke-miterlimit:10;}
	.st2{fill:#FFFFFF;}
	.st3{fill:none;stroke:#000000;stroke-width:3;stroke-miterlimit:10;}
</style>
<g>
	<rect x="230.4" y="175.9" class="st0" width="342.6" height="451.1"/>
	<line class="st1" x1="288.8" y1="293.3" x2="514.3" y2="293.3"/>
	<line class="st1" x1="270" y1="330.9" x2="533.1" y2="330.9"/>
	<line class="st1" x1="270" y1="312.1" x2="533.1" y2="312.1"/>
	<line class="st1" x1="270" y1="366.6" x2="533.1" y2="366.6"/>
	<line class="st1" x1="270" y1="347.8" x2="533.1" y2="347.8"/>
	<g>
		<path d="M359.5,565.2c-8.2,24.2-34.6,37.3-58.8,29.1c-24.2-8.2-37.3-34.6-29.1-58.8c8.2-24.2,34.6-37.3,58.8-29.1
			C354.6,514.6,367.7,541,359.5,565.2z M273.5,536.1c-7.8,23.2,4.6,48.4,27.8,56.3c23.2,7.8,48.4-4.6,56.3-27.8
			c7.8-23.2-4.6-48.4-27.8-56.3C306.6,500.4,281.3,512.9,273.5,536.1z"/>
	</g>
	<g>
		<path d="M353.5,563.2c-2.6,7.6-7.3,14.2-13.7,19.1l-1.3-1.7c6-4.6,10.5-10.8,12.9-18c2.5-7.5,2.7-15.5,0.4-23.1l2.1-0.6
			C356.4,546.8,356.2,555.3,353.5,563.2z"/>
	</g>
	<g>
		<path d="M279.1,561.2l-2.1,0.6c-2.4-8-2.3-16.4,0.4-24.4c2.6-7.6,7.3-14.2,13.7-19.1l1.3,1.7c-6,4.6-10.5,10.8-12.9,18
			C277,545.7,276.9,553.7,279.1,561.2z"/>
	</g>
	<g>
		<path d="M347.8,560.9c-5.9,17.5-24.9,26.9-42.4,21c-17.5-5.9-26.9-24.9-21-42.4c5.9-17.5,24.9-26.9,42.4-21
			C344.3,524.4,353.7,543.4,347.8,560.9z M286.5,540.1c-5.5,16.3,3.3,34.1,19.6,39.7c16.3,5.5,34.1-3.3,39.7-19.6
			c5.5-16.3-3.3-34.1-19.6-39.7C309.8,515,292,523.8,286.5,540.1z"/>
	</g>
	<line class="st1" x1="270.2" y1="383.2" x2="533.3" y2="383.2"/>
	<line class="st1" x1="270.2" y1="400.1" x2="533.3" y2="400.1"/>
	<ellipse transform="matrix(0.7071 -0.7071 0.7071 0.7071 -296.7365 384.2901)" cx="315.5" cy="550.3" rx="26.1" ry="26.1"/>
	<g>
		<path d="M544.6,554.9c-5.4,4.5-11.1,8.9-17.6,11.7c-1.5,0.6-3,1.2-4.6,1.5c-2.3,0.4-3.8,0.1-4.7-2.1c-1-2.4,0-4.8-0.3-7.4
			c0-0.4-0.2-1-0.7-1.1c-1.9-0.1-3.7,1.9-5,3.1c-1,0.9-2,1.8-2.9,2.8c0.7-2.8,0.7-5.6-0.3-7.9c-0.1-0.2-0.4-0.6-0.7-0.4
			c-4.1,2.4-7.4,6.6-10.6,10.1c-0.8,0.8-1.5,1.7-2.2,2.6c0-0.3-0.1-0.6-0.2-0.8c1-0.8,1.8-1.6,2.3-2.4c1.6-2.3,2.7-6.1,1.3-8.8
			c-2.1-4-6.4-1.4-8.8,0.9c-0.7,0.6-0.2,3.4,0.7,2.5c0.9-0.9,3.5-3.3,5-2.7c0.7,1.2,1.3,2.3,2,3.5c-0.2,0.5-0.4,1-0.6,1.5
			c-0.5,1-1.3,1.8-2.2,2.6c-0.6,0.5-1.4,1.1-2.3,1.5c-0.3,0.1-0.6,0.1-0.9,0.3c-0.1,0-0.1,0.1-0.2,0.1c-0.3,0.1-0.5,0.1-0.8,0.1
			c-2.7-0.1-1.9-4.1-1.3-6.1c0.2-0.4-0.2-3.1-1-2c-0.9,1.3-1.7,2.6-2.8,3.8c-1.3,1.4-3.7,4.2-5.7,4.6c-0.9,0.2-1.9,0.2-2.2-1.2
			c-0.1-0.4,0.5-1.6,0.7-2c0.7-1.8,1.5-3.4,2-5.3c0.1-0.6,0.2-2.1-0.6-2.2c-2.3-0.3-5.3,1.4-7.4,2.1c-1.8,0.6-3.5,1.2-5.2,1.9
			c0.1-0.7,0.1-1.5,0.1-2.2c0.1-5.8-1.6-12.5,0.4-18.1c1.1-3.1,3.5-4.6,6.4-5.6c1.5-0.5,6.2-1.7,8.2-0.5c0.1,0.5,0.3,0.8,0.7,0.8
			c0.1,0,0.2,0,0.3,0c1-0.2,0.8-2.1,0.4-2.7c-1.6-2.3-6.6-1.2-8.7-0.7c-3.2,0.8-6.2,2.3-7.7,5.3c-3.8,7.5-0.7,16.2-1.6,24.3
			c-0.7,0.3-1.3,0.6-2,0.9c-4.9,2.5-9.8,5.5-13.9,9.2c-2.4,2.2-5.1,5.7-4.1,9.2c1.1,3.7,5,2.8,7.8,1.7c7.5-3,11.9-10.7,13.3-18.5
			c1.7-0.7,3.5-1.4,5.4-2c1.6-0.5,4.2-1.7,6.2-2.1c-1.4,3.3-3.9,8.2-1.6,10.6c2.4,2.6,7-2,10-5.6c-0.3,1.9,0,3.7,1.5,4.8
			c1.3,0.9,3,0.7,4.6,0c0.7,0,1,0.4,1.1,1.2c-2.2,2.7-4.3,5.4-6.3,8.3c-2.7,3.8-5.4,7.7-7,12c-0.6,1.6-1.9,4.5-1,6.2
			c2.4,4.3,12.1-13.8,12.9-15.9c0.5-1.2,2.1-5.3,2.7-8.9c1.3-1.6,2.6-3.1,4-4.7c2.3-2.5,4.6-5.1,7.2-7.3c2.7-2.3,1.7,1.4,1.2,3.2
			c-0.5,1.7-1.1,3.8-2.1,5.4c-0.5,0.7,0.1,3.5,0.7,2.5c1.4-2.1,3-4,4.8-5.8c1.2-1.2,3.5-3.9,5.5-4.3c-0.1,2.5-1.2,5.1-0.1,7.6
			c1.4,3,4.6,3.4,7.5,2.7c8.3-1.9,15.6-8,21.9-13.3C546,556.8,545.6,554,544.6,554.9z M464.5,563.9c-1.5,5.1-4.5,10.1-9,13.1
			c-1.7,1.1-4.5,2.7-6.6,2.4c-4.6-0.6-0.1-5.3,1.2-6.5c4-3.6,8.8-6.5,13.5-8.9c0.3-0.2,0.7-0.3,1-0.5
			C464.6,563.6,464.6,563.8,464.5,563.9z M490.7,578.8c-1.5,3.4-3.4,6.7-5.5,9.7c-1.1,1.6-2.3,3.2-3.6,4.6c-1.2,1.2-1.4,1.6-0.9-0.1
			c1-3.4,3-6.6,5-9.5c2.2-3.3,4.5-6.4,6.9-9.5C491.9,576.1,491,578.2,490.7,578.8z"/>
		<path d="M479.4,548.8c-1,1.7-0.2,3.5,1.1,4.7c0.8,0.8,1.2-1.6,0.6-2.1c-0.2-0.2-0.7-0.6-0.9-0.9c0.1,0,0.2-0.2,0.3-0.2
			c0.3-0.1,0.5-0.5,0.7-0.7c0.7-0.6,1.6-1.3,2.6-1.5c0.9-0.2,0.7-2.7,0-2.5C482.3,546,480.2,547.3,479.4,548.8z"/>
	</g>
	<g>
		<path class="st2" d="M307.4,566.1c-3.6-1.9-6.4-4.8-8.2-8.5c-1.3-2.6-5.1-0.3-3.8,2.2c2.1,4.3,5.5,7.8,9.8,10.1
			C307.7,571.2,310,567.4,307.4,566.1L307.4,566.1z"/>
	</g>
	<g>
		<path class="st2" d="M321.1,567.1c-1.9,0.6-3.7,0.9-5.6,0.9c-2.9,0-2.9,4.5,0,4.4c2.3,0,4.6-0.4,6.8-1.1
			C325,570.5,323.8,566.2,321.1,567.1L321.1,567.1z"/>
	</g>
	<g>
		<path class="st2" d="M324.7,534.9c6.4,4,9.6,11.3,8.3,18.7c-0.5,2.8,3.8,4,4.3,1.2c1.7-9.5-2.1-18.5-10.3-23.7
			C324.5,529.5,322.3,533.3,324.7,534.9L324.7,534.9z"/>
	</g>
	<g>
		<path class="st2" d="M308.3,533.8c2.3-0.9,4.7-1.5,7.2-1.5c2.9,0,2.9-4.5,0-4.4c-2.9,0-5.7,0.6-8.4,1.6c-1.1,0.5-1.9,1.5-1.5,2.7
			C305.8,533.3,307.2,534.2,308.3,533.8L308.3,533.8z"/>
	</g>
	<g>
		<path class="st2" d="M297.7,548.3c0.4-3.5,1.8-6.6,3.8-9.4c1.7-2.3-2.1-4.5-3.8-2.2c-2.6,3.4-4,7.4-4.5,11.6
			C293,551.1,297.4,551.1,297.7,548.3L297.7,548.3z"/>
	</g>
	<polyline class="st3" points="604.1,459.6 683.8,459.6 683.8,561 	"/>
	<circle class="st3" cx="682.4" cy="589.2" r="29.7"/>
	<circle class="st3" cx="748.3" cy="392.3" r="29.7"/>
	<polyline class="st3" points="595.8,328.9 692.1,328.9 692.1,262.9 	"/>
	<circle class="st3" cx="690.7" cy="234.7" r="29.7"/>
	<line class="st3" x1="586.4" y1="392.3" x2="718.6" y2="392.3"/>
	<polyline class="st3" points="203.1,364.3 123.4,364.3 123.4,262.9 	"/>
	<circle class="st3" cx="124.9" cy="234.7" r="29.7"/>
	<circle class="st3" cx="59" cy="431.6" r="29.7"/>
	<polyline class="st3" points="211.4,495 115.1,495 115.1,561 	"/>
	<circle class="st3" cx="116.6" cy="589.2" r="29.7"/>
	<path class="st2" d="M608.4,276.7H503.9c-2.5,0-4.5-2-4.5-4.5V191c0-2.5,2-4.5,4.5-4.5h104.5c2.5,0,4.5,2,4.5,4.5v81.2
		C612.9,274.7,610.9,276.7,608.4,276.7z"/>
	<line class="st3" x1="220.8" y1="431.6" x2="88.7" y2="431.6"/>
	<path d="M593.8,283.5h-77.5c-13.1,0-23.8-10.7-23.8-23.8v-54.6c0-13.1,10.7-23.8,23.8-23.8h77.5c13.1,0,23.8,10.7,23.8,23.8v54.6
		C617.6,272.8,606.9,283.5,593.8,283.5z M516.3,188.2c-9.3,0-16.9,7.6-16.9,16.9v54.6c0,9.3,7.6,16.9,16.9,16.9h77.5
		c9.3,0,16.9-7.6,16.9-16.9v-54.6c0-9.3-7.6-16.9-16.9-16.9H516.3z"/>
	<polygon points="547.2,248.4 528.2,229.3 533,224.5 547.2,238.7 577.1,208.8 582,213.6 	"/>
	<polygon class="st2" points="505.2,181.3 505.2,164.9 599.6,165.6 598.6,181.3 	"/>
	<path d="M533.8,184.8h-6.8v-22.5c0-15.5,12.6-28.1,28.1-28.1c15.5,0,28.1,12.6,28.1,28.1v22.3h-6.8v-22.3
		c0-11.7-9.6-21.3-21.3-21.3c-11.7,0-21.3,9.6-21.3,21.3V184.8z"/>
	<path d="M604.9,184.8h-6.8v-22.5c0-23.7-19.3-43-43-43s-43,19.3-43,43v22.5h-6.8v-22.5c0-27.5,22.4-49.9,49.9-49.9
		s49.9,22.4,49.9,49.9V184.8z"/>
</g>
</svg>
