<?xml version="1.0" encoding="utf-8"?>
<!-- Generator: Adobe Illustrator 23.0.1, SVG Export Plug-In . SVG Version: 6.00 Build 0)  -->
<svg version="1.1" id="Layer_1" xmlns="http://www.w3.org/2000/svg" xmlns:xlink="http://www.w3.org/1999/xlink" x="0px" y="0px"
	 viewBox="0 0 800 800" style="enable-background:new 0 0 800 800;" xml:space="preserve">
<style type="text/css">
	.st0{fill:#FFFFFF;stroke:#000000;stroke-width:2;stroke-miterlimit:10;}
	.st1{fill:none;stroke:#000000;stroke-width:0.5;stroke-miterlimit:10;}
	.st2{fill:#FFFFFF;}
</style>
<g>
	
		<rect x="153.4" y="70.8" transform="matrix(0.9895 -0.1442 0.1442 0.9895 -52.5299 61.5356)" class="st0" width="489.7" height="644.7"/>
	<rect x="153.4" y="70.8" class="st0" width="489.7" height="644.7"/>
	<line class="st1" x1="202.4" y1="222.9" x2="499.2" y2="222.9"/>
	<line class="st1" x1="213" y1="300.1" x2="600.3" y2="300.1"/>
	<line class="st1" x1="202" y1="247.6" x2="548.2" y2="247.6"/>
	<line class="st1" x1="213" y1="352.6" x2="600.3" y2="352.6"/>
	<line class="st1" x1="213" y1="324.9" x2="600.3" y2="324.9"/>
	<g>
		<path d="M337.8,627.3c-11.7,34.6-49.4,53.3-84.1,41.6c-34.6-11.7-53.3-49.4-41.6-84.1c11.7-34.6,49.4-53.3,84.1-41.6
			C330.9,555,349.5,592.7,337.8,627.3z M214.9,585.7c-11.2,33.1,6.6,69.2,39.8,80.4c33.1,11.2,69.2-6.6,80.4-39.8
			c11.2-33.1-6.6-69.2-39.8-80.4C262.2,534.7,226.1,552.6,214.9,585.7z"/>
	</g>
	<g>
		<path d="M329.3,624.4c-3.7,10.9-10.4,20.3-19.6,27.2l-1.9-2.5c8.6-6.6,15-15.5,18.5-25.8c3.6-10.7,3.8-22.1,0.6-33l3-0.9
			C333.3,601,333.1,613.1,329.3,624.4z"/>
	</g>
	<g>
		<path d="M223,621.6l-3,0.9c-3.4-11.4-3.2-23.5,0.6-34.9c3.7-10.9,10.4-20.3,19.6-27.2l1.9,2.5c-8.6,6.6-15,15.5-18.5,25.8
			C219.9,599.4,219.7,610.8,223,621.6z"/>
	</g>
	<g>
		<path d="M321.1,621.1c-8.4,25-35.6,38.4-60.6,30s-38.4-35.6-30-60.6s35.6-38.4,60.6-30C316.1,569,329.6,596.1,321.1,621.1z
			 M233.5,591.4c-7.9,23.3,4.7,48.8,28,56.7s48.8-4.7,56.7-28c7.9-23.3-4.7-48.8-28-56.7C266.8,555.5,241.4,568.1,233.5,591.4z"/>
	</g>
	<line class="st1" x1="213.2" y1="377.1" x2="600.5" y2="377.1"/>
	<line class="st1" x1="213.2" y1="401.9" x2="600.5" y2="401.9"/>
	<ellipse transform="matrix(0.7071 -0.7071 0.7071 0.7071 -348.0032 371.9718)" cx="275" cy="606.1" rx="37.4" ry="37.4"/>
	<g>
		<path d="M602.4,612.6c-7.7,6.5-15.8,12.7-25.1,16.7c-2.1,0.9-4.3,1.7-6.6,2.1c-3.3,0.5-5.4,0.1-6.8-3.1c-1.5-3.4,0-6.8-0.4-10.5
			c-0.1-0.5-0.3-1.5-1-1.5c-2.7-0.2-5.2,2.7-7.2,4.4c-1.5,1.3-2.8,2.6-4.1,4c0.9-4,1.1-8.1-0.4-11.3c-0.2-0.4-0.6-0.8-1-0.5
			c-5.8,3.5-10.6,9.4-15.1,14.4c-1.1,1.2-2.1,2.4-3.2,3.7c-0.1-0.4-0.1-0.8-0.3-1.2c1.4-1.1,2.5-2.3,3.2-3.4
			c2.3-3.4,3.8-8.7,1.8-12.6c-3-5.7-9.2-2-12.6,1.3c-0.9,0.9-0.3,4.9,1,3.6c1.3-1.2,5-4.7,7.2-3.8c1,1.7,1.9,3.3,2.9,5
			c-0.3,0.7-0.6,1.4-0.9,2.1c-0.8,1.4-1.9,2.6-3.1,3.7c-0.8,0.7-2.1,1.6-3.3,2.2c-0.4,0.1-0.8,0.2-1.3,0.4c-0.1,0-0.2,0.1-0.3,0.2
			c-0.4,0.1-0.8,0.1-1.1,0.1c-3.9-0.2-2.8-5.8-1.8-8.7c0.2-0.6-0.3-4.4-1.4-2.8c-1.3,1.9-2.5,3.7-4.1,5.4c-1.9,2-5.3,6-8.1,6.6
			c-1.2,0.3-2.7,0.3-3.1-1.7c-0.1-0.6,0.8-2.3,1-2.8c1-2.6,2.2-4.9,2.8-7.6c0.2-0.8,0.3-3-0.9-3.1c-3.3-0.4-7.5,2-10.6,3
			c-2.5,0.8-5,1.7-7.4,2.7c0.1-1,0.2-2.1,0.2-3.1c0.1-8.3-2.3-17.8,0.5-25.9c1.5-4.4,4.9-6.6,9.1-8c2.2-0.7,8.8-2.5,11.7-0.7
			c0.1,0.7,0.5,1.2,1,1.1c0.1,0,0.3,0,0.4-0.1c1.5-0.3,1.1-3,0.5-3.9c-2.3-3.3-9.4-1.8-12.4-1c-4.5,1.2-8.8,3.3-11,7.6
			c-5.4,10.6-1,23.2-2.2,34.7c-0.9,0.4-1.9,0.9-2.8,1.3c-7.1,3.5-14,7.8-19.9,13.1c-3.4,3.1-7.4,8.1-5.9,13.1
			c1.5,5.3,7.2,4,11.1,2.5c10.7-4.2,17-15.4,19.1-26.5c2.5-1.1,5-2,7.7-2.8c2.3-0.7,5.9-2.5,8.9-3c-2.1,4.8-5.5,11.8-2.3,15.1
			c3.4,3.7,10-2.9,14.3-8c-0.4,2.7-0.1,5.3,2.1,6.8c1.9,1.3,4.3,1,6.6,0c1,0,1.4,0.6,1.5,1.7c-3.2,3.8-6.2,7.8-9,11.9
			c-3.8,5.4-7.7,11-10.1,17.2c-0.9,2.4-2.7,6.4-1.4,8.9c3.4,6.2,17.2-19.7,18.5-22.7c0.7-1.7,2.9-7.6,3.9-12.7
			c1.9-2.3,3.8-4.5,5.8-6.7c3.2-3.6,6.6-7.2,10.2-10.4c3.8-3.3,2.4,2,1.7,4.6c-0.7,2.5-1.6,5.5-3,7.7c-0.7,1.1,0.1,5,1,3.6
			c2-3,4.3-5.8,6.9-8.3c1.7-1.6,5-5.5,7.8-6.2c-0.1,3.6-1.8,7.3-0.1,10.9c2,4.3,6.6,4.8,10.7,3.9c11.8-2.7,22.3-11.4,31.3-19
			C604.4,615.3,603.9,611.3,602.4,612.6z M488,625.5c-2.2,7.3-6.4,14.4-12.9,18.7c-2.4,1.6-6.4,3.8-9.4,3.4
			c-6.6-0.9-0.1-7.6,1.7-9.3c5.6-5.2,12.5-9.3,19.4-12.7c0.5-0.2,0.9-0.4,1.4-0.7C488.1,625.1,488,625.3,488,625.5z M525.4,646.7
			c-2.1,4.9-4.8,9.5-7.8,13.9c-1.6,2.3-3.3,4.6-5.2,6.5c-1.7,1.7-2,2.3-1.3-0.1c1.5-4.9,4.3-9.4,7.1-13.6c3.1-4.7,6.4-9.2,9.9-13.6
			C527,642.9,525.8,645.9,525.4,646.7z"/>
		<path d="M509.3,603.8c-1.4,2.5-0.4,5,1.5,6.7c1.2,1.1,1.7-2.3,0.9-3.1c-0.2-0.2-1-0.8-1.2-1.3c0.1,0,0.3-0.3,0.4-0.3
			c0.4-0.2,0.7-0.7,1.1-0.9c1.1-0.8,2.3-1.8,3.7-2.1c1.3-0.3,1.1-3.8,0-3.6C513.3,599.8,510.4,601.7,509.3,603.8z"/>
	</g>
	<g>
		<path class="st2" d="M263.4,628.6c-5.2-2.8-9.1-6.8-11.7-12.1c-1.8-3.7-7.3-0.5-5.5,3.2c3,6.2,7.9,11.2,14,14.4
			C263.8,636,267,630.5,263.4,628.6L263.4,628.6z"/>
	</g>
	<g>
		<path class="st2" d="M283,630c-2.7,0.8-5.3,1.3-8.1,1.3c-4.1,0-4.1,6.4,0,6.3c3.3,0,6.6-0.5,9.7-1.5
			C288.5,634.9,286.9,628.8,283,630L283,630z"/>
	</g>
	<g>
		<path class="st2" d="M288.1,584c9.1,5.8,13.7,16.1,11.8,26.8c-0.7,4,5.4,5.7,6.1,1.7c2.4-13.5-3.1-26.5-14.7-33.9
			C287.9,576.3,284.7,581.8,288.1,584L288.1,584z"/>
	</g>
	<g>
		<path class="st2" d="M264.6,582.4c3.3-1.3,6.7-2.1,10.3-2.1c4.1-0.1,4.1-6.4,0-6.3c-4.1,0.1-8.1,0.8-12,2.3
			c-1.6,0.6-2.7,2.1-2.2,3.9C261.1,581.7,263,583,264.6,582.4L264.6,582.4z"/>
	</g>
	<g>
		<path class="st2" d="M249.5,603.2c0.5-5,2.5-9.4,5.5-13.4c2.5-3.3-3-6.4-5.5-3.2c-3.7,4.9-5.7,10.5-6.4,16.6
			C242.7,607.2,249.1,607.2,249.5,603.2L249.5,603.2z"/>
	</g>
	<g>
		<path d="M220.7,145.5c-0.2,0.3-0.4,0.5-0.6,0.7c-0.2,0.2-0.5,0.2-0.8,0.2s-0.6-0.1-1-0.3c-0.3-0.2-0.7-0.4-1.2-0.6
			s-0.9-0.4-1.5-0.6s-1.2-0.3-1.9-0.3c-1.2,0-2.2,0.3-2.8,0.8s-0.9,1.2-0.9,2.1c0,0.6,0.2,1,0.5,1.4s0.8,0.7,1.4,1
			c0.6,0.3,1.3,0.5,2,0.8c0.8,0.2,1.5,0.5,2.3,0.8s1.6,0.6,2.3,1c0.8,0.4,1.4,0.9,2,1.4c0.6,0.6,1.1,1.3,1.4,2.1
			c0.4,0.8,0.5,1.9,0.5,3c0,1.3-0.2,2.5-0.7,3.7c-0.5,1.1-1.1,2.1-2,3s-1.9,1.5-3.2,2s-2.7,0.7-4.3,0.7c-0.9,0-1.8-0.1-2.7-0.3
			s-1.8-0.4-2.7-0.8c-0.9-0.3-1.7-0.7-2.4-1.2c-0.8-0.5-1.4-1-2-1.5l2-3.1c0.2-0.2,0.4-0.4,0.6-0.6c0.3-0.1,0.5-0.2,0.8-0.2
			c0.4,0,0.8,0.1,1.2,0.4c0.4,0.2,0.8,0.5,1.3,0.8s1.1,0.6,1.7,0.8c0.7,0.2,1.4,0.4,2.3,0.4c1.2,0,2.1-0.3,2.8-0.8s1-1.4,1-2.5
			c0-0.7-0.2-1.2-0.5-1.6s-0.8-0.8-1.4-1s-1.3-0.5-2-0.7c-0.8-0.2-1.5-0.4-2.3-0.7s-1.6-0.6-2.3-0.9s-1.4-0.9-2-1.5
			s-1.1-1.4-1.4-2.3c-0.4-0.9-0.5-2-0.5-3.4c0-1.1,0.2-2.1,0.6-3.1c0.4-1,1.1-1.9,1.9-2.7c0.8-0.8,1.9-1.4,3.1-1.9
			c1.2-0.5,2.6-0.7,4.2-0.7c0.9,0,1.7,0.1,2.5,0.2c0.8,0.1,1.6,0.3,2.4,0.6c0.7,0.3,1.4,0.6,2.1,1c0.6,0.4,1.2,0.8,1.7,1.3
			L220.7,145.5z"/>
		<path d="M258.6,139.7v28.5h-5.8v-16.4c0-0.4,0-0.8,0-1.2s0.1-0.9,0.1-1.3l-7.6,14.6c-0.2,0.5-0.6,0.8-0.9,1
			c-0.4,0.2-0.8,0.4-1.4,0.4h-0.9c-0.5,0-1-0.1-1.4-0.4c-0.4-0.2-0.7-0.6-0.9-1l-7.6-14.7c0,0.5,0.1,0.9,0.1,1.4c0,0.4,0,0.9,0,1.2
			v16.4h-5.8v-28.5h5c0.3,0,0.5,0,0.8,0c0.2,0,0.4,0.1,0.6,0.1c0.2,0.1,0.3,0.2,0.5,0.3s0.3,0.3,0.4,0.6l7.3,14.4
			c0.3,0.5,0.5,1,0.8,1.5c0.2,0.5,0.5,1.1,0.7,1.6c0.2-0.6,0.5-1.1,0.7-1.7c0.2-0.5,0.5-1.1,0.8-1.6l7.3-14.4
			c0.1-0.2,0.3-0.4,0.4-0.6s0.3-0.2,0.5-0.3s0.4-0.1,0.6-0.1s0.5,0,0.8,0h4.9V139.7z"/>
		<path d="M289.7,168.1h-5.1c-0.6,0-1-0.1-1.4-0.4c-0.4-0.3-0.6-0.6-0.8-1l-1.7-5h-10.8l-1.7,5c-0.1,0.4-0.4,0.7-0.8,1
			s-0.8,0.4-1.4,0.4h-5.2l11-28.5h6.8L289.7,168.1z M279.2,157.3l-2.6-7.8c-0.2-0.5-0.4-1.1-0.6-1.7c-0.2-0.7-0.4-1.4-0.7-2.2
			c-0.2,0.8-0.4,1.5-0.6,2.2s-0.4,1.3-0.6,1.8l-2.6,7.8h7.7V157.3z"/>
		<path d="M315.2,168.1h-6c-1.1,0-1.9-0.4-2.4-1.3l-4.7-8.3c-0.2-0.4-0.5-0.6-0.7-0.8c-0.3-0.2-0.7-0.2-1.2-0.2h-1.7V168h-6.6v-28.5
			h9.3c2.1,0,3.8,0.2,5.3,0.6c1.5,0.4,2.6,1,3.6,1.8c0.9,0.8,1.6,1.6,2,2.7c0.4,1,0.6,2.1,0.6,3.4c0,0.9-0.1,1.8-0.4,2.6
			s-0.6,1.6-1.1,2.3s-1.1,1.3-1.8,1.9s-1.5,1-2.5,1.3c0.4,0.2,0.8,0.5,1.2,0.8c0.4,0.3,0.7,0.7,1,1.2L315.2,168.1z M301.2,153.1
			c0.9,0,1.7-0.1,2.3-0.3c0.6-0.2,1.1-0.5,1.6-0.9c0.4-0.4,0.7-0.9,0.9-1.4c0.2-0.5,0.3-1.1,0.3-1.7c0-1.3-0.4-2.2-1.2-2.9
			c-0.8-0.7-2.1-1.1-3.8-1.1h-2.7v8.4h2.6V153.1z"/>
		<path d="M337.5,144.9h-8v23.2h-6.6v-23.2h-8v-5.2h22.6V144.9z"/>
		<path d="M367.9,160.8c0.2,0,0.3,0,0.5,0.1s0.3,0.2,0.4,0.3l2.6,2.8c-1.1,1.5-2.6,2.6-4.3,3.4c-1.7,0.8-3.8,1.1-6.1,1.1
			c-2.2,0-4.1-0.4-5.8-1.1c-1.7-0.7-3.2-1.8-4.4-3c-1.2-1.3-2.1-2.8-2.7-4.6s-1-3.7-1-5.8s0.3-4.1,1-5.9c0.7-1.8,1.7-3.3,2.9-4.6
			c1.3-1.3,2.7-2.3,4.5-3c1.7-0.7,3.7-1.1,5.8-1.1c1.1,0,2.1,0.1,3,0.3s1.8,0.4,2.6,0.8c0.8,0.3,1.6,0.7,2.3,1.2s1.3,1,1.8,1.5
			l-2.2,3c-0.1,0.2-0.3,0.3-0.5,0.5c-0.2,0.1-0.5,0.2-0.8,0.2c-0.2,0-0.5-0.1-0.7-0.2c-0.2-0.1-0.4-0.2-0.7-0.4s-0.5-0.3-0.8-0.5
			s-0.6-0.3-1-0.5c-0.4-0.1-0.8-0.3-1.3-0.4c-0.5-0.1-1.1-0.2-1.8-0.2c-1.1,0-2.1,0.2-3,0.6s-1.7,1-2.3,1.8
			c-0.7,0.8-1.2,1.7-1.5,2.9c-0.4,1.1-0.5,2.4-0.5,3.9s0.2,2.8,0.6,3.9s0.9,2.1,1.6,2.9c0.7,0.8,1.5,1.4,2.4,1.8s1.9,0.6,2.9,0.6
			c0.6,0,1.1,0,1.6-0.1s1-0.2,1.4-0.3s0.8-0.3,1.2-0.5c0.4-0.2,0.8-0.5,1.2-0.9c0.2-0.1,0.3-0.2,0.5-0.3
			C367.5,160.8,367.7,160.8,367.9,160.8z"/>
		<path d="M401.6,153.9c0,2.1-0.4,4-1.1,5.7c-0.7,1.8-1.7,3.3-3,4.6s-2.8,2.3-4.7,3.1c-1.8,0.7-3.8,1.1-6,1.1s-4.2-0.4-6.1-1.1
			c-1.8-0.7-3.4-1.8-4.7-3.1c-1.3-1.3-2.3-2.8-3-4.6s-1.1-3.7-1.1-5.7c0-2.1,0.4-4,1.1-5.7c0.7-1.8,1.7-3.3,3-4.6s2.9-2.3,4.7-3.1
			c1.8-0.7,3.8-1.1,6.1-1.1s4.2,0.4,6,1.1c1.8,0.7,3.4,1.8,4.7,3.1c1.3,1.3,2.3,2.8,3,4.6S401.6,151.9,401.6,153.9z M394.8,153.9
			c0-1.4-0.2-2.7-0.5-3.8c-0.4-1.1-0.9-2.1-1.6-2.9c-0.7-0.8-1.5-1.4-2.5-1.8c-1-0.4-2.1-0.6-3.4-0.6s-2.4,0.2-3.4,0.6
			c-1,0.4-1.8,1-2.5,1.8s-1.2,1.7-1.6,2.9c-0.4,1.1-0.5,2.4-0.5,3.8c0,1.4,0.2,2.7,0.5,3.8c0.4,1.1,0.9,2.1,1.6,2.9
			c0.7,0.8,1.5,1.4,2.5,1.8c1,0.4,2.1,0.6,3.4,0.6s2.4-0.2,3.4-0.6c1-0.4,1.8-1,2.5-1.8s1.2-1.7,1.6-2.9
			C394.6,156.6,394.8,155.3,394.8,153.9z"/>
		<path d="M430.3,139.7v28.5h-3.4c-0.5,0-0.9-0.1-1.3-0.2c-0.3-0.2-0.7-0.4-1-0.9l-13.4-17c0.1,0.5,0.1,1,0.1,1.5s0,0.9,0,1.3v15.3
			h-5.8v-28.5h3.5c0.3,0,0.5,0,0.7,0s0.4,0.1,0.5,0.1s0.3,0.2,0.4,0.3s0.3,0.3,0.5,0.5l13.5,17.1c-0.1-0.5-0.1-1.1-0.1-1.6
			s0-1,0-1.5v-15.1h5.8V139.7z"/>
		<path d="M456.3,144.9h-8v23.2h-6.6v-23.2h-8v-5.2h22.6V144.9z"/>
		<path d="M482.9,168.1h-6c-1.1,0-1.9-0.4-2.4-1.3l-4.7-8.3c-0.2-0.4-0.5-0.6-0.7-0.8c-0.3-0.2-0.7-0.2-1.2-0.2h-1.7V168h-6.6v-28.5
			h9.3c2.1,0,3.8,0.2,5.3,0.6c1.5,0.4,2.6,1,3.6,1.8c0.9,0.8,1.6,1.6,2,2.7c0.4,1,0.6,2.1,0.6,3.4c0,0.9-0.1,1.8-0.4,2.6
			c-0.2,0.8-0.6,1.6-1.1,2.3s-1.1,1.3-1.8,1.9c-0.7,0.5-1.5,1-2.5,1.3c0.4,0.2,0.8,0.5,1.2,0.8c0.4,0.3,0.7,0.7,1,1.2L482.9,168.1z
			 M468.9,153.1c0.9,0,1.7-0.1,2.3-0.3c0.6-0.2,1.1-0.5,1.6-0.9c0.4-0.4,0.7-0.9,0.9-1.4s0.3-1.1,0.3-1.7c0-1.3-0.4-2.2-1.2-2.9
			c-0.8-0.7-2.1-1.1-3.8-1.1h-2.7v8.4h2.6V153.1z"/>
		<path d="M510.9,168.1h-5.1c-0.6,0-1-0.1-1.4-0.4s-0.6-0.6-0.8-1l-1.7-5H491l-1.7,5c-0.1,0.4-0.4,0.7-0.8,1s-0.8,0.4-1.4,0.4h-5.2
			l11-28.5h6.8L510.9,168.1z M500.4,157.3l-2.6-7.8c-0.2-0.5-0.4-1.1-0.6-1.7s-0.4-1.4-0.7-2.2c-0.2,0.8-0.4,1.5-0.6,2.2
			s-0.4,1.3-0.6,1.8l-2.6,7.8h7.7V157.3z"/>
		<path d="M531.4,160.8c0.2,0,0.3,0,0.5,0.1s0.3,0.2,0.5,0.3l2.6,2.8c-1.1,1.5-2.6,2.6-4.3,3.4c-1.7,0.8-3.8,1.1-6.1,1.1
			c-2.2,0-4.1-0.4-5.8-1.1c-1.7-0.7-3.2-1.8-4.4-3c-1.2-1.3-2.1-2.8-2.7-4.6c-0.6-1.8-1-3.7-1-5.8s0.3-4.1,1-5.9s1.7-3.3,2.9-4.6
			c1.3-1.3,2.7-2.3,4.5-3c1.7-0.7,3.7-1.1,5.8-1.1c1.1,0,2.1,0.1,3,0.3s1.8,0.4,2.6,0.8s1.6,0.7,2.3,1.2s1.3,1,1.8,1.5l-2.2,3
			c-0.1,0.2-0.3,0.3-0.5,0.5c-0.2,0.1-0.5,0.2-0.8,0.2c-0.2,0-0.5-0.1-0.7-0.2c-0.2-0.1-0.4-0.2-0.7-0.4s-0.5-0.3-0.8-0.5
			s-0.6-0.3-1-0.5c-0.4-0.1-0.8-0.3-1.3-0.4c-0.5-0.1-1.1-0.2-1.8-0.2c-1.1,0-2.1,0.2-3,0.6c-0.9,0.4-1.7,1-2.3,1.8
			c-0.7,0.8-1.2,1.7-1.5,2.9c-0.4,1.1-0.5,2.4-0.5,3.9s0.2,2.8,0.6,3.9s0.9,2.1,1.6,2.9c0.7,0.8,1.5,1.4,2.4,1.8
			c0.9,0.4,1.9,0.6,2.9,0.6c0.6,0,1.1,0,1.6-0.1s1-0.2,1.4-0.3s0.8-0.3,1.2-0.5s0.8-0.5,1.2-0.9c0.2-0.1,0.3-0.2,0.5-0.3
			C531,160.8,531.2,160.8,531.4,160.8z"/>
		<path d="M558.2,144.9h-8v23.2h-6.6v-23.2h-8v-5.2h22.6V144.9z"/>
	</g>
</g>
</svg>
