<?xml version="1.0" encoding="utf-8"?>
<!-- Generator: Adobe Illustrator 23.0.1, SVG Export Plug-In . SVG Version: 6.00 Build 0)  -->
<svg version="1.1" id="Layer_1" xmlns="http://www.w3.org/2000/svg" xmlns:xlink="http://www.w3.org/1999/xlink" x="0px" y="0px"
	 viewBox="0 0 800 800" style="enable-background:new 0 0 800 800;" xml:space="preserve">
<style type="text/css">
	.st0{fill:#FFFFFF;}
	.st1{fill:none;stroke:#000000;stroke-width:2;stroke-miterlimit:10;}
	.st2{fill:#FFFFFF;stroke:#000000;stroke-width:2;stroke-miterlimit:10;}
	.st3{fill:none;stroke:#000000;stroke-width:2;stroke-linecap:round;stroke-miterlimit:10;}
	.st4{fill:#FFFFFF;stroke:#000000;stroke-width:2;stroke-linecap:round;stroke-miterlimit:10;}
</style>
<g>
	<g>
		<g>
			<g>
				<g>
					<path class="st0" d="M407.6,329.5V131.2c0-36-29.6-65.4-66-65.4H103.8c-36.3,0-65.9,29.3-65.9,65.4v537.6
						c0,36,29.6,65.4,65.9,65.4h237.8c36.4,0,66-29.3,66-65.4V343.9h-16.9v324.9c0,26.7-22,48.5-49.1,48.5H103.8
						c-27,0-49-21.8-49-48.5V131.2c0-26.7,22-48.5,49-48.5h237.8c27.1,0,49.1,21.7,49.1,48.5v198.3H407.6z"/>
				</g>
				<g>
					<path d="M283.6,125.2c0,4.7-3.8,8.5-8.5,8.5h-93.6c-4.7,0-8.5-3.8-8.5-8.5c0-4.7,3.8-8.4,8.5-8.4h93.6
						C279.8,116.8,283.6,120.5,283.6,125.2z"/>
				</g>
				<g>
					<path d="M222.7,623.4c-19.5,0-35.3,16-35.3,35.6c0,19.6,15.8,35.6,35.3,35.6c19.5,0,35.3-16,35.3-35.6
						C258,639.4,242.2,623.4,222.7,623.4z M222.7,677.7c-10.2,0-18.5-8.4-18.5-18.7c0-10.3,8.3-18.7,18.5-18.7
						c10.2,0,18.4,8.4,18.4,18.7C241.1,669.4,232.8,677.7,222.7,677.7z"/>
				</g>
			</g>
		</g>
	</g>
	<path class="st1" d="M362.2,726.8h-279c-20.5,0-37.3-16.8-37.3-37.3V103.1c0-20.5,16.8-37.3,37.3-37.3h279
		c20.5,0,37.3,16.8,37.3,37.3v586.4C399.5,710,382.7,726.8,362.2,726.8z"/>
	<g>
		<path class="st2" d="M249.6,354.2c0,4.6,2.9,8.3,6.4,8.3h405.5c3.6,0,6.4-3.7,6.4-8.3l0,0c0-4.6-2.9-8.3-6.4-8.3H256
			C252.5,345.9,249.6,349.6,249.6,354.2L249.6,354.2z"/>
		<line class="st2" x1="661.6" y1="362.5" x2="661.6" y2="424.9"/>
		<line class="st2" x1="652.9" y1="362.5" x2="652.9" y2="424.9"/>
		<line class="st2" x1="644.2" y1="362.5" x2="644.2" y2="424.9"/>
		<line class="st2" x1="635.5" y1="362.5" x2="635.5" y2="424.9"/>
		<line class="st2" x1="626.7" y1="362.5" x2="626.7" y2="424.9"/>
		<line class="st2" x1="618" y1="362.5" x2="618" y2="424.9"/>
		<line class="st2" x1="609.3" y1="362.5" x2="609.3" y2="424.9"/>
		<line class="st2" x1="600.6" y1="362.5" x2="600.6" y2="424.9"/>
		<line class="st2" x1="591.9" y1="362.5" x2="591.9" y2="424.9"/>
		<line class="st2" x1="583.2" y1="362.5" x2="583.2" y2="424.9"/>
		<line class="st2" x1="574.5" y1="362.5" x2="574.5" y2="424.9"/>
		<line class="st2" x1="565.8" y1="362.5" x2="565.8" y2="424.9"/>
		<line class="st2" x1="557.1" y1="362.5" x2="557.1" y2="424.9"/>
		<line class="st2" x1="548.4" y1="362.5" x2="548.4" y2="424.9"/>
		<line class="st2" x1="539.7" y1="362.5" x2="539.7" y2="424.9"/>
	</g>
	<g>
		<path class="st1" d="M761.2,604.2H453.1c-0.5,0-1-0.4-1-1v-90.5c0-0.5,0.5-1,1-1h308.1c0.5,0,1,0.5,1,1v90.5
			C762.2,603.8,761.7,604.2,761.2,604.2z"/>
		<g>
			<path class="st0" d="M506.6,455.7c-7.5-3.3-15.3-6.6-23.5-7c-8.2-0.4-17.1,2.8-21.4,9.8c-4.5,7.5-2.8,16.9-1,25.5
				c5.3,24.5,10.5,49.1,15.8,73.6c0.7,3.1,1.4,6.3,3.2,8.9s5.8,10,8.9,9.4c2.9-0.6,4.1-8.6,5.1-11.4c0.9-2.8,0.9-5.7,1.1-8.6
				c0.6-10.5,2-24.4,7.1-33.6c3-5.3,9.7-7.4,15.6-6.1c3.8,0.8,4.4,4.3,5.4,8.1s0.9,8.5,0.5,12.3c-0.6,6.1,0.7,11.4,0.1,17.5
				c-0.4,3.6-0.7,7.3,0.6,10.7s2.2,11.7,5.7,11.2c4.7-0.7,9.1-11.6,10.2-16.2c5.7-24.1,10.5-48.3,14.5-72.7
				c1.4-8.8,2.7-18.2-0.8-26.4c-5.2-12.3-20.9-18.4-33.5-13.9c-4.6,1.7-4.4,7.4-9.1,8.8c-4.7,1.4-12.9,0-15.8-3.9"/>
			<g>
				<path d="M507.1,454.8c-8.5-3.8-17.7-7.8-27.2-7.1c-7.1,0.5-14.3,3.4-18.5,9.4c-5,7.2-3.8,16.6-2.2,24.7
					c2.1,10.5,4.5,21,6.7,31.5c2.3,10.7,4.6,21.3,6.8,32c1.1,5.3,2.1,10.7,3.5,16c1,3.5,2.8,6.4,4.8,9.4c2.4,3.6,7.3,9.6,10.5,3.4
					c3.2-6.1,3.8-13.6,4.2-20.4c0.6-8.7,1.5-17.6,4.6-25.9c1.6-4.4,3.8-8.4,8.4-10.1c3.5-1.3,9.5-2,11.5,1.9c2,3.7,2.4,8.7,2.3,12.9
					c-0.1,2.3-0.4,4.6-0.4,6.9c0,2.6,0.2,5.2,0.3,7.7c0.3,5-0.9,10.1-0.1,15c0.5,3.1,1.6,6.4,2.5,9.4c0.6,1.9,1.5,4.7,3.7,5.3
					c2.2,0.6,4.3-1.2,5.6-2.8c4.5-5.2,6.3-12.2,7.8-18.8c4.9-21.2,9.2-42.6,12.7-64.1c1.5-9.2,3.5-19.1,0.8-28.3
					c-2.1-6.9-7.1-12.4-13.5-15.5c-6.3-3.1-13.7-4-20.5-2c-3.1,0.9-4.9,2.5-6.6,5.2c-0.9,1.4-1.8,2.9-3.3,3.7
					c-1.7,0.9-3.8,0.9-5.6,0.8c-3.6-0.2-7.7-1.2-10.1-4.2c-0.8-1-2.2,0.4-1.4,1.4c3.6,4.3,11,5.7,16.3,4.3c2.7-0.7,4.3-2.6,5.7-4.9
					c0.9-1.3,1.7-2.8,3.1-3.6c1.5-0.9,3.6-1.3,5.3-1.6c7.3-1.2,15.1,0.9,20.9,5.5c7,5.5,9.3,13.8,9,22.5c-0.3,9.9-2.6,19.9-4.4,29.6
					c-1.8,9.9-3.7,19.8-5.8,29.7c-1.9,9.1-3.5,18.6-6.2,27.5c-0.7,2.2-6.9,17.5-10.4,12.8c-1.6-2.2-2-5.5-2.7-8.1
					c-0.5-1.9-1.1-3.6-1.3-5.6c-0.2-2.4,0.2-4.9,0.4-7.3c0.3-4.7-0.5-9.5-0.4-14.2c0.1-4.2,0.7-8.4,0.1-12.6c-0.4-2.9-1.2-6.7-3.1-9
					c-1.9-2.3-5.1-2.6-7.9-2.5c-3.2,0.1-6.4,1.1-8.9,3.1c-2.7,2-4.1,5-5.3,8c-3,7.4-4.1,15.4-4.8,23.3c-0.4,4.1-0.3,8.4-0.9,12.5
					c-0.5,3-1.5,6.2-2.4,9c-0.4,1.2-0.8,2.8-1.8,3.7c-1.3,1.2-2.7-0.4-3.6-1.3c-2.1-2.3-3.8-5.1-5.4-7.8c-2.4-4-2.9-9.2-3.8-13.7
					c-1.1-5.2-2.2-10.3-3.3-15.5c-2.1-10-4.3-20-6.4-30c-2-9.4-4.4-18.9-6-28.4c-1.4-8.8-0.8-18.5,7.2-23.9
					c7.2-4.9,16.4-4.7,24.5-2.4c4.8,1.3,9.4,3.3,13.9,5.3C507.3,457,508.3,455.3,507.1,454.8L507.1,454.8z"/>
			</g>
		</g>
		<g>
			<path class="st0" d="M603.7,455.7c-7.5-3.3-15.3-6.6-23.5-7s-17.1,2.8-21.4,9.8c-4.5,7.5-2.8,16.9-1,25.5
				c5.3,24.5,10.5,49.1,15.8,73.6c0.7,3.1,1.4,6.3,3.2,8.9s5.8,10,8.9,9.4c2.9-0.6,4.1-8.6,5.1-11.4c0.9-2.8,0.9-5.7,1.1-8.6
				c0.6-10.5,2-24.4,7.1-33.6c3-5.3,9.7-7.4,15.6-6.1c3.8,0.8,4.4,4.3,5.4,8.1s0.9,8.5,0.5,12.3c-0.6,6.1,0.7,11.4,0.1,17.5
				c-0.4,3.6-0.7,7.3,0.6,10.7s2.2,11.7,5.7,11.2c4.7-0.7,9.1-11.6,10.2-16.2c5.7-24.1,10.5-48.3,14.5-72.7
				c1.4-8.8,2.7-18.2-0.8-26.4c-5.2-12.3-20.9-18.4-33.5-13.9c-4.6,1.7-4.4,7.4-9.1,8.8s-12.9,0-15.8-3.9"/>
			<g>
				<path d="M604.2,454.8c-8.5-3.8-17.7-7.8-27.2-7.1c-7.1,0.5-14.3,3.4-18.5,9.4c-5,7.2-3.8,16.6-2.2,24.7
					c2.1,10.5,4.5,21,6.7,31.5c2.3,10.7,4.6,21.3,6.8,32c1.1,5.3,2.1,10.7,3.5,16c1,3.5,2.8,6.4,4.8,9.4c2.4,3.6,7.3,9.6,10.5,3.4
					c3.2-6.1,3.8-13.6,4.2-20.4c0.6-8.7,1.5-17.6,4.6-25.9c1.6-4.4,3.8-8.4,8.4-10.1c3.5-1.3,9.5-2,11.5,1.9c2,3.7,2.4,8.7,2.3,12.9
					c-0.1,2.3-0.4,4.6-0.4,6.9c0,2.6,0.2,5.2,0.3,7.7c0.3,5-0.9,10.1-0.1,15c0.5,3.1,1.6,6.4,2.5,9.4c0.6,1.9,1.5,4.7,3.7,5.3
					c2.2,0.6,4.3-1.2,5.6-2.8c4.5-5.2,6.3-12.2,7.8-18.8c4.9-21.2,9.2-42.6,12.7-64.1c1.5-9.2,3.5-19.1,0.8-28.3
					c-2.1-6.9-7.1-12.4-13.5-15.5c-6.3-3.1-13.7-4-20.5-2c-3.1,0.9-4.9,2.5-6.6,5.2c-0.9,1.4-1.8,2.9-3.3,3.7
					c-1.7,0.9-3.8,0.9-5.6,0.8c-3.6-0.2-7.7-1.2-10.1-4.2c-0.8-1-2.2,0.4-1.4,1.4c3.6,4.3,11,5.7,16.3,4.3c2.7-0.7,4.3-2.6,5.7-4.9
					c0.9-1.3,1.7-2.8,3.1-3.6c1.5-0.9,3.6-1.3,5.3-1.6c7.3-1.2,15.1,0.9,20.9,5.5c7,5.5,9.3,13.8,9,22.5c-0.3,9.9-2.6,19.9-4.4,29.6
					c-1.8,9.9-3.7,19.8-5.8,29.7c-1.9,9.1-3.5,18.6-6.2,27.5c-0.7,2.2-6.9,17.5-10.4,12.8c-1.6-2.2-2-5.5-2.7-8.1
					c-0.5-1.9-1.1-3.6-1.3-5.6c-0.2-2.4,0.2-4.9,0.4-7.3c0.3-4.7-0.5-9.5-0.4-14.2c0.1-4.2,0.7-8.4,0.1-12.6c-0.4-2.9-1.2-6.7-3.1-9
					c-1.9-2.3-5.1-2.6-7.9-2.5c-3.2,0.1-6.4,1.1-8.9,3.1c-2.7,2-4.1,5-5.3,8c-3,7.4-4.1,15.4-4.8,23.3c-0.4,4.1-0.3,8.4-0.9,12.5
					c-0.5,3-1.5,6.2-2.4,9c-0.4,1.2-0.8,2.8-1.8,3.7c-1.3,1.2-2.7-0.4-3.6-1.3c-2.1-2.3-3.8-5.1-5.4-7.8c-2.4-4-2.9-9.2-3.8-13.7
					c-1.1-5.2-2.2-10.3-3.3-15.5c-2.1-10-4.3-20-6.4-30c-2-9.4-4.4-18.9-6-28.4c-1.4-8.8-0.8-18.5,7.2-23.9
					c7.2-4.9,16.4-4.7,24.5-2.4c4.8,1.3,9.4,3.3,13.9,5.3C604.4,457,605.4,455.3,604.2,454.8L604.2,454.8z"/>
			</g>
		</g>
		<g>
			<path class="st0" d="M698.7,455.7c-7.5-3.3-15.3-6.6-23.5-7s-17.1,2.8-21.4,9.8c-4.5,7.5-2.8,16.9-1,25.5
				c5.3,24.5,10.5,49.1,15.8,73.6c0.7,3.1,1.4,6.3,3.2,8.9s5.8,10,8.9,9.4c2.9-0.6,4.1-8.6,5.1-11.4c0.9-2.8,0.9-5.7,1.1-8.6
				c0.6-10.5,2-24.4,7.1-33.6c3-5.3,9.7-7.4,15.6-6.1c3.8,0.8,4.4,4.3,5.4,8.1s0.9,8.5,0.5,12.3c-0.6,6.1,0.7,11.4,0.1,17.5
				c-0.4,3.6-0.7,7.3,0.6,10.7c1.3,3.4,2.2,11.7,5.7,11.2c4.7-0.7,9.1-11.6,10.2-16.2c5.7-24.1,10.5-48.3,14.5-72.7
				c1.4-8.8,2.7-18.2-0.8-26.4c-5.2-12.3-20.9-18.4-33.5-13.9c-4.6,1.7-4.4,7.4-9.1,8.8s-12.9,0-15.8-3.9"/>
			<g>
				<path d="M699.3,454.8c-8.5-3.8-17.7-7.8-27.2-7.1c-7.1,0.5-14.3,3.4-18.5,9.4c-5,7.2-3.8,16.6-2.2,24.7
					c2.1,10.5,4.5,21,6.7,31.5c2.3,10.7,4.6,21.3,6.8,32c1.1,5.3,2.1,10.7,3.5,16c1,3.5,2.8,6.4,4.8,9.4c2.4,3.6,7.3,9.6,10.5,3.4
					c3.2-6.1,3.8-13.6,4.2-20.4c0.6-8.7,1.5-17.6,4.6-25.9c1.6-4.4,3.8-8.4,8.4-10.1c3.5-1.3,9.5-2,11.5,1.9c2,3.7,2.4,8.7,2.3,12.9
					c-0.1,2.3-0.4,4.6-0.4,6.9c0,2.6,0.2,5.2,0.3,7.7c0.3,5-0.9,10.1-0.1,15c0.5,3.1,1.6,6.4,2.5,9.4c0.6,1.9,1.5,4.7,3.7,5.3
					c2.2,0.6,4.3-1.2,5.6-2.8c4.5-5.2,6.3-12.2,7.8-18.8c4.9-21.2,9.2-42.6,12.7-64.1c1.5-9.2,3.5-19.1,0.8-28.3
					c-2.1-6.9-7.1-12.4-13.5-15.5c-6.3-3.1-13.7-4-20.5-2c-3.1,0.9-4.9,2.5-6.6,5.2c-0.9,1.4-1.8,2.9-3.3,3.7
					c-1.7,0.9-3.8,0.9-5.6,0.8c-3.6-0.2-7.7-1.2-10.1-4.2c-0.8-1-2.2,0.4-1.4,1.4c3.6,4.3,11,5.7,16.3,4.3c2.7-0.7,4.3-2.6,5.7-4.9
					c0.9-1.3,1.7-2.8,3.1-3.6c1.5-0.9,3.6-1.3,5.3-1.6c7.3-1.2,15.1,0.9,20.9,5.5c7,5.5,9.3,13.8,9,22.5c-0.3,9.9-2.6,19.9-4.4,29.6
					c-1.8,9.9-3.7,19.8-5.8,29.7c-1.9,9.1-3.5,18.6-6.2,27.5c-0.7,2.2-6.9,17.5-10.4,12.8c-1.6-2.2-2-5.5-2.7-8.1
					c-0.5-1.9-1.1-3.6-1.3-5.6c-0.2-2.4,0.2-4.9,0.4-7.3c0.3-4.7-0.5-9.5-0.4-14.2c0.1-4.2,0.7-8.4,0.1-12.6c-0.4-2.9-1.2-6.7-3.1-9
					c-1.9-2.3-5.1-2.6-7.9-2.5c-3.2,0.1-6.4,1.1-8.9,3.1c-2.7,2-4.1,5-5.3,8c-3,7.4-4.1,15.4-4.8,23.3c-0.4,4.1-0.3,8.4-0.9,12.5
					c-0.5,3-1.5,6.2-2.4,9c-0.4,1.2-0.8,2.8-1.8,3.7c-1.3,1.2-2.7-0.4-3.6-1.3c-2.1-2.3-3.8-5.1-5.4-7.8c-2.4-4-2.9-9.2-3.8-13.7
					c-1.1-5.2-2.2-10.3-3.3-15.5c-2.1-10-4.3-20-6.4-30c-2-9.4-4.4-18.9-6-28.4c-1.4-8.8-0.8-18.5,7.2-23.9
					c7.2-4.9,16.4-4.7,24.5-2.4c4.8,1.3,9.4,3.3,13.9,5.3C699.4,457,700.4,455.3,699.3,454.8L699.3,454.8z"/>
			</g>
		</g>
		<path class="st3" d="M530.1,400.9c0,0-22.4-20.6-35.9,3.5c0,0-35.3-21.2-32.6,17.8"/>
		<path class="st3" d="M672.3,398.6c0,0,22.4-20.6,35.9,3.5c0,0,41.6-9,34.3,36.9"/>
		<circle class="st1" cx="464.8" cy="437.5" r="15.3"/>
		<circle class="st1" cx="709.7" cy="355.9" r="15.3"/>
		<circle class="st1" cx="693.9" cy="415.5" r="9.3"/>
	</g>
	<circle class="st4" cx="222.7" cy="366" r="144.3"/>
	<g>
		<path d="M194.8,367c0.8-1,1.5-1.9,2.2-2.8c0.7-0.9,1.3-1.8,1.9-2.7c-2,1.5-4.2,2.6-6.7,3.4c-2.5,0.8-5.1,1.2-7.9,1.2
			c-2.9,0-5.7-0.5-8.3-1.4c-2.6-0.9-4.9-2.3-6.9-4.1c-2-1.8-3.6-4-4.7-6.6c-1.2-2.6-1.8-5.6-1.8-9c0-3.2,0.6-6.2,1.9-9
			c1.3-2.8,3-5.2,5.3-7.3c2.3-2.1,5-3.7,8.1-4.9c3.1-1.2,6.6-1.8,10.3-1.8c3.7,0,7.1,0.6,10.1,1.7s5.6,2.8,7.8,4.9
			c2.2,2.1,3.8,4.6,5,7.5c1.2,2.9,1.8,6.1,1.8,9.6c0,2.1-0.2,4.1-0.6,6c-0.4,1.9-1,3.8-1.8,5.6c-0.8,1.8-1.7,3.6-2.8,5.4
			c-1.1,1.8-2.4,3.6-3.8,5.5l-18.8,25.8c-0.5,0.6-1.1,1.2-2,1.6c-0.9,0.4-1.9,0.6-3,0.6h-8.8L194.8,367z M172.4,344.4
			c0,2.3,0.4,4.4,1.1,6.2c0.7,1.8,1.7,3.4,3,4.6c1.3,1.3,2.9,2.2,4.8,2.9c1.9,0.6,4,1,6.3,1c2.6,0,4.9-0.4,6.9-1.2
			c2-0.8,3.7-1.9,5-3.2c1.4-1.3,2.4-2.9,3.1-4.6c0.7-1.7,1.1-3.6,1.1-5.4c0-2.3-0.4-4.4-1.2-6.2c-0.8-1.9-1.8-3.4-3.2-4.7
			c-1.4-1.3-3-2.3-4.9-3c-1.9-0.7-4-1.1-6.2-1.1c-2.4,0-4.5,0.4-6.5,1.1c-1.9,0.7-3.6,1.8-5,3.1c-1.4,1.3-2.5,2.9-3.2,4.7
			C172.8,340.3,172.4,342.3,172.4,344.4z"/>
		<path d="M279,359.6c0,6.4-0.7,12-2.2,16.7c-1.5,4.7-3.4,8.6-6,11.7c-2.5,3.1-5.5,5.4-8.9,6.9c-3.4,1.5-7.1,2.3-11,2.3
			c-4,0-7.6-0.8-11-2.3c-3.4-1.5-6.4-3.8-8.9-6.9c-2.5-3.1-4.5-7-5.9-11.7c-1.4-4.7-2.2-10.3-2.2-16.7c0-6.4,0.7-12,2.2-16.7
			c1.4-4.7,3.4-8.6,5.9-11.7c2.5-3.1,5.5-5.4,8.9-6.9c3.4-1.5,7.1-2.3,11-2.3c3.9,0,7.6,0.8,11,2.3c3.4,1.5,6.4,3.8,8.9,6.9
			c2.5,3.1,4.5,7,6,11.7C278.3,347.6,279,353.2,279,359.6z M269,359.6c0-5.6-0.5-10.3-1.5-14.1c-1-3.8-2.3-6.9-4-9.2
			c-1.7-2.3-3.6-4-5.8-5c-2.2-1-4.5-1.5-6.8-1.5s-4.7,0.5-6.8,1.5c-2.2,1-4.1,2.7-5.8,5c-1.7,2.3-3,5.4-4,9.2
			c-1,3.8-1.5,8.5-1.5,14.1c0,5.6,0.5,10.3,1.5,14.1c1,3.8,2.3,6.9,4,9.2c1.7,2.3,3.6,4,5.8,5c2.2,1,4.5,1.5,6.8,1.5
			s4.7-0.5,6.8-1.5c2.2-1,4.1-2.7,5.8-5c1.7-2.3,3-5.4,4-9.2C268.5,369.9,269,365.2,269,359.6z"/>
	</g>
</g>
</svg>
