<?xml version="1.0" encoding="utf-8"?>
<!-- Generator: Adobe Illustrator 23.0.1, SVG Export Plug-In . SVG Version: 6.00 Build 0)  -->
<svg version="1.1" id="Layer_1" xmlns="http://www.w3.org/2000/svg" xmlns:xlink="http://www.w3.org/1999/xlink" x="0px" y="0px"
	 viewBox="0 0 61.8 67.2" style="enable-background:new 0 0 61.8 67.2;" xml:space="preserve">
<style type="text/css">
	.st0{fill:#6CA0B3;}
</style>
<g>
	<path class="st0" d="M16.3,30.9c1.1,1.8,2.1,4,2.1,7.9c0,5.9,1.1,9.1,2.1,10.7c1,1.7,1.8,2.7,3.8,2.7c2,0,3.1-1.7,3.2-3.3
		c0.1-0.7,0.1-1.5,0.1-2.4c0-2,0.1-4.2,0.8-6.6c0.3-0.9,0.6-2,1.2-2.9c0.3-0.4,0.9-0.9,1.5-0.9c0.2,0,0.6,0,1.1,0.8c0.6,1,1,2,1.3,3
		c0.7,2.3,1,5.1,0.8,7.3c-0.1,1.7,0.2,3,1,3.9c0.9,1,2,1,2.3,1l0,0c1.9,0,2.7-0.9,3.8-2.7c0.9-1.6,2.1-4.7,2.1-10.7
		c0-3.9,1-5.9,2.1-7.9l0.1-0.3c1-1.8,2-3.6,2-7.6l0-0.7c-0.1-2.9-1.3-5.1-3.5-6.7c-1.8-1.2-4.3-1.9-7.2-1.9c-2.1,0-4.4,0.4-6.1,1.2
		c-1.3-0.6-3-1-4.8-1.1c-0.1,0-0.1,0-0.2,0l-2.9,0c-0.1,0-0.1,0-0.2,0c-2.1,0.2-3.9,0.9-5.3,1.8c-2.2,1.5-3.4,3.7-3.5,6.7
		c0,0.2,0,0.4,0,0.6c0,4,1,5.8,2,7.6L16.3,30.9z M17.5,22.5c0.1-1.9,0.7-3.1,2-4c0.9-0.6,2.2-1,3.7-1.2l2.7,0
		c1.4,0.1,2.8,0.4,3.7,0.9l0.5,0.2l3.8,2c0.3,0.1,0.5,0.2,0.8,0.2c0.6,0,1.2-0.3,1.5-0.9c0.4-0.8,0.1-1.9-0.7-2.3l-0.1,0
		c0.5-0.1,1.1-0.1,1.6-0.1c2.1,0,3.9,0.5,5.2,1.3c1,0.7,1.9,1.7,2,4l0,0.5c0,3.2-0.6,4.3-1.6,6l-0.1,0.2C41.3,31.3,40,34,40,38.8
		c0,5.4-1,7.9-1.6,8.9c-0.5,0.8-0.7,1-0.7,1c0,0,0,0,0,0c-0.1-0.1-0.2-0.5-0.1-1.2c0.2-2.6-0.1-5.8-0.9-8.5
		c-0.4-1.2-0.8-2.5-1.6-3.8c-1-1.6-2.4-2.4-4-2.4c-1.7,0-3.3,0.9-4.3,2.4c-0.9,1.3-1.3,2.8-1.7,3.9c-0.8,2.8-0.9,5.4-0.9,7.5
		c0,0.8,0,1.5-0.1,2.1c0,0,0,0.1,0,0.2c0,0,0,0,0,0c-0.1-0.1-0.3-0.4-0.7-1c-0.6-1-1.6-3.5-1.6-8.9c0-4.8-1.3-7.4-2.5-9.6l-0.2-0.3
		c-0.9-1.7-1.6-2.8-1.6-5.9C17.5,22.8,17.5,22.6,17.5,22.5z"/>
	<path class="st0" d="M30.3,67.1C30.3,67.1,30.3,67.1,30.3,67.1c0.2,0.1,0.3,0.1,0.5,0.1H31c0.2,0,0.3,0,0.5-0.1
		C68.2,55.5,61.3,10.3,61.2,9.8c-0.1-0.6-0.6-1.2-1.2-1.4L31.4,0c-0.2,0-0.3-0.1-0.5-0.1h-0.1c-0.2,0-0.3,0-0.4,0.1c0,0,0,0,0,0
		L1.8,8.5C1.1,8.6,0.7,9.2,0.6,9.8C0.5,10.3-6.4,55.5,30.3,67.1z M3.8,11.4l25.3-7.5v5.9c0,0.9,0.8,1.7,1.7,1.7s1.7-0.8,1.7-1.7v-6
		L58,11.4c0.3,3,1.1,12.1-1,21.9c-3.3,15-11.5,25-24.5,29.8v-9.4c0-0.9-0.8-1.7-1.7-1.7s-1.7,0.8-1.7,1.7v9.4
		C16.2,58.2,8.1,48.2,4.8,33.3C2.7,23.5,3.4,14.4,3.8,11.4z"/>
</g>
<path class="st0" d="M50.2,37.5l0.6-0.3c0.2-0.1,0.3-0.3,0.3-0.5c0-0.2-0.1-0.4-0.3-0.5l-0.6-0.3c-0.5-0.3-1-0.7-1.3-1.3l-0.3-0.6
	c-0.2-0.4-0.8-0.4-1,0l-0.3,0.6c-0.3,0.5-0.7,1-1.3,1.3l-0.6,0.3c-0.2,0.1-0.3,0.3-0.3,0.5c0,0.2,0.1,0.4,0.3,0.5l0.6,0.3
	c0.5,0.3,1,0.7,1.3,1.3l0.3,0.6c0.1,0.2,0.3,0.3,0.5,0.3c0.2,0,0.4-0.1,0.5-0.3l0.3-0.6C49.3,38.2,49.7,37.8,50.2,37.5z M48.1,38
	c-0.3-0.5-0.8-1-1.4-1.4c0.5-0.3,1-0.8,1.4-1.4c0.3,0.5,0.8,1,1.4,1.4C48.9,37,48.5,37.5,48.1,38z"/>
<path class="st0" d="M26.8,22.9l-0.7-0.4c-0.6-0.3-1.2-0.9-1.5-1.5l-0.4-0.7c-0.2-0.4-0.8-0.4-1,0L22.8,21c-0.3,0.6-0.9,1.2-1.5,1.5
	l-0.7,0.4c-0.2,0.1-0.3,0.3-0.3,0.5s0.1,0.4,0.3,0.5l0.7,0.4c0.6,0.3,1.2,0.9,1.5,1.5l0.4,0.7c0.1,0.2,0.3,0.3,0.5,0.3
	c0.2,0,0.4-0.1,0.5-0.3l0.4-0.7c0.3-0.6,0.9-1.2,1.5-1.5l0.7-0.4c0.2-0.1,0.3-0.3,0.3-0.5S27,23,26.8,22.9z M23.7,25.1
	c-0.4-0.7-1-1.3-1.7-1.7c0.7-0.4,1.3-1,1.7-1.7c0.4,0.7,1,1.3,1.7,1.7C24.7,23.8,24.1,24.4,23.7,25.1z"/>
<path class="st0" d="M46.6,48.2c0.3,0,0.5-0.2,0.5-0.5v-0.7h0.7c0.3,0,0.5-0.2,0.5-0.5c0-0.3-0.2-0.5-0.5-0.5h-0.7v-0.7
	c0-0.3-0.2-0.5-0.5-0.5S46,44.8,46,45.1v0.7h-0.7c-0.3,0-0.5,0.2-0.5,0.5c0,0.3,0.2,0.5,0.5,0.5H46v0.7C46,47.9,46.3,48.2,46.6,48.2
	z"/>
<path class="st0" d="M14,37.5h-0.7v-0.7c0-0.3-0.2-0.5-0.5-0.5c-0.3,0-0.5,0.2-0.5,0.5v0.7h-0.7c-0.3,0-0.5,0.2-0.5,0.5
	c0,0.3,0.2,0.5,0.5,0.5h0.7v0.7c0,0.3,0.2,0.5,0.5,0.5c0.3,0,0.5-0.2,0.5-0.5v-0.7H14c0.3,0,0.5-0.2,0.5-0.5
	C14.5,37.7,14.3,37.5,14,37.5z"/>
<path class="st0" d="M9.1,11.9c-0.3,0-0.5,0.2-0.5,0.5v0.7H7.8c-0.3,0-0.5,0.2-0.5,0.5s0.2,0.5,0.5,0.5h0.7V15
	c0,0.3,0.2,0.5,0.5,0.5c0.3,0,0.5-0.2,0.5-0.5v-0.7h0.7c0.3,0,0.5-0.2,0.5-0.5s-0.2-0.5-0.5-0.5H9.6v-0.7
	C9.6,12.2,9.4,11.9,9.1,11.9z"/>
</svg>
