<?xml version="1.0" encoding="utf-8"?>
<!-- Generator: Adobe Illustrator 23.0.1, SVG Export Plug-In . SVG Version: 6.00 Build 0)  -->
<svg version="1.1" id="Layer_1" xmlns="http://www.w3.org/2000/svg" xmlns:xlink="http://www.w3.org/1999/xlink" x="0px" y="0px"
	 viewBox="0 0 54.5 63.4" style="enable-background:new 0 0 54.5 63.4;" xml:space="preserve">
<style type="text/css">
	.st0{fill:#6A9EB2;}
	.st1{clip-path:url(#SVGID_2_);}
	.st2{fill:#FFFFFF;}
</style>
<g>
	<circle class="st0" cx="42.9" cy="43.8" r="4.7"/>
	<path class="st0" d="M25.6,0.4c-6.8,0-12.4,5.5-12.4,12.4c0,3.8,1.7,7.2,4.4,9.5h7v-1.5c-0.6-0.1-1.1-0.1-1.7-0.3
		c-0.7-0.1-1.4-0.4-2-0.8c-0.2-0.1-0.2-0.2-0.1-0.3c0.2-0.5,0.3-0.9,0.5-1.4c0.1,0.1,0.3,0.1,0.4,0.2c1.1,0.6,2.2,0.9,3.5,0.9
		c0.5,0,0.9-0.1,1.4-0.3c1.9-0.8,2.1-3,0.5-4.3c-0.6-0.5-1.4-0.8-2.1-1.1c-0.9-0.4-1.8-0.8-2.6-1.5c-1.9-1.5-1.7-4.5,0.2-5.9
		c0.6-0.5,1.3-0.8,2.1-1c0.1,0,0.2,0,0.3-0.1V3.1h1.6v1.6c0.6,0.1,1.2,0.2,1.8,0.3c0.5,0.1,0.9,0.4,1.4,0.6c0.1,0,0.1,0.2,0.1,0.2
		c-0.2,0.5-0.4,1-0.6,1.5c-0.6-0.4-1.3-0.6-2-0.7c-0.8-0.1-1.6-0.2-2.5,0.1C24,7,23.4,7.5,23.3,8.4s0.1,1.6,0.9,2.1
		c0.6,0.4,1.3,0.7,2,1c0.9,0.4,1.7,0.8,2.5,1.3c1.4,1,2,2.4,1.8,4.1c-0.2,1.6-1.2,2.7-2.7,3.3c-0.4,0.2-0.9,0.3-1.3,0.4v1.6h7.2
		c2.7-2.3,4.4-5.7,4.4-9.5C38,5.9,32.4,0.4,25.6,0.4z"/>
	<g>
		<g>
			<path class="st0" d="M46.9,18.6L46.9,18.6c0-0.9-0.7-1.5-1.5-1.5h-5.9c-0.3,1-0.8,2-1.3,3h7.2C46.3,20,46.9,19.4,46.9,18.6z"/>
			<path class="st0" d="M39.9,35.1c4.1,0,8.1,0,12.2,0c1.7,0,2.4-0.7,2.4-2.4c0-1.6,0-3.2,0-4.9c0-2.5-1.1-3.7-3.6-3.7
				c-5.4,0-10.8,0-16.2,0h-7.3l0,0H16.6h-13c-0.3,0-0.5,0-0.7,0v-2.7c0-0.8,0.6-1.4,1.5-1.5l0,0H13c-0.5-0.9-1-1.9-1.3-3H4.2
				C1.8,17,0,19,0,21.4v6.2v0.1v31.9c0,2.7,1.1,3.8,3.9,3.8h24.9c7.4,0,14.8,0,22.2,0c2.2,0,3.4-1.3,3.5-3.3c0-1.8,0-3.6,0-5.3
				c0-1.6-0.7-2.3-2.2-2.3c-4.2,0-8.3-0.1-12.5,0c-2.8,0-4.5-1.5-4.5-4.4c0-2.8,0-5.6,0-8.5C35.2,36.7,36.8,35.1,39.9,35.1z
				 M24.4,46.4c-1.7,2.5-3.5,4.6-5.4,6.5c-0.4,0.4-0.9,0.7-1.4,0.7s-1-0.2-1.4-0.7c-1.9-1.9-3.6-4.1-5.4-6.5c-0.2-0.3-0.3-0.7-0.3-1
				c0-0.2,0.1-0.4,0.2-0.7c0.2-0.4,0.6-0.8,1.5-0.8h2.7c0-0.4-0.1-1-0.2-1.7c-0.2-1.5-0.4-3.4-0.5-4.4c-0.1-1.1,0.3-2.1,1-2.8
				s1.6-1,2.5-1c2,0,3.6,1.8,3.5,3.8c-0.1,1-0.3,2.7-0.5,4.1c-0.1,0.7-0.2,1.4-0.2,1.9H21c0.7,0,1.4,0,2.1,0s1.2,0.3,1.5,0.8
				C24.8,45.3,24.7,45.8,24.4,46.4z"/>
		</g>
	</g>
</g>
<polygon class="st0" points="17.6,22.3 33.7,22.2 31.9,4.9 27.6,2.1 22.9,2.7 17.2,9.9 "/>
<g>
	<g>
		<g>
			<defs>
				<rect id="SVGID_1_" x="8.8" y="2.7" width="33.8" height="19.1"/>
			</defs>
			<clipPath id="SVGID_2_">
				<use xlink:href="#SVGID_1_"  style="overflow:visible;"/>
			</clipPath>
			<g class="st1">
				<g>
					<defs>
						<rect id="SVGID_3_" x="8.8" y="2.7" width="33.8" height="19.1"/>
					</defs>
					<clipPath id="SVGID_4_">
						<use xlink:href="#SVGID_3_"  style="overflow:visible;"/>
					</clipPath>
				</g>
				<g>
					<defs>
						<polyline id="SVGID_5_" points="56.2,-0.1 42.6,21.8 8.8,21.8 22.4,-0.1 						"/>
					</defs>
					<clipPath id="SVGID_6_">
						<use xlink:href="#SVGID_5_"  style="overflow:visible;"/>
					</clipPath>
				</g>
			</g>
		</g>
	</g>
</g>
<path class="st2" d="M21.2,15.3l-2.1,3.5c0,0,0.8,1.2,3.2,2.1l1.2-3.2l0.8-2.1l0.8-2.4c0,0,0.3-0.8,0.3-0.8l0-0.1c0,0,0,0,0,0l0,0
	l0,0c0,0,0,0,0,0l0,0l0,0l0,0.1l0.1,0.2l0.2,0.5l0.6,1.7l0.5,1.5l0.8,2.3l0.6,1.6l0.3,0.9c0,0,1.9-0.5,3.5-2.1l-1.1-1.7l-0.7-1.3
	l-0.8-1.5l-0.6-1.3l-0.5-1.2l-0.4-1.2l-0.4-1.2l-0.4-1.3l-0.4-1.4l-0.4-1.4L25.9,4l-0.2-0.8l-0.4,1.4l-0.6,2l-0.5,1.5l-0.6,1.7
	l-0.5,1.4l-0.6,1.3L21.9,14L21.2,15.3z"/>
</svg>
