<?xml version="1.0" encoding="utf-8"?>
<!-- Generator: Adobe Illustrator 23.0.2, SVG Export Plug-In . SVG Version: 6.00 Build 0)  -->
<!DOCTYPE svg PUBLIC "-//W3C//DTD SVG 1.1//EN" "http://www.w3.org/Graphics/SVG/1.1/DTD/svg11.dtd" [
	<!ENTITY ns_extend "http://ns.adobe.com/Extensibility/1.0/">
	<!ENTITY ns_ai "http://ns.adobe.com/AdobeIllustrator/10.0/">
	<!ENTITY ns_graphs "http://ns.adobe.com/Graphs/1.0/">
	<!ENTITY ns_vars "http://ns.adobe.com/Variables/1.0/">
	<!ENTITY ns_imrep "http://ns.adobe.com/ImageReplacement/1.0/">
	<!ENTITY ns_sfw "http://ns.adobe.com/SaveForWeb/1.0/">
	<!ENTITY ns_custom "http://ns.adobe.com/GenericCustomNamespace/1.0/">
	<!ENTITY ns_adobe_xpath "http://ns.adobe.com/XPath/1.0/">
]>
<svg version="1.1" id="Layer_1" xmlns:x="&ns_extend;" xmlns:i="&ns_ai;" xmlns:graph="&ns_graphs;"
	 xmlns="http://www.w3.org/2000/svg" xmlns:xlink="http://www.w3.org/1999/xlink" x="0px" y="0px" viewBox="0 0 1162.9 820.9"
	 style="enable-background:new 0 0 1162.9 820.9;" xml:space="preserve">
<style type="text/css">
	.st0{fill:#126585;}
</style>
<metadata>
	<sfw  xmlns="&ns_sfw;">
		<slices></slices>
		<sliceSourceBounds  bottomLeftOrigin="true" height="820.9" width="1162.9" x="-55.9" y="155"></sliceSourceBounds>
	</sfw>
</metadata>
<g>
	<path class="st0" d="M1162.9,94.9c0,242,0,484,0,726c-387.5,0-775.1,0-1162.9,0c7.9-35.7,16.3-70.7,25.9-105.3
		c15.7-57.1,34-113.3,59.1-167.1c18.2-39.1,40.1-75.8,69.2-107.9c20.1-22.2,43-41.3,65.3-61.1c29.1-25.8,54.5-54.6,72.2-89.6
		c11.9-23.6,21.9-47.9,31.3-72.6c12.1-31.8,23.6-63.7,39.9-93.7c20.5-38,49.9-65.2,92.1-77.2c27-7.7,54.8-10,82.6-12.4
		c20.9-1.8,41.8-3.5,62.7-5.4c23-2.1,46-4.4,69-6.6c22.4-2.1,44.7-4.1,67.1-6.3c28.6-2.8,57.2-6.1,85.9-8.6
		c30.8-2.7,61.7-5.2,92.6-6.5c29-1.3,57.9-0.3,86.6,4.2c52.7,8.3,98.5,30.6,137.8,66.7C1147.4,78.9,1154.7,87.4,1162.9,94.9z"/>
</g>
</svg>
