<?xml version="1.0" encoding="utf-8"?>
<!-- Generator: Adobe Illustrator 23.0.1, SVG Export Plug-In . SVG Version: 6.00 Build 0)  -->
<svg version="1.1" id="Layer_1" xmlns="http://www.w3.org/2000/svg" xmlns:xlink="http://www.w3.org/1999/xlink" x="0px" y="0px"
	 viewBox="0 0 62 62" style="enable-background:new 0 0 62 62;" xml:space="preserve">
<style type="text/css">
	.st0{fill:#6A9EB2;}
</style>
<g>
	<g>
		<path class="st0" d="M18,62H0v-6h18V62z M2,60h14v-2H2V60z"/>
	</g>
	<g>
		<path class="st0" d="M18,58H0v-6h18V58z M2,56h14v-2H2V56z"/>
	</g>
	<g>
		<path class="st0" d="M18,54H0v-6h18V54z M2,52h14v-2H2V52z"/>
	</g>
	<g>
		<polygon class="st0" points="38,62 20,62 20,56 24,56 24,58 22,58 22,60 36,60 36,58 26,58 26,56 38,56 		"/>
	</g>
	<g>
		<polygon class="st0" points="38,57 36,57 36,54 22,54 22,57 20,57 20,52 38,52 		"/>
	</g>
	<g>
		<path class="st0" d="M38,54H20v-6h18V54z M22,52h14v-2H22V52z"/>
	</g>
	<g>
		<path class="st0" d="M38,50H20v-6h18V50z M22,48h14v-2H22V48z"/>
	</g>
	<g>
		<path class="st0" d="M38,46H20v-6h18V46z M22,44h14v-2H22V44z"/>
	</g>
	<g>
		<path class="st0" d="M58,62H40v-6h18V62z M42,60h14v-2H42V60z"/>
	</g>
	<g>
		<path class="st0" d="M58,58H40v-6h18V58z M42,56h14v-2H42V56z"/>
	</g>
	<g>
		<path class="st0" d="M58,54H40v-6h18V54z M42,52h14v-2H42V52z"/>
	</g>
	<g>
		<path class="st0" d="M58,50H40v-6h18V50z M42,48h14v-2H42V48z"/>
	</g>
	<g>
		<polygon class="st0" points="58,46 40,46 40,40 52,40 52,42 42,42 42,44 56,44 56,42 54,42 54,40 58,40 		"/>
	</g>
	<g>
		<polygon class="st0" points="58,41 56,41 56,38 42,38 42,41 40,41 40,36 58,36 		"/>
	</g>
	<g>
		<path class="st0" d="M58,38H40v-6h18V38z M42,36h14v-2H42V36z"/>
	</g>
	<g>
		<path class="st0" d="M4.6,43.8l-1.3-1.6l25.5-20.4l8.9,5L58,6.6V15c0,0.6,0.4,1,1,1s1-0.4,1-1V2H47c-0.6,0-1,0.4-1,1s0.4,1,1,1
			h9.4L37.1,23.3l-8.1-5L1.6,39.8l-1.2-1.6l28.6-22.4l7.9,5L51.6,6H47c-1.7,0-3-1.3-3-3s1.3-3,3-3h15v15c0,1.7-1.3,3-3,3s-3-1.3-3-3
			v-3.6L38.2,29.2l-9.1-5L4.6,43.8z"/>
	</g>
	<g>
		<rect x="4" y="13" class="st0" width="2" height="2"/>
	</g>
	<g>
		<rect x="20" y="13" class="st0" width="2" height="2"/>
	</g>
	<g>
		<path class="st0" d="M13,27C5.8,27,0,21.2,0,14S5.8,1,13,1s13,5.8,13,13S20.2,27,13,27z M13,3C6.9,3,2,7.9,2,14s4.9,11,11,11
			s11-4.9,11-11S19.1,3,13,3z"/>
	</g>
</g>
<path class="st0" d="M9,15.9L7.2,19c0,0,0.8,1,2.9,1.9l1.1-2.9l0.7-1.9l0.7-2.1c0,0,0.3-0.7,0.3-0.7l0-0.1c0,0,0,0,0,0l0,0l0,0
	c0,0,0,0,0,0l0,0l0,0l0,0.1l0.1,0.2l0.1,0.4l0.5,1.5l0.4,1.4l0.7,2.1l0.5,1.5l0.3,0.8c0,0,1.7-0.5,3.1-1.9l-1-1.6l-0.7-1.2L16.4,15
	l-0.6-1.2l-0.5-1.1L15,11.7l-0.3-1l-0.4-1.2l-0.4-1.2L13.6,7l-0.4-1.4L13,5l-0.4,1.3l-0.6,1.8l-0.4,1.4L11.1,11l-0.4,1.3l-0.5,1.2
	l-0.5,1.2L9,15.9z"/>
</svg>
