<?xml version="1.0" encoding="utf-8"?>
<!-- Generator: Adobe Illustrator 23.0.1, SVG Export Plug-In . SVG Version: 6.00 Build 0)  -->
<svg version="1.1" id="Layer_1" xmlns="http://www.w3.org/2000/svg" xmlns:xlink="http://www.w3.org/1999/xlink" x="0px" y="0px"
	 viewBox="0 0 439.3 509" style="enable-background:new 0 0 439.3 509;" xml:space="preserve">
<style type="text/css">
	.st0{fill:#6CA0B3;}
</style>
<g>
	<path class="st0" d="M425.3,83.5c-37.2,0-67.4-30.2-67.4-67.4c0-7.8-6.3-14.1-14.1-14.1H95.6c-7.8,0-14.1,6.3-14.1,14.1
		c0,37.1-30.2,67.4-67.4,67.4C6.3,83.5,0,89.8,0,97.6V197c0,137.5,86.3,262.9,214.6,312c3.4,1.2,6.7,1.2,10.1,0
		c128.4-49.2,214.6-174.6,214.6-312V97.6C439.4,89.8,433.1,83.5,425.3,83.5z M219.7,480.7c-49.8-20.1-92.4-52.9-124.7-93.6
		c12.5-58.8,63.9-100.8,124.8-100.8c60.8,0,112.2,42,124.7,100.8C312.2,427.8,269.5,460.6,219.7,480.7z M411.2,197
		c0,57.8-16.7,113.2-46,160.6c-22.7-59.2-79.5-99.6-145.4-99.6S97.1,298.4,74.4,357.7c-21.7-34.8-36.4-74-42.7-115.2h17.7
		c7.8,0,14.1-6.3,14.1-14.1s-6.3-14.1-14.1-14.1H28.8c-0.3-5.7-0.5-11.5-0.5-17.2v-11h56.4c7.8,0,14.1-6.3,14.1-14.1
		s-6.3-14.1-14.1-14.1H28.2v-47.2c41.4-6.2,74.3-39,80.4-80.4h222c6.2,41.4,39,74.3,80.4,80.4V197H411.2z"/>
	<path class="st0" d="M219.7,94.8c-41.4,0-75,33.6-75,75c0,41.3,33.6,75,75,75s75-33.6,75-75S261.1,94.8,219.7,94.8z M219.7,216.6
		c-25.8,0-46.8-21-46.8-46.8s21-46.8,46.8-46.8c25.8,0,46.8,21,46.8,46.8S245.5,216.6,219.7,216.6z"/>
</g>
</svg>
