<?xml version="1.0" encoding="utf-8"?>
<!-- Generator: Adobe Illustrator 23.0.1, SVG Export Plug-In . SVG Version: 6.00 Build 0)  -->
<svg version="1.1" id="Layer_1" xmlns="http://www.w3.org/2000/svg" xmlns:xlink="http://www.w3.org/1999/xlink" x="0px" y="0px"
	 viewBox="0 0 513.7 509" style="enable-background:new 0 0 513.7 509;" xml:space="preserve">
<style type="text/css">
	.st0{fill:#6CA0B3;stroke:#6CA0B3;stroke-width:8;stroke-miterlimit:10;}
	.st1{fill:#6CA0B3;}
</style>
<path class="st0" d="M378.4,205.8V60.4L191.3,3.9L4.2,60.4v222.1c0,16.7,4.4,32.7,12.6,46.3c29.8,49.2,85.3,93.9,169.8,136.6
	l4.8,2.4l4.8-2.4c13-6.6,25.1-13.2,36.7-19.8c27.7,38.5,72.8,63.7,123.8,63.7c84.2,0,152.7-68.5,152.7-152.7
	C509.2,279.9,452.2,216.4,378.4,205.8z M191.3,444.3C113.1,404.1,61.9,362.8,34.8,318c-6.2-10.3-9.5-22.6-9.5-35.4V76l166.1-50.1
	L357.3,76v128.1c-0.3,0-0.5,0-0.8,0c-84.2,0-152.7,68.5-152.7,152.7c0,25.7,6.4,49.9,17.7,71.1C211.9,433.3,201.9,438.8,191.3,444.3
	z M356.5,488.3c-72.6,0-131.6-59-131.6-131.6s59-131.6,131.6-131.6s131.6,59,131.6,131.6S429.1,488.3,356.5,488.3z"/>
<polygon class="st1" points="362.9,267.1 341.8,267.1 341.8,344.6 264.2,344.6 264.2,365.7 341.8,365.7 341.8,443.2 362.9,443.2 
	362.9,365.7 440.4,365.7 440.4,344.6 362.9,344.6 "/>
</svg>
