<?xml version="1.0" encoding="utf-8"?>
<!-- Generator: Adobe Illustrator 23.0.1, SVG Export Plug-In . SVG Version: 6.00 Build 0)  -->
<svg version="1.1" id="Layer_1" xmlns="http://www.w3.org/2000/svg" xmlns:xlink="http://www.w3.org/1999/xlink" x="0px" y="0px"
	 viewBox="0 0 91.8 97" style="enable-background:new 0 0 91.8 97;" xml:space="preserve">
<style type="text/css">
	.st0{fill:#6CA0B3;}
</style>
<path class="st0" d="M90.7,32.3l-1.6-7.9l-8.3,0.3c-3.2,0-19.7-0.6-27-12.4L45.9,0l-8,12.5c-7.2,11.7-23.7,12.3-26.8,12.3l-8.4-0.3
	l-1.6,7.9C0.8,33.9-1.6,47.8,1.8,64c2.1,10.1,6.8,22.4,16.7,33v-4.4h5.2c-9.1-9.7-13.3-20.9-15.2-30.1c-3.1-15-1-27.6-0.7-29
	l0.4-2.3l2.8,0.1c3.9,0,23.6-0.7,32.6-15.4l2.3-3.4l2.2,3.5c9.1,14.7,28.8,15.5,32.8,15.5l0,0l2.7-0.1l0.4,2.2
	c0.3,1.4,2.5,13.8-0.7,29C81.4,71.8,77.1,83,68,92.7h5.4v4.2C83.2,86.2,87.8,74,89.9,64C93.4,47.4,91,33.8,90.7,32.3z"/>
<path class="st0" d="M63.5,55.4h-3c-0.4-1.8-1.1-3.4-2.1-4.9l2.4-2.4c0.2-0.2,0.3-0.4,0.3-0.7c0-0.2-0.1-0.5-0.3-0.7l-3.3-3.3
	c-0.4-0.4-1-0.4-1.3,0l-2.5,2.5c-1.4-0.8-2.9-1.5-4.5-1.9v-3.2c0-0.5-0.4-0.9-0.9-0.9h-4.7c-0.5,0-0.9,0.4-0.9,0.9v3.1
	c-1.7,0.4-3.2,1-4.6,1.9l-2.7-2.7c-0.4-0.4-1-0.4-1.3,0l-3.3,3.4c-0.2,0.2-0.3,0.4-0.3,0.7s0.1,0.5,0.3,0.7l2.6,2.6
	c-1,1.5-1.7,3.2-2.1,5h-3c-0.5,0-0.9,0.4-0.9,0.9v4.7c0,0.5,0.4,0.9,0.9,0.9h3c0.4,1.6,1,3.2,1.8,4.5l-2.4,2.4
	c-0.2,0.2-0.3,0.4-0.3,0.7s0.1,0.5,0.3,0.7l3.3,3.3c0.2,0.2,0.4,0.3,0.7,0.3c0.2,0,0.5-0.1,0.7-0.3l2.3-2.3c1.5,1,3.2,1.7,5.1,2.1
	v2.7c0,0.5,0.4,0.9,0.9,0.9h4.7c0.5,0,0.9-0.4,0.9-0.9v-2.7c1.8-0.4,3.4-1.1,4.9-2.1l1.9,1.9c0.2,0.2,0.4,0.3,0.7,0.3
	c0.2,0,0.5-0.1,0.7-0.3l3.3-3.3c0.2-0.2,0.3-0.4,0.3-0.7s-0.2-0.5-0.4-0.7l-2-2c0.9-1.4,1.5-2.9,1.9-4.6h3c0.5,0,0.9-0.4,0.9-0.9
	v-4.6C64.4,55.8,64,55.4,63.5,55.4z M45.9,67.8c-5.1,0-9.2-4.1-9.2-9.2s4.1-9.1,9.2-9.1s9.2,4.1,9.2,9.2S51,67.8,45.9,67.8z"/>
</svg>
