<?xml version="1.0" encoding="utf-8"?>
<!-- Generator: Adobe Illustrator 23.0.1, SVG Export Plug-In . SVG Version: 6.00 Build 0)  -->
<svg version="1.1" id="Layer_1" xmlns="http://www.w3.org/2000/svg" xmlns:xlink="http://www.w3.org/1999/xlink" x="0px" y="0px"
	 viewBox="0 0 433.5 509" style="enable-background:new 0 0 433.5 509;" xml:space="preserve">
<style type="text/css">
	.st0{fill:#6CA0B3;}
</style>
<path class="st0" d="M250.9,183l-34.1,34.1l-34.1-34.1c-6.4-6.4-16.8-6.4-23.2,0c-6.4,6.4-6.4,16.8,0,23.2l34.1,34.1l-34.1,34.1
	c-6.4,6.4-6.4,16.8,0,23.2c6.4,6.4,16.8,6.4,23.2,0l34.1-34.1l34.1,34.1c6.4,6.4,16.8,6.4,23.2,0c6.4-6.4,6.4-16.8,0-23.2L240,240.4
	l34.1-34.1c6.4-6.4,6.4-16.8,0-23.2C267.7,176.6,257.3,176.6,250.9,183z"/>
<path class="st0" d="M433.3,72.4c-0.4-8.8-7.7-15.9-16.5-15.6l-3.2,0C311.2,56.8,249.7,20,227.9,4.2c-2.3-1.7-5.7-4.2-11.2-4.2
	c-5.4,0-8.9,2.5-11.2,4.2C183.9,20,122.3,56.8,20,56.8l-3.2,0c0,0-0.1,0-0.1,0c-8.8,0-16,6.9-16.4,15.6
	c-0.6,12.2-11.7,300.4,206.1,433.1l1.8,1.1c2.6,1.6,5.6,2.4,8.6,2.4c3,0,5.9-0.8,8.6-2.4l1.8-1.1C445,372.8,433.9,84.6,433.3,72.4z
	 M216.8,473.3C49.5,366,34,149.1,33,89.4c94-2.7,155.5-34.4,183.8-53.1c28.3,18.7,89.8,50.4,183.8,53.1
	C399.6,149,384.4,365.8,216.8,473.3z"/>
</svg>
