<?xml version="1.0" encoding="utf-8"?>
<!-- Generator: Adobe Illustrator 23.0.1, SVG Export Plug-In . SVG Version: 6.00 Build 0)  -->
<svg version="1.1" id="Layer_1" xmlns="http://www.w3.org/2000/svg" xmlns:xlink="http://www.w3.org/1999/xlink" x="0px" y="0px"
	 viewBox="0 0 85.7 91.1" style="enable-background:new 0 0 85.7 91.1;" xml:space="preserve">
<style type="text/css">
	.st0{fill:#6CA0B3;}
</style>
<path class="st0" d="M80.2,23.2H1.5v-1.4l1.2-8.5l9.1-2.8L19.5,8V14c0,0,0,0.1,0,0.1c0,0,0,0.1,0,0.1c0,0,0,0.1,0,0.1
	c0.1,2.8,2.4,5,5.2,5c2.9,0,5.3-2.3,5.3-5.2V4.8l10.4-3.2l12.3,3.4V14c0,2.9,2.3,5.2,5.2,5.2c2.9,0,5.2-2.3,5.2-5.2V8l1.4,0.4
	l6.6,2.5l6.5,2.4L80.2,23.2z"/>
<g>
	<path class="st0" d="M44.6,86.2c-1.1,0.5-2.3,0.9-3.5,1.3c-0.2,0.1-0.4,0.1-0.6,0.1h-0.2c-0.2,0-0.4,0-0.6-0.1c0,0,0,0-0.1,0
		C-4.7,73,3.7,16.4,3.8,15.8c0.1-0.8,0.7-1.5,1.4-1.7l14.3-4.4V6.3L2.3,11.5c-0.8,0.3-1.4,1-1.6,1.8C0.6,14-8.4,75.3,39.7,91
		c0,0,0,0,0.1,0c0.2,0,0.4,0.1,0.6,0.1h0.2c0.2,0,0.5,0,0.7-0.1c2.6-0.9,5.1-1.9,7.4-3C47.2,87.5,45.9,86.9,44.6,86.2z M80.1,13.4
		c-0.1-0.9-0.7-1.6-1.6-1.8L63.2,6.9v3.5l12.4,3.8c0.8,0.2,1.3,0.9,1.4,1.7c0,0.2,1.5,10.4,0,23.1c0.9,0.8,1.8,1.7,2.6,2.6
		C82,26.3,80.2,13.7,80.1,13.4z M41.1,0.1C40.9,0,40.7,0,40.5,0h-0.2c-0.2,0-0.4,0-0.6,0.1c0,0,0,0-0.1,0l-9.7,3v3.5l9.7-3
		c0,0,0,0,0,0c0.2-0.1,0.3-0.1,0.5-0.1h0.2c0.2,0,0.4,0,0.6,0.1l11.7,3.6V3.7L41.1,0.1z"/>
</g>
<path class="st0" d="M24.8,16.7c-1.5,0-2.7-1.2-2.7-2.7V2.7c0-1.5,1.2-2.7,2.7-2.7c1.5,0,2.7,1.2,2.7,2.7V14
	C27.5,15.5,26.3,16.7,24.8,16.7z"/>
<path class="st0" d="M58,16.7c-1.5,0-2.7-1.2-2.7-2.7V2.7C55.3,1.2,56.5,0,58,0c1.5,0,2.7,1.2,2.7,2.7V14
	C60.7,15.5,59.5,16.7,58,16.7z"/>
<path class="st0" d="M71.3,12.6c-1.1-1.5-3.1-2.5-5.3-2.5h-2.7v5.2c0,2.5-2.3,4.6-5.2,4.6c-2.9,0-5.2-2-5.2-4.6v-5.2H30v5.2
	c0,2.5-2.4,4.6-5.3,4.6c-2.8,0-5.1-1.9-5.2-4.3c0,0,0-0.1,0-0.1c0,0,0-0.1,0-0.1v-5.3h-2.7c-2,0-3.9,0.8-5,2.1
	c-0.9,0.9-1.4,2.1-1.4,3.4v45.6c0,3.1,2.9,5.6,6.4,5.6h15.1c-0.5-1-1-2-1.4-3h-3.2V51h2.3c0.1-0.6,0.3-1.1,0.5-1.7h-2.8V36.9h11.8
	c1-0.8,2.1-1.5,3.2-2.1V23.3h13.1v7.6c0.6-0.1,1.3-0.1,1.9-0.1v-7.5h11.6v9.4c1.2,0.4,2.4,0.9,3.5,1.5V15.6
	C72.4,14.5,72,13.4,71.3,12.6z M25.4,63.8h-8.6c-1.6,0-2.9-1.1-2.9-2.5V51h11.5V63.8z M25.4,49.3H13.9V36.9h11.5V49.3z M25.4,35.3
	H13.9v-12h11.5V35.3z M40.4,35.3H27.3v-12h13.1V35.3z"/>
<path class="st0" d="M84.6,53.2c-0.5-1.8-1.2-3.6-2-5.2c-4.6-8.9-13.9-15-24.5-15c-15.2,0-27.6,12.4-27.6,27.6
	c0,14.8,11.7,27,26.4,27.6c0.4,0,0.8,0,1.2,0c1.7,0,3.3-0.1,4.9-0.4c12.9-2.3,22.7-13.6,22.7-27.2C85.6,58.1,85.3,55.6,84.6,53.2z
	 M62.1,83.8c-1.3,0.2-2.7,0.4-4.1,0.4c-13,0-23.5-10.5-23.5-23.5c0-13,10.5-23.5,23.5-23.5c10.8,0,19.8,7.3,22.6,17.2
	c0.6,2,0.9,4.1,0.9,6.3C81.5,72.2,73.1,81.8,62.1,83.8z"/>
<path class="st0" d="M49.1,66.6l-4.3,6.9c0,0,1.8,2.3,6.8,4.1l2.5-6.4l1.7-4.3l1.7-4.7c0,0,0.6-1.5,0.6-1.6l0.1-0.2
	c0,0,0-0.1,0.1-0.1l0,0l0,0c0,0,0,0,0.1,0l0,0l0,0l0.1,0.1l0.2,0.5l0.3,0.9l1.2,3.4l1,3l1.6,4.6l1.2,3.2l0.6,1.8c0,0,4-1,7.3-4.2
	l-2.4-3.4l-1.6-2.5l-1.6-3L65,62.1L64,59.8l-0.9-2.3l-0.8-2.3l-0.9-2.6l-0.9-2.7l-0.8-2.7l-0.9-3l-0.5-1.5l-0.9,2.9l-1.3,4l-1,3
	l-1.2,3.4l-1,2.8l-1.2,2.7l-1.3,2.5L49.1,66.6z"/>
<rect x="19.1" y="25.5" transform="matrix(-0.7071 0.7071 -0.7071 -0.7071 54.4174 36.3733)" class="st0" width="1.2" height="7.9"/>
<rect x="19.1" y="25.5" transform="matrix(0.7071 0.7071 -0.7071 0.7071 26.592 -5.285)" class="st0" width="1.2" height="7.9"/>
</svg>
