<?xml version="1.0" encoding="utf-8"?>
<!-- Generator: Adobe Illustrator 23.0.1, SVG Export Plug-In . SVG Version: 6.00 Build 0)  -->
<svg version="1.1" id="Layer_1" xmlns="http://www.w3.org/2000/svg" xmlns:xlink="http://www.w3.org/1999/xlink" x="0px" y="0px"
	 viewBox="0 0 18 18" style="enable-background:new 0 0 18 18;" xml:space="preserve">
<style type="text/css">
	.st0{fill:#6A9EB2;}
</style>
<path class="st0" d="M18,9l-1.3-2.1l0.1-2.4l-2.1-1.2l-1.2-2.1l-2.4,0.1L9,0L6.9,1.3L4.5,1.2L3.3,3.3L1.2,4.5l0.1,2.4L0,9l1.3,2.1
	l-0.1,2.4l2.1,1.2l1.2,2.1l2.4-0.1L9,18l2.1-1.3l2.4,0.1l1.2-2.1l2.1-1.2l-0.1-2.4L18,9z M12.9,15.8l-2.1-0.1L9,16.8l-1.8-1.1
	l-2.1,0.1l-0.9-1.6l0,0C4.5,13.4,5.2,13,6,13h6c0.8,0,1.5,0.4,1.8,1.1l0,0L12.9,15.8z M15.8,12.9l-1.2,0.6c-0.5-1-1.5-1.5-2.6-1.5H6
	c-1.1,0-2.1,0.6-2.6,1.5l-1.2-0.6l0.1-2.1L1.2,9l1.1-1.8L2.2,5.1l1.9-1l1-1.9l2.1,0.1L9,1.2l1.8,1.1l2.1-0.1l1,1.9l1.9,1l-0.1,2.1
	L16.8,9l-1.1,1.8L15.8,12.9z M9,4C7.1,4,5.5,5.6,5.5,7.5S7.1,11,9,11s3.5-1.6,3.5-3.5S10.9,4,9,4z M9,10c-1.4,0-2.5-1.1-2.5-2.5
	S7.6,5,9,5s2.5,1.1,2.5,2.5C11.5,8.9,10.4,10,9,10z"/>
</svg>
