<?xml version="1.0" encoding="utf-8"?>
<!-- Generator: Adobe Illustrator 23.0.1, SVG Export Plug-In . SVG Version: 6.00 Build 0)  -->
<svg version="1.1" id="Layer_1" xmlns="http://www.w3.org/2000/svg" xmlns:xlink="http://www.w3.org/1999/xlink" x="0px" y="0px"
	 viewBox="0 0 1330 1008" style="enable-background:new 0 0 1330 1008;" xml:space="preserve">
<style type="text/css">
	.st0{fill:#EEEEEE;}
</style>
<g>
	<path class="st0" d="M361.3,598.9v247.6c0,34.1-3.6,61.6-10.8,82.5c-7.2,21-18.3,37.4-33.3,49.1c-15.1,11.8-34.1,19.7-56.9,23.6
		c-22.9,3.9-50,5.9-81.4,5.9s-58.3-1.9-80.5-5.9s-40.6-11.8-55-23.6C29,966.3,18.1,950,11,929C3.8,908,0.2,880.5,0.2,846.4
		c0-39.3,1.9-75.6,5.9-109c3.9-33.4,10.1-65.1,18.7-95.3S45,582.2,60,552.7s33.1-60.6,54-93.3L379,56.6c6.5-10.5,13.7-19,21.6-25.5
		s17.6-12.1,29.4-16.7c11.8-4.6,25.8-8.2,42.2-10.8s36.3-3.9,59.9-3.9c20.9,0,38.2,1,52,3c13.7,2,24.2,5.3,31.4,9.8
		c7.2,4.6,10.8,10.8,10.8,18.7s-2.6,17-7.9,27.5L361.3,598.9z M1064,598.9v247.6c0,34.1-3.6,61.6-10.8,82.5
		c-7.2,21-18.3,37.4-33.3,49.1c-15.1,11.8-34.1,19.7-56.9,23.6s-50,5.9-81.4,5.9c-31.4,0-58.3-1.9-80.5-5.9s-40.6-11.8-55-23.6
		c-14.4-11.8-25.2-28.2-32.4-49.1c-7.2-20.9-10.8-48.5-10.8-82.5c0-39.3,1.9-75.6,5.9-109c3.9-33.4,10.1-65.1,18.7-95.3
		s20.3-59.9,35.3-89.4s33.1-60.6,54-93.3l265-402.8c6.5-10.5,13.7-19,21.6-25.5c7.9-6.5,17.6-12.1,29.4-16.7
		c11.8-4.6,25.8-8.2,42.2-10.8s36.3-3.9,59.9-3.9c20.9,0,38.6,1,53,3c14.4,2,24.9,5.3,31.4,9.8s10.1,10.8,10.8,18.7
		c0.6,7.9-2.3,17-8.8,27.5L1064,598.9z"/>
</g>
</svg>
