<?xml version="1.0" encoding="utf-8"?>
<!-- Generator: Adobe Illustrator 23.0.2, SVG Export Plug-In . SVG Version: 6.00 Build 0)  -->
<!DOCTYPE svg PUBLIC "-//W3C//DTD SVG 1.1//EN" "http://www.w3.org/Graphics/SVG/1.1/DTD/svg11.dtd" [
	<!ENTITY ns_extend "http://ns.adobe.com/Extensibility/1.0/">
	<!ENTITY ns_ai "http://ns.adobe.com/AdobeIllustrator/10.0/">
	<!ENTITY ns_graphs "http://ns.adobe.com/Graphs/1.0/">
	<!ENTITY ns_vars "http://ns.adobe.com/Variables/1.0/">
	<!ENTITY ns_imrep "http://ns.adobe.com/ImageReplacement/1.0/">
	<!ENTITY ns_sfw "http://ns.adobe.com/SaveForWeb/1.0/">
	<!ENTITY ns_custom "http://ns.adobe.com/GenericCustomNamespace/1.0/">
	<!ENTITY ns_adobe_xpath "http://ns.adobe.com/XPath/1.0/">
]>
<svg version="1.1" id="Layer_1" xmlns:x="&ns_extend;" xmlns:i="&ns_ai;" xmlns:graph="&ns_graphs;"
	 xmlns="http://www.w3.org/2000/svg" xmlns:xlink="http://www.w3.org/1999/xlink" x="0px" y="0px" viewBox="0 0 64 82"
	 style="enable-background:new 0 0 64 82;" xml:space="preserve">
<style type="text/css">
	.st0{fill:#126585;}
	.st1{fill-rule:evenodd;clip-rule:evenodd;fill:#126585;}
</style>
<metadata>
	<sfw  xmlns="&ns_sfw;">
		<slices></slices>
		<sliceSourceBounds  bottomLeftOrigin="true" height="82" width="64" x="18" y="34"></sliceSourceBounds>
	</sfw>
</metadata>
<g transform="translate(0,-952.36218)">
	<g>
		<path class="st0" d="M31.7,952.4c-0.1,0-0.3,0.1-0.4,0.1l-30,11c-0.8,0.3-1.3,1-1.3,1.9v33c0,7.8,4.4,14.3,10.3,20
			c5.9,5.7,13.5,10.7,20.5,15.7c0.7,0.5,1.6,0.5,2.3,0c7-5,14.6-10,20.5-15.7c5.9-5.7,10.3-12.2,10.3-20v-33c0-0.8-0.5-1.6-1.3-1.9
			l-30-11C32.4,952.4,32,952.3,31.7,952.4z M32,956.5l28,10.3v31.6c0,6.3-3.5,11.8-9.1,17.1c-5.2,5-12.2,9.7-18.9,14.4
			c-6.7-4.7-13.7-9.4-18.9-14.4c-5.5-5.3-9.1-10.8-9.1-17.1v-31.6L32,956.5z"/>
	</g>
</g>
<g>
	<g>
		<path class="st1" d="M50.3,25.9c0.6,0.6,1.2,1.2,1.8,1.8c0.9,0.9,0.9,2.5,0,3.4C45.6,37.5,39.1,44,32.6,50.5
			c-3.3,3.3-3.5,3.3-6.8,0c-3.3-3.3-6.7-6.7-10-10c-0.9-0.9-0.9-2.5,0-3.4c0.6-0.6,1.2-1.2,1.8-1.8c0.9-0.9,2.5-0.9,3.4,0
			c2.7,2.7,5.4,5.4,8.2,8.2c5.9-5.9,11.7-11.7,17.6-17.6C47.8,25,49.3,25,50.3,25.9z"/>
	</g>
</g>
</svg>
