<?xml version="1.0" encoding="utf-8"?>
<!-- Generator: Adobe Illustrator 23.0.1, SVG Export Plug-In . SVG Version: 6.00 Build 0)  -->
<svg version="1.1" id="Layer_1" xmlns="http://www.w3.org/2000/svg" xmlns:xlink="http://www.w3.org/1999/xlink" x="0px" y="0px"
	 viewBox="0 0 1898 2311" style="enable-background:new 0 0 1898 2311;" xml:space="preserve">
<style type="text/css">
	.st0{fill:#FAFAFA;}
	.st1{fill-rule:evenodd;clip-rule:evenodd;fill:#F2F2F2;}
	.st2{fill:#F2F2F2;}
</style>
<path class="st0" d="M932.4,3C943,0,953,0,965.2,3c0.9,0.5,1.8,1.1,2.7,1.6c5.5,2.5,11.4,4.5,16.5,7.7
	c55.3,34.7,112.5,66.1,171.3,94.4c51.1,24.6,103.7,45.8,157.1,64.9c49.6,17.7,99.8,33.1,151,45.7c38.2,9.5,76.7,17.9,115.5,24.1
	c28.1,4.5,56.2,8.5,84.4,12.2c20,2.6,40.1,4.2,60.1,6.1c9.1,0.8,18.3,1.1,27.5,1.7c10.9,0.7,21.8,1.6,32.7,2.2
	c12,0.7,24.1,1.1,36.1,1.7c7.6,0.4,15.6-0.2,22.9,1.7c24.4,6.3,44.4,18.5,53.2,43.9c0.2,0.5,0.9,0.8,1.4,1.2
	c0,309.1,0,618.2,0,927.3c-0.6,2.1-1.4,4.1-1.6,6.2c-0.6,6.5-0.7,13.1-1.3,19.6c-1.4,15-2.6,30-4.6,44.9c-3.1,23.4-6.1,46.8-10.3,70
	c-6.9,37.5-16.3,74.4-28.1,110.7c-21.9,67.2-51.8,130.6-90.3,189.9c-45,69.4-100,130.2-161.3,185.5c-33.7,30.4-69,58.9-105.3,86.2
	c-55.9,42-113.8,81.2-172.3,119.4c-61.5,40.1-123.4,79.5-184.5,120.1c-49.3,32.7-97.7,66.8-146.4,100.3c-7.8,4.8-12.8,6.8-20.3,10.5
	c-2.4,1.3-4.1,2.2-6.2,3.3c-9.2,6-16.9,7-27.2,1c-1.7-1-3.6-2.2-5-3c-8-4-15.9-7.9-23-12.6c-54.7-36.4-109.1-73.2-164.3-109
	c-60.8-39.5-122.5-77.7-183.4-116.9c-76.1-49-150.5-100.5-220.3-158.3c-37-30.7-72-63.5-105.5-97.9c-19.3-19.8-39.8-38.2-60.6-56.4
	c-9.1-8-17.4-16.6-24.6-26.4c-2.9-4-6.7-7.4-10.2-11c-6.3-6.4-13.3-12.2-18.8-19.3c-22.2-28.8-46.3-56-67.8-85.5
	c-18.2-25-36-50.2-50.2-77.7c-1-1.9-1.7-4.2-4.5-4.2c0-80.2,0-160.5,0-240.7c0-2,0.2-3,0.2-4c0.1-2.4,0-8.1,0-10c0-9,0-18.7,0-27
	c0-12,0-9,0-21c0-2.3,0-3-0.2-9c0-300.8,0-601.5,0-902.3c0.9-0.7,2.3-1.2,2.7-2c1.4-3.6,2.1-7.6,3.8-11.1
	c11.3-22.6,31.1-32.3,55-34.9c11.5-1.2,23.2-1.1,34.7-1.8c18.8-1.1,37.5-2.5,56.3-3.7c12.7-0.9,25.3-1.6,38-2.7
	c38.2-3.2,76.1-8.1,113.9-14.3c57.8-9.5,115-22,171.4-37.9c36.6-10.3,72.8-21.8,108.4-34.9c75.1-27.4,148.2-59.3,218.6-97.5
	c36.2-19.6,72-39.9,106.7-62c4.6-3,9.4-5.4,15-6.2C927.1,5.2,929.7,3.9,932.4,3z"/>
<path class="st0" d="M828.6,1000.1c1.4,0.6,1.6,1.8,1.6,3.1c0.2,6.6,0.4,13.2,0.8,19.7c0.3,4.7,0.9,9.4,1.2,14
	c0.1,1.1-0.1,2.2-0.2,3.6c-1.3,0-2.4,0-3.5,0C828.6,1027,828.6,1013.5,828.6,1000.1z"/>
<g>
	<path class="st1" d="M1810.2,456.6l-85,85l-20.3-20.3c-24-24-61,12.9-37,38.8l38.8,38.8c11.1,9.2,27.7,9.2,37,0l103.5-103.5
		C1873,469.5,1834.2,432.5,1810.2,456.6z"/>
	<path class="st2" d="M1773.2,229.2c66.6,40.7,131.3,57.3,207.1,62.9c16.6,1.8,27.7,14.8,27.7,31.4v203.4
		c0,146-79.5,197.8-175.6,260.7c-5.5,1.8-55.5,35.1-57.3,37c-11.1,7.4-24,7.4-35.1,0c0-1.8-49.9-33.3-55.5-37
		c-96.1-61-177.5-112.8-177.5-260.7V323.4c0-16.6,12.9-29.6,27.7-31.4c77.6-5.5,140.5-22.2,207.1-62.9
		C1752.9,223.6,1764,223.6,1773.2,229.2z M1758.4,256.9c-70.3,42.5-138.7,61-220,66.6v203.4c0,131.3,73.9,177.5,164.5,234.8
		c16.6,11.1,35.1,24,55.5,37c18.5-12.9,37-25.9,55.5-38.8c90.6-55.5,162.7-103.5,162.7-232.9V323.4
		C1897.1,317.9,1828.7,299.4,1758.4,256.9z"/>
</g>
</svg>
