<?xml version="1.0" encoding="utf-8"?>
<!-- Generator: Adobe Illustrator 23.0.1, SVG Export Plug-In . SVG Version: 6.00 Build 0)  -->
<svg version="1.1" id="Layer_1" xmlns="http://www.w3.org/2000/svg" xmlns:xlink="http://www.w3.org/1999/xlink" x="0px" y="0px"
	 viewBox="0 0 66 66" style="enable-background:new 0 0 66 66;" xml:space="preserve">
<style type="text/css">
	.st0{fill:#6CA0B3;}
</style>
<g>
	<g>
		<path class="st0" d="M62.7,0H3.3C1.5,0,0,1.5,0,3.3V49c0,1.8,1.5,3.3,3.3,3.3h22.1l-2.8,5.8h-1.2c-3.8,0-6.9,3.1-6.9,6.9
			c0,0.6,0.4,1,1,1h35l0,0c0.6,0,1-0.4,1-1c0-0.1,0-0.1,0-0.2c-0.1-3.7-3.2-6.7-6.9-6.7h-1.2l-2.8-5.8h22.1c1.8,0,3.3-1.5,3.3-3.3
			V3.3C66,1.5,64.5,0,62.7,0z M3.3,2h59.4C63.4,2,64,2.6,64,3.3v36.5H2V3.3C2,2.6,2.6,2,3.3,2z M49.4,64H16.6
			c0.5-2.2,2.4-3.9,4.8-3.9c7.3,0,14.2,0,23.3,0C47,60.1,49,61.8,49.4,64z M41.2,58.1H24.8l2.8-5.8h10.7L41.2,58.1z M62.7,50.3
			c-5,0-51.1,0-59.4,0C2.6,50.3,2,49.8,2,49v-7.3h62V49C64,49.8,63.4,50.3,62.7,50.3z"/>
	</g>
	<g>
		<path class="st0" d="M33,42.6c-1.8,0-3.3,1.5-3.3,3.3s1.5,3.3,3.3,3.3s3.3-1.5,3.3-3.3S34.8,42.6,33,42.6z M33,47.2
			c-0.7,0-1.3-0.6-1.3-1.3s0.6-1.3,1.3-1.3s1.3,0.6,1.3,1.3C34.3,46.7,33.7,47.2,33,47.2z"/>
	</g>
	<g>
		<path class="st0" d="M7.4,37.1h29.8c0.6,0,1-0.4,1-1V6.3c0-0.6-0.4-1-1-1H7.4c-0.6,0-1,0.4-1,1v29.8C6.4,36.6,6.9,37.1,7.4,37.1z
			 M8.4,7.3h27.8v27.8H8.4V7.3z"/>
	</g>
	<g>
		<path class="st0" d="M31.9,10.5h-19c-0.6,0-1,0.4-1,1s0.4,1,1,1h19c0.6,0,1-0.4,1-1S32.4,10.5,31.9,10.5z"/>
	</g>
	<g>
		<path class="st0" d="M31.9,15.5h-19c-0.6,0-1,0.4-1,1s0.4,1,1,1h19c0.6,0,1-0.4,1-1C32.9,16,32.4,15.5,31.9,15.5z"/>
	</g>
	<g>
		<path class="st0" d="M31.9,20.6h-19c-0.6,0-1,0.4-1,1s0.4,1,1,1h19c0.6,0,1-0.4,1-1S32.4,20.6,31.9,20.6z"/>
	</g>
	<g>
		<path class="st0" d="M31.9,25.6h-19c-0.6,0-1,0.4-1,1s0.4,1,1,1h19c0.6,0,1-0.4,1-1S32.4,25.6,31.9,25.6z"/>
	</g>
	<g>
		<path class="st0" d="M31.9,30.6h-19c-0.6,0-1,0.4-1,1s0.4,1,1,1h19c0.6,0,1-0.4,1-1C32.9,31.1,32.4,30.6,31.9,30.6z"/>
	</g>
	<g>
		<path class="st0" d="M42.9,23.4H58c0.6,0,1-0.4,1-1V7.9c0-0.6-0.4-1-1-1H42.9c-0.6,0-1,0.4-1,1v14.6C41.9,23,42.4,23.4,42.9,23.4z
			 M43.9,8.9H57v12.6H43.9V8.9z"/>
	</g>
	<g>
		<path class="st0" d="M54.2,11.7l-5.4,5.1L47,14.2c-0.3-0.5-0.9-0.6-1.4-0.3s-0.6,0.9-0.3,1.4l2.4,3.7c0.2,0.2,0.4,0.4,0.7,0.4
			s0.6-0.1,0.8-0.3l6.2-5.9c0.4-0.4,0.4-1,0-1.4C55.2,11.4,54.6,11.4,54.2,11.7z"/>
	</g>
	<g>
		<path class="st0" d="M57.6,27.7H43.4c-0.6,0-1,0.4-1,1v7.4c0,0.6,0.4,1,1,1h14.2c0.6,0,1-0.4,1-1v-7.4
			C58.6,28.2,58.2,27.7,57.6,27.7z M56.6,35.1H44.4v-5.4h12.2L56.6,35.1z"/>
	</g>
</g>
</svg>
