<?xml version="1.0" encoding="utf-8"?>
<!-- Generator: Adobe Illustrator 23.0.1, SVG Export Plug-In . SVG Version: 6.00 Build 0)  -->
<svg version="1.1" id="Layer_1" xmlns="http://www.w3.org/2000/svg" xmlns:xlink="http://www.w3.org/1999/xlink" x="0px" y="0px"
	 viewBox="0 0 1000.3 191.6" style="enable-background:new 0 0 1000.3 191.6;" xml:space="preserve">
<style type="text/css">
	.st0{fill:#126585;}
	.st1{fill:#FFFFFF;}
</style>
<g>
	<path class="st0" d="M500.1-0.4C307.8-0.4,132.5,72.2,0,191.6h1000.3C867.8,72.2,692.5-0.4,500.1-0.4z"/>
</g>
<g>
	<g>
		<g>
			<rect x="210.7" y="155.4" class="st1" width="3" height="3"/>
			<rect x="210.7" y="122.6" class="st1" width="3" height="3"/>
			<path class="st1" d="M215.2,142v3h3c0.8,0,1.5-0.7,1.5-1.5V142h1.5v-3h-1.5v-1.5c0-0.8-0.7-1.5-1.5-1.5h-6
				c-0.8,0-1.5,0.7-1.5,1.5v4.5h-3v-3h1.5v-3h-3c-0.8,0-1.5,0.7-1.5,1.5v1.5h-1.5v3h1.5v1.5c0,0.8,0.7,1.5,1.5,1.5h6
				c0.8,0,1.5-0.7,1.5-1.5V139h3v3H215.2z"/>
			<path class="st1" d="M203.7,108.6c1.3,0.4,2.7,0.6,4.1,0.6c1,0,2-0.1,3-0.3c1,0.2,2,0.3,3,0.3c1,0,1.9-0.1,2.9-0.3
				c1,0.2,2,0.3,3.1,0.3c1.4,0,2.8-0.2,4.1-0.6c4-1.2,7.4-4,9.3-7.7c0.5-1.1,0.9-2.2,1.2-3.3v0c1-4.6-0.2-9.4-3.2-12.9
				c-1.6-2-3.7-3.5-6.1-4.4c-2.6-0.9-5.4-1.1-8.1-0.6c-2-0.4-4.1-0.4-6,0c-8-1.7-15.9,3.5-17.6,11.6c-0.2,1-0.3,2-0.3,3
				c0,1.1,0.1,2.2,0.4,3.3c0.3,1.1,0.7,2.3,1.2,3.3C196.3,104.7,199.6,107.5,203.7,108.6z M223.9,83.1c1.9,0.7,3.6,1.9,4.8,3.4
				c2.5,2.9,3.4,6.7,2.6,10.4c-0.2,0.9-0.5,1.8-1,2.6c-1.4,2.9-3.9,5-7,6c1.5-1.3,2.8-2.9,3.7-4.7c0.5-1.1,0.9-2.2,1.2-3.3
				c0.2-1.1,0.4-2.3,0.4-3.4c-0.1-3.5-1.3-6.8-3.5-9.5c-0.5-0.6-1-1.1-1.5-1.6c0,0-0.1-0.1-0.1-0.1C223.6,83,223.7,83.1,223.9,83.1z
				 M217.9,83.1c1.9,0.7,3.6,1.9,4.8,3.4c1.5,1.8,2.5,4,2.8,6.3c0.2,1.4,0.1,2.8-0.2,4.1c-0.2,0.9-0.5,1.8-1,2.6
				c-0.4,0.7-0.8,1.4-1.3,2v0c-0.2,0.3-0.4,0.5-0.7,0.8c0,0-0.1,0.1-0.1,0.1c-0.2,0.2-0.5,0.5-0.7,0.7c0,0-0.1,0.1-0.1,0.1
				c-0.3,0.2-0.5,0.4-0.8,0.6c0,0-0.1,0.1-0.1,0.1c-0.3,0.2-0.6,0.4-0.8,0.5c-0.1,0-0.1,0.1-0.2,0.1c-0.3,0.2-0.6,0.3-0.9,0.4
				c-0.1,0-0.1,0.1-0.2,0.1c-0.3,0.1-0.6,0.2-0.9,0.3l-0.2,0c0.2-0.2,0.4-0.4,0.6-0.5c0.1-0.1,0.3-0.3,0.5-0.4
				c0.2-0.2,0.4-0.5,0.6-0.7c0.1-0.1,0.3-0.3,0.4-0.4c0.2-0.3,0.4-0.6,0.6-0.9c0.1-0.1,0.2-0.3,0.3-0.4c0.3-0.4,0.5-0.9,0.8-1.3
				c0.5-1.1,0.9-2.2,1.2-3.3v0c1-4.6-0.2-9.4-3.2-12.9c-0.5-0.6-1-1.1-1.5-1.6c0,0-0.1-0.1-0.1-0.1C217.7,83,217.8,83.1,217.9,83.1z
				 M200.3,85c2.1-1.7,4.8-2.6,7.5-2.6c0.9,0,1.8,0.1,2.7,0.3c0.5,0.1,1,0.3,1.6,0.4c1.9,0.7,3.6,1.9,4.8,3.4
				c2.5,2.9,3.4,6.7,2.6,10.4c-0.1,0.3-0.2,0.6-0.3,0.9c0,0.1-0.1,0.3-0.1,0.4c-0.2,0.5-0.4,0.9-0.6,1.3c-1.5,3-4.2,5.2-7.4,6.2
				l-0.6,0.2c-2,0.4-4,0.4-5.9-0.1c-3.2-0.9-5.9-3.2-7.4-6.2c-0.4-0.8-0.7-1.7-1-2.7c-0.2-0.9-0.3-1.8-0.3-2.7
				C195.8,90.7,197.4,87.3,200.3,85z"/>
			<path class="st1" d="M204.8,101.8h1.5v1.5h3v-1.5h1.5c0.8,0,1.5-0.7,1.5-1.5v-6c0-0.8-0.7-1.5-1.5-1.5h-4.5v-3h3v1.5h3v-3
				c0-0.8-0.7-1.5-1.5-1.5h-1.5v-1.5h-3v1.5h-1.5c-0.8,0-1.5,0.7-1.5,1.5v6c0,0.8,0.7,1.5,1.5,1.5h4.5v3h-3v-1.5h-3v3
				C203.3,101.1,203.9,101.8,204.8,101.8z"/>
			<path class="st1" d="M234.6,112.2h-38.7c-0.8,0-1.5,0.7-1.5,1.5v53.6c0,0.8,0.7,1.5,1.5,1.5h38.7c0.8,0,1.5-0.7,1.5-1.5v-53.6
				C236,112.9,235.4,112.2,234.6,112.2z M227.1,131.6h-3v3h3v11.9h-3v3h3v16.4h-29.8v-16.4h3v-3h-3v-11.9h3v-3h-3v-16.4h29.8V131.6z
				 M233.1,165.8h-3v-16.4h3V165.8z M233.1,146.5h-3v-11.9h3V146.5z M233.1,131.6h-3v-16.4h3V131.6z"/>
			<rect x="215.2" y="92.8" class="st1" width="3" height="3"/>
			<rect x="197.3" y="92.8" class="st1" width="3" height="3"/>
		</g>
		<g transform="translate(0,-952.36218)">
			<path class="st1" d="M244.7,1031.8c-3.2,0-5.7,2.4-5.7,5.4v79.5c0,3,2.5,5.4,5.7,5.4h57.1c3.2,0,5.7-2.4,5.7-5.4v-79.5
				c0-3-2.5-5.4-5.7-5.4H244.7z M249.3,1041.4h48v16.1h-48V1041.4z M249.3,1067.2h9.1v8.6h-9.1V1067.2z M268.7,1067.2h9.1v8.6h-9.1
				V1067.2z M288.1,1067.2h9.1v8.6h-9.1V1067.2z M249.3,1085.5h9.1v8.6h-9.1V1085.5z M268.7,1085.5h9.1v8.6h-9.1V1085.5z
				 M288.1,1085.5h9.1v26.9h-9.1V1085.5z M249.3,1103.8h9.1v8.6h-9.1V1103.8z M268.7,1103.8h9.1v8.6h-9.1V1103.8z"/>
		</g>
	</g>
	<g>
		<path class="st1" d="M355.6,132c0,0.4,0,0.8,0,1.1c0,0.3-0.1,0.6-0.1,0.8c-0.1,0.2-0.1,0.4-0.2,0.6c-0.1,0.2-0.2,0.3-0.4,0.5
			c-0.2,0.2-0.6,0.5-1.1,0.8c-0.6,0.3-1.2,0.6-2,0.9c-0.8,0.3-1.7,0.5-2.8,0.7c-1,0.2-2.2,0.3-3.4,0.3c-2.4,0-4.5-0.4-6.4-1.1
			c-1.9-0.7-3.5-1.8-4.8-3.2c-1.3-1.4-2.3-3.2-3-5.4c-0.7-2.2-1.1-4.7-1.1-7.5c0-2.9,0.4-5.5,1.2-7.8c0.8-2.3,1.9-4.2,3.3-5.7
			c1.4-1.5,3.1-2.7,5-3.5c2-0.8,4.1-1.2,6.5-1.2c1,0,1.9,0.1,2.8,0.2c0.9,0.2,1.7,0.4,2.5,0.6c0.8,0.3,1.4,0.6,2,0.9
			c0.6,0.3,1,0.6,1.3,0.9c0.2,0.2,0.4,0.4,0.5,0.6s0.2,0.4,0.2,0.6c0.1,0.2,0.1,0.5,0.1,0.9c0,0.3,0,0.8,0,1.2c0,0.5,0,1-0.1,1.4
			c0,0.4-0.1,0.7-0.2,0.9s-0.2,0.4-0.3,0.5c-0.1,0.1-0.3,0.2-0.4,0.2c-0.3,0-0.6-0.2-1-0.5c-0.4-0.3-0.9-0.7-1.6-1
			c-0.6-0.4-1.4-0.7-2.3-1c-0.9-0.3-2-0.5-3.2-0.5c-1.4,0-2.6,0.3-3.6,0.8c-1.1,0.6-2,1.4-2.7,2.4c-0.8,1-1.3,2.3-1.7,3.8
			c-0.4,1.5-0.6,3.1-0.6,5c0,2,0.2,3.8,0.6,5.2c0.4,1.5,1,2.7,1.8,3.6c0.8,1,1.7,1.7,2.8,2.1c1.1,0.5,2.3,0.7,3.7,0.7
			c1.2,0,2.3-0.1,3.2-0.4c0.9-0.3,1.7-0.6,2.3-1c0.6-0.4,1.2-0.7,1.6-1c0.4-0.3,0.7-0.4,1-0.4c0.2,0,0.3,0,0.4,0.1s0.2,0.2,0.3,0.4
			c0.1,0.2,0.1,0.5,0.2,0.9C355.6,130.9,355.6,131.4,355.6,132z"/>
		<path class="st1" d="M380.4,136.4c0,0.2-0.1,0.4-0.3,0.6c-0.2,0.1-0.5,0.2-0.8,0.3c-0.4,0.1-0.9,0.1-1.7,0.1c-0.8,0-1.4,0-1.7-0.1
			c-0.4-0.1-0.6-0.2-0.8-0.3c-0.2-0.1-0.2-0.3-0.2-0.6v-1.9c-1,1-2.1,1.9-3.3,2.4c-1.2,0.6-2.6,0.9-4.1,0.9c-1.3,0-2.4-0.2-3.5-0.5
			c-1.1-0.3-2-0.8-2.7-1.5c-0.8-0.6-1.4-1.4-1.8-2.4c-0.4-1-0.6-2.1-0.6-3.3c0-1.4,0.3-2.6,0.8-3.6c0.5-1,1.3-1.9,2.4-2.5
			c1.1-0.7,2.4-1.2,4-1.5c1.6-0.3,3.4-0.5,5.5-0.5h2.3v-1.4c0-0.7-0.1-1.4-0.2-1.9c-0.2-0.6-0.4-1-0.7-1.4c-0.3-0.4-0.8-0.6-1.4-0.8
			c-0.6-0.2-1.3-0.3-2.1-0.3c-1.1,0-2.1,0.1-3,0.4c-0.9,0.2-1.6,0.5-2.3,0.8c-0.7,0.3-1.2,0.6-1.7,0.8c-0.5,0.2-0.8,0.4-1.1,0.4
			c-0.2,0-0.4-0.1-0.5-0.2c-0.2-0.1-0.3-0.3-0.4-0.5c-0.1-0.2-0.2-0.5-0.2-0.8c-0.1-0.3-0.1-0.7-0.1-1.1c0-0.5,0-1,0.1-1.3
			c0.1-0.3,0.3-0.6,0.5-0.9s0.7-0.5,1.3-0.8c0.6-0.3,1.3-0.6,2.2-0.9c0.8-0.3,1.7-0.5,2.7-0.6c1-0.2,2-0.3,3-0.3
			c1.9,0,3.4,0.2,4.8,0.5c1.3,0.4,2.4,0.9,3.2,1.7c0.8,0.8,1.5,1.7,1.9,2.9c0.4,1.2,0.6,2.6,0.6,4.2V136.4z M373.8,126.3h-2.5
			c-1.1,0-2,0.1-2.8,0.2c-0.8,0.2-1.4,0.4-1.9,0.7s-0.8,0.7-1,1.2c-0.2,0.4-0.3,1-0.3,1.6c0,1,0.3,1.8,0.9,2.3
			c0.6,0.6,1.5,0.8,2.6,0.8c0.9,0,1.8-0.2,2.6-0.7c0.8-0.5,1.6-1.2,2.4-2.1V126.3z"/>
		<path class="st1" d="M393.7,136.3c0,0.2-0.1,0.3-0.2,0.5c-0.1,0.1-0.3,0.2-0.5,0.3c-0.3,0.1-0.6,0.2-1,0.2c-0.4,0-1,0.1-1.6,0.1
			s-1.2,0-1.6-0.1s-0.8-0.1-1-0.2c-0.3-0.1-0.4-0.2-0.5-0.3c-0.1-0.1-0.2-0.3-0.2-0.5v-34.9c0-0.2,0.1-0.3,0.2-0.5
			c0.1-0.1,0.3-0.3,0.5-0.4c0.3-0.1,0.6-0.2,1-0.2c0.4-0.1,1-0.1,1.6-0.1s1.2,0,1.6,0.1c0.4,0.1,0.8,0.1,1,0.2
			c0.3,0.1,0.4,0.2,0.5,0.4c0.1,0.1,0.2,0.3,0.2,0.5V136.3z"/>
		<path class="st1" d="M418.3,132.5c0,0.5,0,0.8,0,1.2c0,0.3-0.1,0.6-0.1,0.8c0,0.2-0.1,0.4-0.2,0.5c-0.1,0.1-0.2,0.3-0.4,0.5
			c-0.2,0.2-0.6,0.4-1.1,0.7c-0.5,0.3-1.1,0.6-1.7,0.8c-0.7,0.2-1.4,0.4-2.1,0.6c-0.8,0.1-1.6,0.2-2.4,0.2c-1.8,0-3.4-0.3-4.8-0.8
			c-1.4-0.6-2.6-1.4-3.5-2.5c-1-1.1-1.7-2.5-2.2-4s-0.7-3.4-0.7-5.5c0-2.4,0.3-4.4,0.9-6.1c0.6-1.7,1.4-3.1,2.5-4.3
			c1.1-1.1,2.3-2,3.8-2.5c1.4-0.5,3-0.8,4.8-0.8c0.7,0,1.4,0.1,2.1,0.2c0.7,0.1,1.3,0.3,1.9,0.5c0.6,0.2,1.1,0.5,1.6,0.7
			c0.5,0.3,0.8,0.5,1,0.7c0.2,0.2,0.3,0.4,0.4,0.5s0.1,0.3,0.2,0.5c0,0.2,0.1,0.5,0.1,0.8c0,0.3,0,0.7,0,1.1c0,1-0.1,1.7-0.3,2.2
			c-0.2,0.4-0.4,0.6-0.7,0.6c-0.3,0-0.6-0.1-1-0.4c-0.3-0.2-0.7-0.5-1.2-0.8c-0.5-0.3-1-0.6-1.6-0.8c-0.6-0.2-1.4-0.4-2.3-0.4
			c-1.7,0-3.1,0.7-4,2c-0.9,1.3-1.4,3.3-1.4,5.9c0,1.3,0.1,2.4,0.3,3.4c0.2,1,0.6,1.8,1,2.4c0.5,0.7,1,1.1,1.7,1.5
			c0.7,0.3,1.5,0.5,2.4,0.5c0.9,0,1.7-0.1,2.4-0.4c0.7-0.3,1.2-0.6,1.7-0.9c0.5-0.3,0.9-0.6,1.2-0.9c0.3-0.3,0.6-0.4,0.8-0.4
			c0.2,0,0.3,0,0.4,0.1c0.1,0.1,0.2,0.3,0.3,0.5c0.1,0.2,0.1,0.5,0.1,0.9C418.2,131.5,418.3,132,418.3,132.5z"/>
		<path class="st1" d="M445.5,136.3c0,0.2,0,0.3-0.1,0.5c-0.1,0.1-0.2,0.2-0.5,0.3c-0.2,0.1-0.5,0.2-0.9,0.2c-0.4,0-0.8,0.1-1.4,0.1
			c-0.6,0-1.1,0-1.4-0.1c-0.4,0-0.6-0.1-0.9-0.2c-0.2-0.1-0.4-0.2-0.5-0.3c-0.1-0.1-0.1-0.3-0.1-0.5v-2.7c-1.3,1.4-2.6,2.5-4,3.2
			c-1.4,0.7-2.8,1.1-4.2,1.1c-1.6,0-3-0.3-4.1-0.8c-1.1-0.5-2-1.3-2.7-2.2c-0.7-0.9-1.2-2-1.5-3.2c-0.3-1.2-0.4-2.7-0.4-4.5v-14.5
			c0-0.2,0-0.3,0.1-0.5c0.1-0.1,0.3-0.2,0.5-0.3c0.3-0.1,0.6-0.2,1-0.2c0.4,0,1-0.1,1.6-0.1c0.7,0,1.2,0,1.6,0.1
			c0.4,0,0.8,0.1,1,0.2c0.3,0.1,0.4,0.2,0.5,0.3s0.2,0.3,0.2,0.5V126c0,1.2,0.1,2.2,0.2,2.8c0.2,0.7,0.4,1.2,0.7,1.7
			c0.3,0.5,0.7,0.8,1.2,1.1c0.5,0.3,1.1,0.4,1.8,0.4c0.8,0,1.7-0.3,2.6-0.9c0.9-0.6,1.8-1.5,2.7-2.7v-15.7c0-0.2,0-0.3,0.1-0.5
			c0.1-0.1,0.3-0.2,0.5-0.3c0.3-0.1,0.6-0.2,1-0.2c0.4,0,1-0.1,1.6-0.1c0.7,0,1.2,0,1.6,0.1c0.4,0,0.8,0.1,1,0.2
			c0.2,0.1,0.4,0.2,0.5,0.3c0.1,0.1,0.2,0.3,0.2,0.5V136.3z"/>
		<path class="st1" d="M458.9,136.3c0,0.2-0.1,0.3-0.2,0.5c-0.1,0.1-0.3,0.2-0.5,0.3c-0.3,0.1-0.6,0.2-1,0.2c-0.4,0-1,0.1-1.6,0.1
			c-0.7,0-1.2,0-1.6-0.1c-0.4,0-0.8-0.1-1-0.2c-0.3-0.1-0.4-0.2-0.5-0.3c-0.1-0.1-0.2-0.3-0.2-0.5v-34.9c0-0.2,0.1-0.3,0.2-0.5
			c0.1-0.1,0.3-0.3,0.5-0.4c0.3-0.1,0.6-0.2,1-0.2c0.4-0.1,1-0.1,1.6-0.1c0.7,0,1.2,0,1.6,0.1c0.4,0.1,0.8,0.1,1,0.2
			c0.3,0.1,0.4,0.2,0.5,0.4c0.1,0.1,0.2,0.3,0.2,0.5V136.3z"/>
		<path class="st1" d="M485.7,136.4c0,0.2-0.1,0.4-0.3,0.6c-0.2,0.1-0.5,0.2-0.8,0.3c-0.4,0.1-0.9,0.1-1.7,0.1c-0.8,0-1.4,0-1.7-0.1
			c-0.4-0.1-0.6-0.2-0.8-0.3c-0.2-0.1-0.2-0.3-0.2-0.6v-1.9c-1,1-2.1,1.9-3.3,2.4c-1.2,0.6-2.6,0.9-4.1,0.9c-1.3,0-2.4-0.2-3.5-0.5
			c-1.1-0.3-2-0.8-2.7-1.5c-0.8-0.6-1.4-1.4-1.8-2.4c-0.4-1-0.6-2.1-0.6-3.3c0-1.4,0.3-2.6,0.8-3.6c0.5-1,1.3-1.9,2.4-2.5
			c1.1-0.7,2.4-1.2,4-1.5c1.6-0.3,3.4-0.5,5.5-0.5h2.3v-1.4c0-0.7-0.1-1.4-0.2-1.9c-0.2-0.6-0.4-1-0.7-1.4c-0.3-0.4-0.8-0.6-1.4-0.8
			c-0.6-0.2-1.3-0.3-2.1-0.3c-1.1,0-2.1,0.1-3,0.4c-0.9,0.2-1.6,0.5-2.3,0.8c-0.7,0.3-1.2,0.6-1.7,0.8c-0.5,0.2-0.8,0.4-1.1,0.4
			c-0.2,0-0.4-0.1-0.5-0.2c-0.2-0.1-0.3-0.3-0.4-0.5c-0.1-0.2-0.2-0.5-0.2-0.8c-0.1-0.3-0.1-0.7-0.1-1.1c0-0.5,0-1,0.1-1.3
			s0.3-0.6,0.5-0.9s0.7-0.5,1.3-0.8c0.6-0.3,1.3-0.6,2.2-0.9c0.8-0.3,1.7-0.5,2.7-0.6c1-0.2,2-0.3,3-0.3c1.9,0,3.4,0.2,4.8,0.5
			c1.3,0.4,2.4,0.9,3.2,1.7c0.8,0.8,1.5,1.7,1.9,2.9c0.4,1.2,0.6,2.6,0.6,4.2V136.4z M479.1,126.3h-2.5c-1.1,0-2,0.1-2.8,0.2
			c-0.8,0.2-1.4,0.4-1.9,0.7s-0.8,0.7-1,1.2c-0.2,0.4-0.3,1-0.3,1.6c0,1,0.3,1.8,0.9,2.3c0.6,0.6,1.5,0.8,2.6,0.8
			c0.9,0,1.8-0.2,2.6-0.7c0.8-0.5,1.6-1.2,2.4-2.1V126.3z"/>
		<path class="st1" d="M505.8,134c0,0.8,0,1.4-0.1,1.8c-0.1,0.4-0.2,0.7-0.4,0.9c-0.2,0.2-0.4,0.3-0.7,0.4c-0.3,0.1-0.7,0.2-1.1,0.3
			c-0.4,0.1-0.9,0.2-1.4,0.2c-0.5,0.1-1,0.1-1.5,0.1c-1.3,0-2.5-0.2-3.4-0.5c-1-0.3-1.8-0.9-2.4-1.6c-0.6-0.7-1.1-1.6-1.4-2.6
			c-0.3-1.1-0.5-2.3-0.5-3.8v-12.1h-2.8c-0.3,0-0.6-0.2-0.8-0.6c-0.2-0.4-0.3-1.1-0.3-2.1c0-0.5,0-0.9,0.1-1.3
			c0-0.4,0.1-0.6,0.2-0.8s0.2-0.3,0.3-0.4c0.1-0.1,0.3-0.1,0.5-0.1h2.8v-5.3c0-0.2,0-0.3,0.1-0.5c0.1-0.1,0.3-0.3,0.5-0.4
			c0.3-0.1,0.6-0.2,1-0.2c0.4,0,1-0.1,1.6-0.1c0.7,0,1.2,0,1.6,0.1c0.4,0,0.8,0.1,1,0.2c0.2,0.1,0.4,0.2,0.5,0.4
			c0.1,0.1,0.2,0.3,0.2,0.5v5.3h5.1c0.2,0,0.3,0,0.5,0.1c0.1,0.1,0.2,0.2,0.3,0.4s0.2,0.5,0.2,0.8c0,0.4,0.1,0.8,0.1,1.3
			c0,1-0.1,1.7-0.3,2.1c-0.2,0.4-0.4,0.6-0.8,0.6h-5.2v11.1c0,1.3,0.2,2.3,0.6,2.9c0.4,0.6,1.1,1,2.2,1c0.4,0,0.7,0,1-0.1
			c0.3-0.1,0.5-0.1,0.8-0.2c0.2-0.1,0.4-0.2,0.6-0.2c0.1-0.1,0.3-0.1,0.4-0.1c0.1,0,0.2,0,0.3,0.1c0.1,0.1,0.2,0.2,0.2,0.4
			c0.1,0.2,0.1,0.4,0.1,0.8C505.8,133.1,505.8,133.5,505.8,134z"/>
		<path class="st1" d="M531.8,123.8c0,0.8-0.2,1.4-0.5,1.8c-0.4,0.4-0.9,0.6-1.5,0.6h-14.4c0,1,0.1,1.9,0.4,2.7
			c0.2,0.8,0.6,1.5,1.1,2.1c0.5,0.6,1.2,1,2,1.3c0.8,0.3,1.8,0.5,3,0.5c1.2,0,2.2-0.1,3.1-0.3c0.9-0.2,1.6-0.4,2.3-0.6
			c0.6-0.2,1.2-0.4,1.6-0.6c0.4-0.2,0.8-0.3,1-0.3c0.2,0,0.3,0,0.4,0.1c0.1,0.1,0.2,0.2,0.3,0.3c0.1,0.2,0.1,0.4,0.1,0.7
			c0,0.3,0,0.7,0,1.1c0,0.4,0,0.7,0,1c0,0.3,0,0.5-0.1,0.7c0,0.2-0.1,0.4-0.2,0.5c-0.1,0.1-0.2,0.3-0.3,0.4
			c-0.1,0.1-0.4,0.3-0.9,0.5c-0.5,0.2-1.2,0.4-2,0.6c-0.8,0.2-1.7,0.4-2.7,0.5c-1,0.1-2.1,0.2-3.3,0.2c-2.1,0-3.9-0.3-5.5-0.8
			c-1.6-0.5-2.9-1.3-4-2.4c-1.1-1.1-1.9-2.4-2.4-4.1c-0.5-1.6-0.8-3.6-0.8-5.8c0-2.1,0.3-4,0.8-5.7c0.5-1.7,1.3-3.1,2.4-4.3
			s2.3-2.1,3.8-2.7c1.5-0.6,3.2-0.9,5.1-0.9c2,0,3.7,0.3,5.1,0.9c1.4,0.6,2.6,1.4,3.5,2.4c0.9,1,1.6,2.3,2,3.7
			c0.4,1.4,0.6,3,0.6,4.6V123.8z M525.4,121.9c0.1-1.9-0.3-3.3-1.1-4.4c-0.8-1.1-2-1.6-3.7-1.6c-0.8,0-1.6,0.2-2.2,0.5
			c-0.6,0.3-1.1,0.7-1.6,1.3c-0.4,0.5-0.7,1.2-1,1.9c-0.2,0.7-0.3,1.5-0.4,2.3H525.4z"/>
		<path class="st1" d="M563.9,124.2v12.1c0,0.2-0.1,0.3-0.2,0.5c-0.1,0.1-0.3,0.3-0.6,0.3c-0.3,0.1-0.6,0.2-1.1,0.2
			c-0.5,0.1-1,0.1-1.7,0.1c-0.7,0-1.3,0-1.7-0.1c-0.4-0.1-0.8-0.1-1.1-0.2c-0.3-0.1-0.5-0.2-0.6-0.3c-0.1-0.1-0.2-0.3-0.2-0.5v-12.1
			l-9.4-18.7c-0.3-0.7-0.6-1.2-0.7-1.5c-0.1-0.4,0-0.6,0.2-0.8c0.2-0.2,0.6-0.3,1.1-0.3c0.5,0,1.3-0.1,2.3-0.1c0.8,0,1.5,0,1.9,0.1
			c0.5,0,0.9,0.1,1.2,0.2c0.3,0.1,0.5,0.2,0.6,0.4s0.3,0.4,0.4,0.6l3.8,8.4c0.4,0.8,0.7,1.7,1.1,2.6c0.4,0.9,0.7,1.8,1.1,2.8h0.1
			c0.3-1,0.7-1.9,1-2.8c0.4-0.9,0.7-1.8,1-2.6l3.8-8.4c0.1-0.3,0.2-0.5,0.3-0.7c0.1-0.2,0.3-0.3,0.6-0.4c0.3-0.1,0.6-0.2,1.1-0.2
			c0.5,0,1.1-0.1,1.8-0.1c1,0,1.8,0,2.3,0.1c0.6,0,0.9,0.2,1.1,0.3c0.2,0.2,0.3,0.5,0.1,0.8c-0.1,0.4-0.3,0.9-0.6,1.5L563.9,124.2z"
			/>
		<path class="st1" d="M597.3,124.3c0,2-0.3,3.9-0.8,5.5c-0.5,1.7-1.3,3.1-2.4,4.3c-1.1,1.2-2.4,2.1-4.1,2.8c-1.6,0.7-3.5,1-5.7,1
			c-2.1,0-3.9-0.3-5.5-0.9c-1.6-0.6-2.8-1.4-3.9-2.5c-1-1.1-1.8-2.5-2.3-4.1c-0.5-1.6-0.7-3.5-0.7-5.6c0-2,0.3-3.9,0.8-5.5
			c0.5-1.7,1.3-3.1,2.4-4.3c1.1-1.2,2.4-2.1,4-2.8c1.6-0.7,3.5-1,5.7-1c2.1,0,4,0.3,5.5,0.9c1.6,0.6,2.8,1.4,3.9,2.5
			c1,1.1,1.8,2.5,2.3,4.1C597.1,120.3,597.3,122.1,597.3,124.3z M590.5,124.5c0-1.2-0.1-2.2-0.3-3.2c-0.2-1-0.5-1.8-0.9-2.6
			c-0.4-0.7-1-1.3-1.8-1.7c-0.7-0.4-1.7-0.6-2.8-0.6c-1,0-1.9,0.2-2.6,0.5c-0.7,0.4-1.4,0.9-1.8,1.6c-0.5,0.7-0.8,1.5-1.1,2.5
			c-0.2,1-0.4,2.1-0.4,3.4c0,1.2,0.1,2.2,0.3,3.2c0.2,1,0.5,1.8,0.9,2.6c0.4,0.7,1,1.3,1.8,1.7c0.7,0.4,1.7,0.6,2.8,0.6
			c1,0,1.9-0.2,2.6-0.5c0.7-0.4,1.4-0.9,1.8-1.6c0.5-0.7,0.8-1.5,1.1-2.5C590.4,126.9,590.5,125.8,590.5,124.5z"/>
		<path class="st1" d="M625,136.3c0,0.2,0,0.3-0.1,0.5c-0.1,0.1-0.2,0.2-0.5,0.3c-0.2,0.1-0.5,0.2-0.9,0.2c-0.4,0-0.8,0.1-1.4,0.1
			c-0.6,0-1.1,0-1.4-0.1c-0.4,0-0.6-0.1-0.9-0.2c-0.2-0.1-0.4-0.2-0.5-0.3c-0.1-0.1-0.1-0.3-0.1-0.5v-2.7c-1.3,1.4-2.6,2.5-4,3.2
			c-1.4,0.7-2.8,1.1-4.2,1.1c-1.6,0-3-0.3-4.1-0.8c-1.1-0.5-2-1.3-2.7-2.2c-0.7-0.9-1.2-2-1.5-3.2c-0.3-1.2-0.4-2.7-0.4-4.5v-14.5
			c0-0.2,0-0.3,0.1-0.5s0.3-0.2,0.5-0.3c0.3-0.1,0.6-0.2,1-0.2c0.4,0,1-0.1,1.6-0.1c0.7,0,1.2,0,1.6,0.1c0.4,0,0.8,0.1,1,0.2
			c0.3,0.1,0.4,0.2,0.5,0.3c0.1,0.1,0.2,0.3,0.2,0.5V126c0,1.2,0.1,2.2,0.2,2.8c0.2,0.7,0.4,1.2,0.7,1.7c0.3,0.5,0.7,0.8,1.2,1.1
			c0.5,0.3,1.1,0.4,1.8,0.4c0.8,0,1.7-0.3,2.6-0.9c0.9-0.6,1.8-1.5,2.7-2.7v-15.7c0-0.2,0-0.3,0.1-0.5s0.3-0.2,0.5-0.3
			c0.3-0.1,0.6-0.2,1-0.2c0.4,0,1-0.1,1.6-0.1s1.2,0,1.6,0.1c0.4,0,0.8,0.1,1,0.2c0.2,0.1,0.4,0.2,0.5,0.3c0.1,0.1,0.2,0.3,0.2,0.5
			V136.3z"/>
		<path class="st1" d="M646.9,114.9c0,0.6,0,1.2-0.1,1.6c0,0.4-0.1,0.7-0.2,1c-0.1,0.2-0.2,0.4-0.3,0.5c-0.1,0.1-0.3,0.1-0.4,0.1
			c-0.1,0-0.3,0-0.5-0.1c-0.2-0.1-0.4-0.1-0.6-0.2c-0.2-0.1-0.5-0.1-0.7-0.2c-0.3-0.1-0.6-0.1-0.9-0.1c-0.4,0-0.7,0.1-1.1,0.2
			c-0.4,0.2-0.8,0.4-1.2,0.7c-0.4,0.3-0.8,0.7-1.2,1.3c-0.4,0.5-0.9,1.2-1.4,2v14.7c0,0.2-0.1,0.3-0.2,0.5c-0.1,0.1-0.3,0.2-0.5,0.3
			c-0.3,0.1-0.6,0.2-1,0.2c-0.4,0-1,0.1-1.6,0.1s-1.2,0-1.6-0.1c-0.4,0-0.8-0.1-1-0.2c-0.3-0.1-0.4-0.2-0.5-0.3
			c-0.1-0.1-0.2-0.3-0.2-0.5v-23.6c0-0.2,0-0.3,0.1-0.5c0.1-0.1,0.2-0.2,0.5-0.3c0.2-0.1,0.5-0.2,0.9-0.2c0.4,0,0.8-0.1,1.4-0.1
			c0.6,0,1,0,1.4,0.1c0.4,0,0.7,0.1,0.9,0.2c0.2,0.1,0.3,0.2,0.4,0.3s0.1,0.3,0.1,0.5v2.9c0.6-0.9,1.2-1.6,1.7-2.2
			c0.5-0.6,1.1-1,1.6-1.4c0.5-0.3,1-0.6,1.5-0.7c0.5-0.1,1-0.2,1.5-0.2c0.2,0,0.5,0,0.7,0c0.3,0,0.5,0.1,0.8,0.1s0.5,0.1,0.7,0.2
			c0.2,0.1,0.4,0.2,0.5,0.3c0.1,0.1,0.2,0.2,0.2,0.3c0,0.1,0.1,0.3,0.1,0.4c0,0.2,0.1,0.5,0.1,0.8
			C646.9,113.7,646.9,114.2,646.9,114.9z"/>
		<path class="st1" d="M670.7,136.3c0,0.2-0.1,0.3-0.2,0.5c-0.1,0.1-0.3,0.3-0.6,0.3c-0.3,0.1-0.6,0.2-1.1,0.2
			c-0.4,0.1-1,0.1-1.7,0.1c-0.7,0-1.2,0-1.7-0.1c-0.5-0.1-0.8-0.1-1.1-0.2c-0.3-0.1-0.5-0.2-0.6-0.3c-0.1-0.1-0.2-0.3-0.2-0.5v-32.4
			c0-0.2,0.1-0.3,0.2-0.5c0.1-0.1,0.3-0.3,0.6-0.3c0.3-0.1,0.6-0.2,1.1-0.2c0.4-0.1,1-0.1,1.7-0.1c0.7,0,1.3,0,1.7,0.1
			c0.4,0.1,0.8,0.1,1.1,0.2c0.3,0.1,0.5,0.2,0.6,0.3c0.1,0.1,0.2,0.3,0.2,0.5V136.3z"/>
		<path class="st1" d="M700.4,136.3c0,0.2-0.1,0.3-0.2,0.5c-0.1,0.1-0.3,0.2-0.5,0.3c-0.2,0.1-0.6,0.2-1,0.2c-0.4,0-1,0.1-1.6,0.1
			c-0.7,0-1.2,0-1.6-0.1c-0.4,0-0.8-0.1-1-0.2c-0.2-0.1-0.4-0.2-0.5-0.3c-0.1-0.1-0.2-0.3-0.2-0.5v-13.5c0-1.1-0.1-2-0.3-2.7
			c-0.2-0.7-0.4-1.2-0.7-1.7c-0.3-0.5-0.7-0.8-1.2-1.1c-0.5-0.3-1.1-0.4-1.8-0.4c-0.8,0-1.7,0.3-2.6,0.9c-0.9,0.6-1.8,1.5-2.7,2.7
			v15.7c0,0.2-0.1,0.3-0.2,0.5c-0.1,0.1-0.3,0.2-0.5,0.3c-0.3,0.1-0.6,0.2-1,0.2c-0.4,0-1,0.1-1.6,0.1c-0.7,0-1.2,0-1.6-0.1
			c-0.4,0-0.8-0.1-1-0.2c-0.3-0.1-0.4-0.2-0.5-0.3c-0.1-0.1-0.2-0.3-0.2-0.5v-23.6c0-0.2,0-0.3,0.1-0.5s0.2-0.2,0.5-0.3
			c0.2-0.1,0.5-0.2,0.9-0.2c0.4,0,0.8-0.1,1.4-0.1c0.6,0,1,0,1.4,0.1c0.4,0,0.7,0.1,0.9,0.2c0.2,0.1,0.3,0.2,0.4,0.3
			s0.1,0.3,0.1,0.5v2.7c1.3-1.4,2.6-2.5,4-3.2c1.4-0.7,2.8-1.1,4.2-1.1c1.6,0,3,0.3,4.1,0.8c1.1,0.5,2,1.3,2.7,2.2
			c0.7,0.9,1.2,2,1.5,3.2c0.3,1.2,0.5,2.7,0.5,4.4V136.3z"/>
		<path class="st1" d="M724.8,132.5c0,0.5,0,0.8,0,1.2c0,0.3-0.1,0.6-0.1,0.8c0,0.2-0.1,0.4-0.2,0.5c-0.1,0.1-0.2,0.3-0.4,0.5
			c-0.2,0.2-0.6,0.4-1.1,0.7c-0.5,0.3-1.1,0.6-1.8,0.8c-0.7,0.2-1.4,0.4-2.1,0.6c-0.8,0.1-1.6,0.2-2.4,0.2c-1.8,0-3.4-0.3-4.8-0.8
			c-1.4-0.6-2.6-1.4-3.5-2.5c-1-1.1-1.7-2.5-2.2-4c-0.5-1.6-0.7-3.4-0.7-5.5c0-2.4,0.3-4.4,0.9-6.1c0.6-1.7,1.4-3.1,2.5-4.3
			s2.3-2,3.8-2.5c1.4-0.5,3-0.8,4.8-0.8c0.7,0,1.4,0.1,2.1,0.2c0.7,0.1,1.3,0.3,1.9,0.5c0.6,0.2,1.1,0.5,1.6,0.7
			c0.5,0.3,0.8,0.5,1,0.7s0.3,0.4,0.4,0.5c0.1,0.1,0.1,0.3,0.2,0.5c0,0.2,0.1,0.5,0.1,0.8c0,0.3,0,0.7,0,1.1c0,1-0.1,1.7-0.3,2.2
			c-0.2,0.4-0.4,0.6-0.7,0.6c-0.3,0-0.6-0.1-1-0.4c-0.3-0.2-0.7-0.5-1.2-0.8c-0.5-0.3-1-0.6-1.6-0.8c-0.6-0.2-1.4-0.4-2.3-0.4
			c-1.7,0-3.1,0.7-4,2c-0.9,1.3-1.4,3.3-1.4,5.9c0,1.3,0.1,2.4,0.3,3.4c0.2,1,0.6,1.8,1,2.4c0.5,0.7,1,1.1,1.7,1.5
			c0.7,0.3,1.5,0.5,2.4,0.5c0.9,0,1.7-0.1,2.4-0.4c0.7-0.3,1.2-0.6,1.7-0.9c0.5-0.3,0.9-0.6,1.2-0.9c0.3-0.3,0.6-0.4,0.8-0.4
			c0.2,0,0.3,0,0.4,0.1c0.1,0.1,0.2,0.3,0.3,0.5s0.1,0.5,0.1,0.9C724.8,131.5,724.8,132,724.8,132.5z"/>
		<path class="st1" d="M753.3,124.3c0,2-0.3,3.9-0.8,5.5c-0.5,1.7-1.3,3.1-2.4,4.3c-1.1,1.2-2.4,2.1-4.1,2.8c-1.6,0.7-3.5,1-5.7,1
			c-2.1,0-3.9-0.3-5.5-0.9c-1.6-0.6-2.8-1.4-3.9-2.5c-1-1.1-1.8-2.5-2.3-4.1c-0.5-1.6-0.7-3.5-0.7-5.6c0-2,0.3-3.9,0.8-5.5
			c0.5-1.7,1.3-3.1,2.4-4.3c1.1-1.2,2.4-2.1,4-2.8c1.6-0.7,3.5-1,5.7-1c2.1,0,4,0.3,5.5,0.9c1.6,0.6,2.8,1.4,3.9,2.5
			c1,1.1,1.8,2.5,2.3,4.1C753,120.3,753.3,122.1,753.3,124.3z M746.4,124.5c0-1.2-0.1-2.2-0.3-3.2c-0.2-1-0.5-1.8-0.9-2.6
			c-0.4-0.7-1-1.3-1.8-1.7c-0.7-0.4-1.7-0.6-2.8-0.6c-1,0-1.9,0.2-2.6,0.5c-0.7,0.4-1.4,0.9-1.8,1.6c-0.5,0.7-0.8,1.5-1.1,2.5
			c-0.2,1-0.4,2.1-0.4,3.4c0,1.2,0.1,2.2,0.3,3.2c0.2,1,0.5,1.8,0.9,2.6c0.4,0.7,1,1.3,1.8,1.7c0.7,0.4,1.7,0.6,2.8,0.6
			c1,0,1.9-0.2,2.6-0.5c0.7-0.4,1.4-0.9,1.8-1.6c0.5-0.7,0.8-1.5,1.1-2.5S746.4,125.8,746.4,124.5z"/>
		<path class="st1" d="M796.2,136.3c0,0.2-0.1,0.3-0.2,0.5c-0.1,0.1-0.3,0.2-0.5,0.3c-0.2,0.1-0.6,0.2-1,0.2c-0.4,0-1,0.1-1.6,0.1
			c-0.7,0-1.2,0-1.6-0.1c-0.4,0-0.8-0.1-1-0.2c-0.3-0.1-0.4-0.2-0.5-0.3c-0.1-0.1-0.1-0.3-0.1-0.5v-14c0-0.8-0.1-1.5-0.2-2.2
			c-0.2-0.7-0.4-1.2-0.7-1.7c-0.3-0.5-0.7-0.8-1.2-1.1c-0.5-0.3-1-0.4-1.7-0.4c-0.8,0-1.6,0.3-2.4,0.9c-0.8,0.6-1.7,1.5-2.7,2.7
			v15.7c0,0.2-0.1,0.3-0.2,0.5c-0.1,0.1-0.3,0.2-0.5,0.3c-0.3,0.1-0.6,0.2-1,0.2c-0.4,0-1,0.1-1.6,0.1c-0.7,0-1.2,0-1.6-0.1
			c-0.4,0-0.8-0.1-1-0.2c-0.3-0.1-0.4-0.2-0.5-0.3c-0.1-0.1-0.2-0.3-0.2-0.5v-14c0-0.8-0.1-1.5-0.2-2.2c-0.2-0.7-0.4-1.2-0.7-1.7
			c-0.3-0.5-0.7-0.8-1.2-1.1c-0.5-0.3-1-0.4-1.7-0.4c-0.8,0-1.6,0.3-2.4,0.9c-0.8,0.6-1.7,1.5-2.6,2.7v15.7c0,0.2-0.1,0.3-0.2,0.5
			c-0.1,0.1-0.3,0.2-0.5,0.3c-0.3,0.1-0.6,0.2-1,0.2c-0.4,0-1,0.1-1.6,0.1s-1.2,0-1.6-0.1c-0.4,0-0.8-0.1-1-0.2
			c-0.3-0.1-0.4-0.2-0.5-0.3c-0.1-0.1-0.2-0.3-0.2-0.5v-23.6c0-0.2,0-0.3,0.1-0.5c0.1-0.1,0.2-0.2,0.5-0.3c0.2-0.1,0.5-0.2,0.9-0.2
			c0.4,0,0.8-0.1,1.4-0.1c0.6,0,1,0,1.4,0.1c0.4,0,0.7,0.1,0.9,0.2c0.2,0.1,0.3,0.2,0.4,0.3s0.1,0.3,0.1,0.5v2.7
			c1.3-1.4,2.6-2.5,3.9-3.2c1.3-0.7,2.7-1.1,4.1-1.1c1,0,1.8,0.1,2.6,0.3c0.8,0.2,1.5,0.5,2.1,0.9c0.6,0.4,1.1,0.8,1.6,1.4
			c0.4,0.5,0.8,1.1,1.1,1.8c0.7-0.8,1.4-1.4,2.1-2c0.7-0.5,1.4-1,2-1.3c0.7-0.3,1.3-0.6,2-0.8c0.7-0.2,1.3-0.3,2-0.3
			c1.6,0,2.9,0.3,4,0.8c1.1,0.5,1.9,1.3,2.6,2.2c0.7,0.9,1.1,2,1.4,3.2c0.3,1.2,0.4,2.5,0.4,3.9V136.3z"/>
		<path class="st1" d="M824.6,123.8c0,0.8-0.2,1.4-0.5,1.8c-0.4,0.4-0.9,0.6-1.5,0.6h-14.4c0,1,0.1,1.9,0.4,2.7
			c0.2,0.8,0.6,1.5,1.1,2.1c0.5,0.6,1.2,1,2,1.3c0.8,0.3,1.8,0.5,3,0.5c1.2,0,2.2-0.1,3.1-0.3c0.9-0.2,1.6-0.4,2.3-0.6
			c0.6-0.2,1.2-0.4,1.6-0.6c0.4-0.2,0.8-0.3,1-0.3c0.2,0,0.3,0,0.4,0.1c0.1,0.1,0.2,0.2,0.3,0.3c0.1,0.2,0.1,0.4,0.1,0.7
			c0,0.3,0,0.7,0,1.1c0,0.4,0,0.7,0,1c0,0.3,0,0.5-0.1,0.7c0,0.2-0.1,0.4-0.2,0.5c-0.1,0.1-0.2,0.3-0.3,0.4s-0.4,0.3-0.9,0.5
			c-0.5,0.2-1.2,0.4-2,0.6c-0.8,0.2-1.7,0.4-2.7,0.5c-1,0.1-2.1,0.2-3.3,0.2c-2.1,0-3.9-0.3-5.5-0.8c-1.6-0.5-2.9-1.3-4-2.4
			c-1.1-1.1-1.9-2.4-2.4-4.1c-0.5-1.6-0.8-3.6-0.8-5.8c0-2.1,0.3-4,0.8-5.7c0.5-1.7,1.3-3.1,2.4-4.3s2.3-2.1,3.8-2.7
			c1.5-0.6,3.2-0.9,5.1-0.9c2,0,3.7,0.3,5.1,0.9c1.4,0.6,2.6,1.4,3.5,2.4c0.9,1,1.6,2.3,2,3.7c0.4,1.4,0.6,3,0.6,4.6V123.8z
			 M818.1,121.9c0.1-1.9-0.3-3.3-1.1-4.4c-0.8-1.1-2-1.6-3.7-1.6c-0.8,0-1.6,0.2-2.2,0.5c-0.6,0.3-1.1,0.7-1.6,1.3
			c-0.4,0.5-0.7,1.2-1,1.9c-0.2,0.7-0.3,1.5-0.4,2.3H818.1z"/>
	</g>
</g>
</svg>
