<?xml version="1.0" encoding="utf-8"?>
<!-- Generator: Adobe Illustrator 23.0.1, SVG Export Plug-In . SVG Version: 6.00 Build 0)  -->
<svg version="1.1" id="Layer_1" xmlns="http://www.w3.org/2000/svg" xmlns:xlink="http://www.w3.org/1999/xlink" x="0px" y="0px"
	 viewBox="0 0 73.9 73.9" style="enable-background:new 0 0 73.9 73.9;" xml:space="preserve">
<style type="text/css">
	.st0{fill:none;stroke:#000000;stroke-width:3;stroke-miterlimit:10;}
	.st1{stroke:#000000;stroke-miterlimit:10;}
	.st2{fill:#FFFDFD;}
</style>
<circle class="st0" cx="37" cy="37" r="35.5"/>
<path d="M37,37"/>
<g>
	<path d="M38.9,44.9c-0.1,0-0.1-0.1-0.1-0.2c-0.1-0.1-0.1-0.2-0.2-0.3c0-0.1,0-0.1,0-0.1c-0.4-0.6-1-1-1.9-1.1
		c-0.8,0-1.5,0.5-1.9,1.1c0,0.1,0,0.1,0,0.1c-0.1,0.1-0.1,0.2-0.2,0.3c-0.1,0-0.1,0.1-0.1,0.2c-0.1,0.1-0.1,0.1-0.1,0.2
		c-0.2,0.4-0.2,0.9-0.2,1.4v2.3h2.3H39v-2.3c0-0.5-0.1-1,0-1.4C38.9,44.9,38.9,44.9,38.9,44.9z"/>
	<path d="M36.7,51.8c-0.9,0-1.6,0.8-1.6,1.7v2.6c0,1,0.7,1.7,1.6,1.7c0.9,0,1.6-0.8,1.6-1.7v-2.6C38.3,52.5,37.6,51.8,36.7,51.8z"/>
	<path d="M62,52.4l-2.3-1.2l-11.8-6.1c-0.3-0.1-0.9-0.5-1.4-0.9c-2.1-2.1-1.7-7.3-1.7-7.3c0-1.3,0.3-2.1,0.6-2.7
		c0.3-0.5,2.3-1.8,2.3-1.8c1.2-1.1,1.6-4.4,1.6-4.4c0.1-0.9,0.1-1.5,0.1-1.5c0-0.5-0.1-0.9-0.3-1.1l-0.5-0.7
		c-0.2-0.2-0.3-0.9-0.3-0.9l0.1-3.1C48.4,13.6,43.2,8,36.8,8c-6.3,0-11.5,5.7-11.6,12.5c0,0.4-0.1,3.3-0.1,3.3s-0.1,0.7-0.3,0.9
		l-0.5,0.7c-0.2,0.2-0.3,0.6-0.3,1.1c0,0,0,0.7,0.1,1.5c0,0,0.4,3.3,1.6,4.4c0,0,1.9,1.3,2.3,1.8c0.3,0.5,0.6,1.3,0.6,2.7
		c0,0,0.4,5.2-1.7,7.3c-0.5,0.5-1.1,0.8-1.4,0.9l-11.8,6.1l-2.3,1.2c-0.5,0.4-1,0.9-1,1.8c0,0,0,0,0,0.1c0,0,0,0,0,0.1s0,0.2,0,0.2
		c0,0.1,0,0.2,0.1,0.4c0.1,0.1,0.2,0.5,0.4,0.8c0.5,0.7,1.8,2.4,4.4,4.6c0,0,0,0,0.1,0c5.7,5,12.9,8,20.7,8c0.2,0,0.9,0,1.1,0
		c7.8,0,15-2.9,20.7-8c0,0,0,0,0.1,0c2.6-2.2,3.9-3.9,4.4-4.6c0.2-0.4,0.3-0.6,0.4-0.8c0-0.1,0.1-0.2,0.1-0.4c0-0.1,0-0.2,0-0.2
		s0,0,0-0.1c0,0,0,0,0-0.1C63,53.5,62.5,52.8,62,52.4z M44.5,58.8c0,1.2-1,2.1-2.1,2.1H31c-1.2,0-2.1-1-2.1-2.1v-8.1
		c0-1,0.9-1.9,1.9-2v-2.3c0-3.2,2.7-5.9,5.9-5.9s5.9,2.7,5.9,5.9v2.3c1,0,1.9,0.9,1.9,2V58.8z"/>
</g>
<path class="st1" d="M27.5,49.1c-1,1.6-2.2,3.2-2.5,5.1c-0.4,2.2,0.5,4.4,2,6.1c1.5,1.6,3.5,2.7,5.7,3.2s4.4,0.7,6.6,0.7
	c2.3,0,4.7,0,6.6-1.3c2.2-1.4,3.4-4.2,3.4-6.8s-0.8-5.2-1.7-7.7c-1-2.5-2.1-5.1-4.3-6.6c-1.9-1.4-4.3-1.8-6.7-2.2
	c-0.8-0.1-1.5-0.3-2.3-0.4c-0.6-0.1-1.6-0.5-2.2-0.3c-0.9,0.2-0.8,1.7-1,2.4C30.2,44.1,29,46.7,27.5,49.1z"/>
<path class="st2" d="M36.7,41.5c-3.2,0-6.3,1.9-6.3,5.4c0,0.9,0.9,1.7,1.9,1.7c1,0,1.9-0.8,1.9-1.7c0-1.9,2.2-1.9,2.5-1.9
	s2.5,0.1,2.5,1.9v0.4c0,0.8-0.4,1.4-1.2,1.8L36.3,50c-0.9,0.5-1.5,1.3-1.5,2.3v1.4c0,0.9,0.9,1.7,1.9,1.7s1.9-0.8,1.9-1.7v-0.9
	l1.2-0.5c2-0.9,3.2-2.8,3.2-4.8V47C43,43.4,39.8,41.5,36.7,41.5z"/>
<path class="st2" d="M36.7,57.3c-3.1,0-3.1,4.4,0,4.4C39.8,61.7,39.8,57.3,36.7,57.3z"/>
</svg>
