<?xml version="1.0" encoding="utf-8"?>
<!-- Generator: Adobe Illustrator 23.0.1, SVG Export Plug-In . SVG Version: 6.00 Build 0)  -->
<svg version="1.1" id="Layer_1" xmlns="http://www.w3.org/2000/svg" xmlns:xlink="http://www.w3.org/1999/xlink" x="0px" y="0px"
	 viewBox="0 0 24 24" style="enable-background:new 0 0 24 24;" xml:space="preserve">
<style type="text/css">
	.st0{fill:#6CA0B3;}
</style>
<path class="st0" d="M15.5,17c-0.3,0-0.5,0.2-0.5,0.5V20H1V1.5C1,1.2,1.2,1,1.5,1H5v0.5C5,2.3,5.7,3,6.5,3h3C10.3,3,11,2.3,11,1.5V1
	h3.5C14.8,1,15,1.2,15,1.5v2C15,3.8,15.2,4,15.5,4S16,3.8,16,3.5v-2C16,0.7,15.3,0,14.5,0h-13C0.7,0,0,0.7,0,1.5v21
	C0,23.3,0.7,24,1.5,24h13c0.8,0,1.5-0.7,1.5-1.5v-5C16,17.2,15.8,17,15.5,17z M6,1h4v0.5C10,1.8,9.8,2,9.5,2h-3C6.2,2,6,1.8,6,1.5V1
	z M15,22.5c0,0.3-0.2,0.5-0.5,0.5h-13C1.2,23,1,22.8,1,22.5V21h14V22.5z"/>
<path class="st0" d="M22.5,2c-0.7,0-1.2,0.4-1.4,1h-2.6C17.7,3,17,3.7,17,4.5v0.7C16.5,5.1,16,5,15.5,5c-3,0-5.5,2.5-5.5,5.5
	c0,2.1,1.2,4,3,4.9v1.1c0,0.3-0.2,0.5-0.5,0.5H9.9c-0.2-0.6-0.8-1-1.4-1C7.7,16,7,16.7,7,17.5S7.7,19,8.5,19c0.7,0,1.2-0.4,1.4-1
	h2.6c0.8,0,1.5-0.7,1.5-1.5v-0.7c0.5,0.1,1,0.2,1.5,0.2c3,0,5.5-2.5,5.5-5.5c0-2.1-1.2-4-3-4.9V4.5C18,4.2,18.2,4,18.5,4h2.6
	c0.2,0.6,0.8,1,1.4,1C23.3,5,24,4.3,24,3.5S23.3,2,22.5,2z M8.5,18C8.2,18,8,17.8,8,17.5S8.2,17,8.5,17S9,17.2,9,17.5S8.8,18,8.5,18
	z M20,10.5c0,2.5-2,4.5-4.5,4.5S11,13,11,10.5S13,6,15.5,6S20,8,20,10.5z M22.5,4C22.2,4,22,3.8,22,3.5S22.2,3,22.5,3S23,3.2,23,3.5
	S22.8,4,22.5,4z"/>
<path class="st0" d="M13.9,11.7L13.1,13c0,0,0.3,0.4,1.2,0.8l0.4-1.2l0.3-0.8l0.3-0.9c0,0,0.1-0.3,0.1-0.3l0,0c0,0,0,0,0,0l0,0l0,0
	c0,0,0,0,0,0l0,0l0,0l0,0l0,0.1l0.1,0.2l0.2,0.6L16,12l0.3,0.9l0.2,0.6l0.1,0.3c0,0,0.7-0.2,1.3-0.8l-0.4-0.6l-0.3-0.5l-0.3-0.6
	l-0.2-0.5l-0.2-0.4L16.3,10l-0.1-0.4L16,9.1l-0.2-0.5L15.8,8l-0.2-0.6l-0.1-0.3l-0.2,0.5l-0.2,0.8L14.9,9l-0.2,0.6l-0.2,0.5
	l-0.2,0.5l-0.2,0.5L13.9,11.7z"/>
</svg>
