<?xml version="1.0" encoding="utf-8"?>
<!-- Generator: Adobe Illustrator 23.0.1, SVG Export Plug-In . SVG Version: 6.00 Build 0)  -->
<svg version="1.1" id="Layer_1" xmlns="http://www.w3.org/2000/svg" xmlns:xlink="http://www.w3.org/1999/xlink" x="0px" y="0px"
	 viewBox="0 0 73.9 73.9" style="enable-background:new 0 0 73.9 73.9;" xml:space="preserve">
<style type="text/css">
	.st0{fill:none;stroke:#000000;stroke-width:3;stroke-miterlimit:10;}
</style>
<circle class="st0" cx="37" cy="37" r="35.5"/>
<path d="M37,37"/>
<g>
	<g>
		<g>
			<g>
				<path d="M56.3,22.2l-36.1,0c-0.7,0-1.2-0.6-1.2-1.2c0-0.7,0.6-1.2,1.2-1.2l31.4,0c0.8,0,1.5-0.7,1.5-1.5c0-0.8-0.7-1.5-1.5-1.5
					H19.3c-1.9,0-3.5,1.6-3.5,3.5v31.4c0,1,0.8,1.8,1.8,1.8h3.8c2.3,3.7,6.4,6.1,11.1,6.1s8.7-2.4,11.1-6.1h12.8
					c1,0,1.8-0.8,1.8-1.8V24C58.1,23,57.3,22.2,56.3,22.2z M32.5,57c-5.9,0-10.6-4.8-10.6-10.6c0-0.4,0-0.9,0.1-1.3
					c0.7-5.3,5.2-9.3,10.6-9.3c1.4,0,2.7,0.3,4,0.8c4.1,1.6,6.7,5.5,6.7,9.9C43.1,52.2,38.4,57,32.5,57z M55.4,34.4h-9.7
					c-1.8,0-3.3-1.5-3.3-3.3c0-1.8,1.5-3.3,3.3-3.3h9.7V34.4z M44.5,31.1c0,0.8,0.6,1.4,1.4,1.4c0.8,0,1.4-0.6,1.4-1.4
					c0-0.8-0.6-1.4-1.4-1.4C45.2,29.6,44.5,30.3,44.5,31.1z"/>
			</g>
		</g>
	</g>
	<circle cx="32.5" cy="41.4" r="1"/>
	<path d="M32.5,52.3c0.5,0,1-0.4,1-1c0,0,0,0,0,0v-6c0-0.5-0.4-1-1-1c-0.5,0-1,0.4-1,1v6C31.5,51.9,31.9,52.3,32.5,52.3
		C32.5,52.3,32.5,52.3,32.5,52.3z"/>
</g>
</svg>
