<?xml version="1.0" encoding="utf-8"?>
<!-- Generator: Adobe Illustrator 22.1.0, SVG Export Plug-In . SVG Version: 6.00 Build 0)  -->
<svg version="1.1" id="Layer_1" xmlns="http://www.w3.org/2000/svg" xmlns:xlink="http://www.w3.org/1999/xlink" x="0px" y="0px"
	 viewBox="0 0 41.7 50" style="enable-background:new 0 0 41.7 50;" xml:space="preserve">
<style type="text/css">
	.st0{display:none;fill:#FFFFFF;}
	.st1{display:none;}
	.st2{display:inline;fill:#FFFFFF;}
	.st3{display:inline;fill:#030303;}
	.st4{fill:#010101;}
</style>
<ellipse class="st0" cx="20.8" cy="18.9" rx="24.9" ry="25"/>
<g>
	<g class="st1">
		<circle class="st2" cx="20.8" cy="25" r="24.3"/>
		<path class="st3" d="M20.8,50C7,50-4.2,38.8-4.2,25S7,0,20.8,0s25,11.2,25,25S34.6,50,20.8,50z M20.8,1.3C7.7,1.3-2.9,11.9-2.9,25
			S7.7,48.7,20.8,48.7S44.5,38.1,44.5,25S33.9,1.3,20.8,1.3z"/>
	</g>
	<g>
		<g>
			<path class="st4" d="M7.4,21.9c0.3,1,0.9,3,2.1,4.2c0.9,3.5,3.7,7.5,8.1,9.1c1.1,0.3,2.2,0.6,3.3,0.6c1.1,0,2.2-0.2,3.3-0.6
				c4.4-1.5,7.2-5.6,8.1-9.2c1.2-1.2,1.8-3.2,2.1-4.2c0.4-1.7,1-4.1-0.3-5.8c0,0-0.1-0.1-0.1-0.2c0.3-2.1,0.3-3.8,0-5.4
				c-0.6-2.2-1.7-4.2-3.3-5.9c-0.9-0.9-1.9-1.8-2.9-2.4c-1-0.7-2-1.2-3-1.5l0,0C23.9,0.2,22.9,0,21.9,0c-0.3,0-0.8,0-1.1,0
				c-2.2,0-4.1,0.6-5.9,1.5c-1.5,0.9-2.5,1.9-3.1,2.7C11.1,4.5,10.2,5,9.4,6.1C7.7,8.3,7.2,11.6,8,16c0,0-0.1,0.1-0.1,0.2
				C6.4,17.8,7,20.2,7.4,21.9z M10.6,17.3h0.1l0,0c-0.1-0.6-0.9-3.5,1.7-5.3c2.1,0.6,5.3,0.6,9.6-1.3c8.3-3.5,9.1,6.6,9.1,6.6l0,0
				h0.1c0.9,0,1.8,0.7,0.8,4c-0.8,2.5-1.4,3.3-1.9,3.3c-0.4,3.1-2.9,7-6.7,8.3c-0.8,0.2-1.7,0.4-2.4,0.4c-0.8,0-1.7-0.1-2.4-0.4
				c-3.8-1.4-6.3-5.2-6.7-8.3c-0.6,0-1.2-0.8-1.9-3.3C8.8,17.9,9.7,17.3,10.6,17.3z"/>
		</g>
		<g>
			<path class="st4" d="M20.9,50c8.6,0,16.2-4.2,20.8-10.6c-4.1-3-8-5.2-10.3-6.4l0,0c-1.5,1.9-3.7,3.7-6.4,4.5
				c-1.3,0.4-2.8,0.8-4.2,0.8c-1.4,0-2.8-0.2-4.1-0.8c-2.8-1-4.9-2.7-6.4-4.5C8.1,34.2,4.1,36.4,0,39.4C4.8,45.8,12.3,50,20.9,50z
				 M20.9,40.7c0.8,0,1.3,0.7,1.3,1.3s-0.7,1.3-1.3,1.3c-0.8,0-1.3-0.7-1.3-1.3S20.1,40.7,20.9,40.7z M20.9,44.9
				c0.8,0,1.3,0.7,1.3,1.3c0,0.8-0.7,1.3-1.3,1.3c-0.8,0-1.3-0.7-1.3-1.3C19.6,45.5,20.1,44.9,20.9,44.9z"/>
		</g>
	</g>
</g>
</svg>
