<?xml version="1.0" encoding="utf-8"?>
<!-- Generator: Adobe Illustrator 23.0.1, SVG Export Plug-In . SVG Version: 6.00 Build 0)  -->
<!DOCTYPE svg PUBLIC "-//W3C//DTD SVG 1.1//EN" "http://www.w3.org/Graphics/SVG/1.1/DTD/svg11.dtd" [
	<!ENTITY ns_extend "http://ns.adobe.com/Extensibility/1.0/">
	<!ENTITY ns_ai "http://ns.adobe.com/AdobeIllustrator/10.0/">
	<!ENTITY ns_graphs "http://ns.adobe.com/Graphs/1.0/">
	<!ENTITY ns_vars "http://ns.adobe.com/Variables/1.0/">
	<!ENTITY ns_imrep "http://ns.adobe.com/ImageReplacement/1.0/">
	<!ENTITY ns_sfw "http://ns.adobe.com/SaveForWeb/1.0/">
	<!ENTITY ns_custom "http://ns.adobe.com/GenericCustomNamespace/1.0/">
	<!ENTITY ns_adobe_xpath "http://ns.adobe.com/XPath/1.0/">
]>
<svg version="1.1" id="Layer_1" xmlns:x="&ns_extend;" xmlns:i="&ns_ai;" xmlns:graph="&ns_graphs;" focusable="false"
	 xmlns="http://www.w3.org/2000/svg" xmlns:xlink="http://www.w3.org/1999/xlink" x="0px" y="0px" viewBox="0 0 512 512"
	 style="enable-background:new 0 0 512 512;" xml:space="preserve">
<style type="text/css">
	.st0{fill:#888888;}
</style>
<metadata>
	<sfw  xmlns="&ns_sfw;">
		<slices></slices>
		<sliceSourceBounds  bottomLeftOrigin="true" height="512" width="512" x="0" y="0"></sliceSourceBounds>
	</sfw>
</metadata>
<path class="st0" d="M493.3,56.2l-37.5-37.5c-25-25-65.5-25-90.5,0L12.8,371.2L0.2,485.3c-1.7,15.3,11.2,28.2,26.5,26.5l114.2-12.7
	l352.4-352.4C518.2,121.8,518.2,81.2,493.3,56.2L493.3,56.2z M164.7,347.3c6.2,6.2,16.4,6.2,22.6,0L368,166.6l30.1,30.1L174,420.7
	V386h-48v-48H91.3l224.1-224.1l30.1,30.1L164.7,324.7C158.4,330.9,158.4,341.1,164.7,347.3L164.7,347.3z M126.1,468.6l-59,6.6
	l-30.3-30.3l6.6-59L63.3,366H98v48h48v34.7L126.1,468.6z M470.6,124.1l-49.9,49.9l-82.7-82.7l49.9-49.9c12.5-12.5,32.7-12.5,45.3,0
	l37.5,37.5C483.1,91.4,483.1,111.6,470.6,124.1L470.6,124.1z"/>
</svg>
