<svg xmlns="http://www.w3.org/2000/svg" xmlns:xlink="http://www.w3.org/1999/xlink" width="38" height="38" viewBox="0 0 38 38">
                <defs>
                    <path id="prev-a" d="M25.8270723,17.3333333 L20.5802028,12.0864638 C20.1028954,11.6091564 20.1028954,10.8352881 20.5802028,10.3579806 C21.0575103,9.88067313 21.8313786,9.88067313 22.3086861,10.3579806 L29.6420194,17.6913139 C30.1193269,18.1686214 30.1193269,18.9424897 29.6420194,19.4197972 L22.3086861,26.7531305 C21.8313786,27.230438 21.0575103,27.230438 20.5802028,26.7531305 C20.1028954,26.275823 20.1028954,25.5019547 20.5802028,25.0246473 L25.8270723,19.7777778 L9.22222222,19.7777778 C8.54720753,19.7777778 8,19.2305702 8,18.5555556 C8,17.8805409 8.54720753,17.3333333 9.22222222,17.3333333 L25.8270723,17.3333333 Z"></path>
                </defs>
                <g fill-rule="evenodd">
                    <use fill-rule="nonzero" transform="matrix(-1 0 0 1 38 0)" xlink:href="#prev-a"></use>
                </g>
            </svg>